<?xml version="1.0" encoding="UTF-8" standalone="no"?><!DOCTYPE svg PUBLIC "-//W3C//DTD SVG 1.1//EN" "http://www.w3.org/Graphics/SVG/1.1/DTD/svg11.dtd"><svg width="4000px" height="2500px" version="1.1" xmlns="http://www.w3.org/2000/svg" xmlns:xlink="http://www.w3.org/1999/xlink" xml:space="preserve" xmlns:serif="http://www.serif.com/" style="fill-rule:evenodd;clip-rule:evenodd;stroke-linejoin:round;stroke-miterlimit:2;"><g id="c99"></g><g transform="matrix(2.2689,0,0,2.2689,-356.347,14.0132)"><g id="c51"><g transform="matrix(0.441052,0,0,0.441052,157.793,-6.23997)"><rect x="111.817" y="218.725" width="3805.79" height="2107.56" style="fill:rgb(174,211,240);"/></g><g transform="matrix(1,0,0,1,-1305.22,-1117.13)"><path d="M1512.33,1998.43C1525.62,1999.04 1538.9,2000.19 1551.94,2001.12C1611.36,2005.32 1681.06,2008.52 1737.77,2027.62C1800.37,2048.71 1860.97,2075 1925.25,2091.02C2067.95,2126.58 2239.76,2110.03 2368.84,2038.71C2429.92,2004.96 2486.81,1964.79 2533.95,1913.21C2632.81,1805.06 2649.45,1725.24 2799.53,1670.09C2868.83,1644.62 2946.89,1623.82 3020.95,1620.67C3076.63,1618.31 3135.64,1625.4 3190.88,1634.77L3190.88,2136.9L1512.33,2136.9L1512.33,1998.43ZM3190.88,1368.24C3138.69,1393.37 3081.11,1408.99 3026.39,1405.87C2942.67,1401.1 2894.71,1358.88 2825.79,1319.3C2733.45,1266.28 2636.81,1239.39 2529.5,1250.37C2387.03,1264.95 2275.44,1358.55 2149.52,1415.3C1946.26,1506.91 1705.64,1536.18 1512.33,1446.03L1512.33,1207.36L3190.88,1207.36L3190.88,1368.24Z" style="fill:rgb(195,220,243);"/></g><g transform="matrix(0.441052,0,0,0.441052,157.793,-6.23997)"><rect x="111.817" y="218.725" width="3805.79" height="2107.56" style="fill:none;"/><clipPath id="_clip1"><rect x="111.817" y="218.725" width="3805.79" height="2107.56"/></clipPath><g clip-path="url(#_clip1)"><g transform="matrix(2.26731,0,0,2.26731,-489.276,-163.453)"><g transform="matrix(1,0,0,1,58.0027,78.331)"><path d="M109.661,800.595L1939.53,633.024L2017.48,1061.11L154.218,1089.22L109.661,800.595Z" style="fill:rgb(223,236,249);"/></g><g transform="matrix(-0.43353,0,0,0.359689,2329.37,75.6941)"><g transform="matrix(1.4315,0,0,1.07229,583.422,-877.173)"><ellipse cx="757.78" cy="1535.86" rx="299.924" ry="645.268" style="fill-opacity:0.2;"/></g><g transform="matrix(0.841517,0,0,0.841517,665.019,-528.928)"><g transform="matrix(0.638066,0,0,1.02219,162.587,40.1701)"><path d="M1607.73,641.939C1993.91,641.939 2297.03,905.272 2307.45,1341.66C2317.36,1757.03 1993.91,2041.38 1607.73,2041.38C1548.26,2041.38 1330.9,2040.49 1330.9,2040.49C1330.9,2040.49 908.006,1668.38 908.006,1341.66C908.006,981.865 1366.61,643.174 1366.61,643.174C1366.61,643.174 1581.34,641.939 1607.73,641.939Z" style="fill:rgb(235,208,99);"/></g><g transform="matrix(0.638066,0,0,1.02219,162.587,40.1701)"><path d="M1607.73,641.939C1993.91,641.939 2297.03,905.272 2307.45,1341.66C2317.36,1757.03 1993.91,2041.38 1607.73,2041.38C1548.26,2041.38 1330.9,2040.49 1330.9,2040.49C1330.9,2040.49 908.006,1668.38 908.006,1341.66C908.006,981.865 1366.61,643.174 1366.61,643.174C1366.61,643.174 1581.34,641.939 1607.73,641.939Z" style="fill:rgb(182,154,34);"/></g><g transform="matrix(0.638066,0,0,1.02219,11.1841,40.1701)"><path d="M1607.73,641.939C1993.91,641.939 2297.03,905.272 2307.45,1341.66C2317.36,1757.03 1993.91,2041.38 1607.73,2041.38C1221.54,2041.38 908.006,1727.85 908.006,1341.66C908.006,955.474 1221.54,641.939 1607.73,641.939Z" style="fill:rgb(249,242,212);"/></g><g transform="matrix(0.601948,0,0,0.999343,58.5181,71.7853)"><circle cx="1607.73" cy="1341.66" r="699.721" style="fill:rgb(193,171,83);"/></g><g transform="matrix(0.564229,0,0,1,160.803,68.6296)"><circle cx="1607.73" cy="1341.66" r="699.721" style="fill:rgb(235,208,99);"/></g><g transform="matrix(-1,0,0,1,2139.45,0)"><path d="M1077.88,1924.11L1059.77,1971.34L1060.08,1971.65C1060.6,1971.23 1061.41,1970.89 1062.5,1970.62C1063.59,1970.36 1065.02,1970.23 1066.79,1970.23C1069.6,1970.23 1072.2,1970.91 1074.6,1972.28C1076.99,1973.65 1078.87,1975.39 1080.22,1977.5C1080.95,1978.65 1081.52,1979.81 1081.94,1980.97C1082.35,1982.13 1082.72,1983.66 1083.03,1985.55C1083.24,1987.45 1083.39,1989.84 1083.5,1992.74C1083.6,1995.63 1083.65,1999.29 1083.65,2003.72C1083.65,2007.4 1083.6,2010.43 1083.5,2012.8C1083.39,2015.17 1083.24,2017.14 1083.03,2018.72C1082.72,2020.41 1082.33,2021.83 1081.86,2022.99C1081.39,2024.14 1080.79,2025.36 1080.06,2026.62C1077.98,2030.09 1075.2,2032.78 1071.71,2034.67C1068.22,2036.57 1064.3,2037.52 1059.92,2037.52C1055.55,2037.52 1051.65,2036.54 1048.21,2034.6C1044.78,2032.65 1042.02,2029.99 1039.94,2026.62C1039.11,2025.36 1038.46,2024.14 1037.99,2022.99C1037.52,2021.83 1037.18,2020.41 1036.97,2018.72C1036.66,2017.14 1036.45,2015.17 1036.35,2012.8C1036.25,2010.43 1036.19,2007.4 1036.19,2003.72C1036.19,2000.24 1036.25,1997.37 1036.35,1995.11C1036.45,1992.84 1036.61,1990.87 1036.82,1989.18C1037.03,1987.61 1037.34,1986.16 1037.76,1984.84C1038.17,1983.52 1038.64,1982.13 1039.16,1980.65L1060.08,1924.11L1077.88,1924.11ZM1067.73,1992.5C1067.73,1990.08 1066.95,1988.13 1065.39,1986.66C1063.83,1985.18 1062.01,1984.45 1059.92,1984.45C1057.84,1984.45 1056.02,1985.18 1054.46,1986.66C1052.9,1988.13 1052.12,1990.08 1052.12,1992.5L1052.12,2013.35C1052.12,2015.77 1052.9,2017.72 1054.46,2019.2C1056.02,2020.67 1057.84,2021.41 1059.92,2021.41C1062.01,2021.41 1063.83,2020.67 1065.39,2019.2C1066.95,2017.72 1067.73,2015.77 1067.73,2013.35L1067.73,1992.5ZM1225.2,1951.72L1236.01,1939.35L1212.63,1878.68L1206.82,1884.01L1225.2,1951.72ZM879.91,1940.33L891.359,1950.74L909.314,1884.52L903.808,1878.27L879.91,1940.33ZM1353.93,1731.89L1359.81,1711.6L1322.44,1679.78L1318.92,1689.54L1353.93,1731.89ZM755.878,1712.17L762.856,1731.33L797.087,1689.89L794.082,1679.6L755.878,1712.17ZM739.666,1476.52L757.776,1429.29L757.464,1428.98C756.943,1429.4 756.137,1429.74 755.044,1430C753.951,1430.27 752.52,1430.4 750.75,1430.4C747.94,1430.4 745.338,1429.71 742.945,1428.35C740.551,1426.98 738.677,1425.24 737.324,1423.13C736.596,1422.08 736.023,1420.95 735.607,1419.74C735.191,1418.53 734.879,1416.97 734.67,1415.08C734.358,1413.18 734.15,1410.79 734.046,1407.89C733.942,1404.99 733.89,1401.34 733.89,1396.91C733.89,1393.23 733.942,1390.2 734.046,1387.83C734.15,1385.46 734.358,1383.43 734.67,1381.75C734.879,1380.17 735.217,1378.8 735.685,1377.64C736.154,1376.48 736.752,1375.27 737.481,1374.01C739.562,1370.53 742.346,1367.85 745.833,1365.95C749.319,1364.06 753.248,1363.11 757.62,1363.11C761.991,1363.11 765.894,1364.08 769.328,1366.03C772.763,1367.98 775.521,1370.64 777.603,1374.01C778.331,1375.27 778.956,1376.48 779.476,1377.64C779.996,1378.8 780.413,1380.17 780.725,1381.75C780.933,1383.43 781.089,1385.46 781.193,1387.83C781.297,1390.2 781.349,1393.23 781.349,1396.91C781.349,1400.39 781.297,1403.26 781.193,1405.52C781.089,1407.79 780.933,1409.71 780.725,1411.29C780.413,1412.97 780.075,1414.47 779.71,1415.79C779.346,1417.1 778.904,1418.5 778.383,1419.97L757.464,1476.52L739.666,1476.52ZM1367.11,1407.58C1371.9,1407.58 1375.2,1407 1377.03,1405.85C1378.85,1404.69 1379.76,1402 1379.76,1397.79L1379.76,1383.26C1379.76,1380.94 1379.06,1379.05 1377.65,1377.57C1376.25,1376.1 1374.35,1375.36 1371.95,1375.36C1369.14,1375.36 1367.14,1376.26 1365.94,1378.05C1364.75,1379.84 1364.15,1381.57 1364.15,1383.26L1364.15,1392.42L1348.22,1392.42L1348.22,1383.1C1348.22,1379.84 1348.85,1376.73 1350.1,1373.78C1351.35,1370.83 1353.06,1368.31 1355.25,1366.2C1357.43,1364.09 1359.98,1362.41 1362.9,1361.14C1365.81,1359.88 1368.93,1359.25 1372.26,1359.25C1376.64,1359.25 1380.25,1360.12 1383.11,1361.86C1385.98,1363.59 1388.14,1365.36 1389.59,1367.15C1390.63,1368.41 1391.55,1369.67 1392.33,1370.94C1393.11,1372.2 1393.76,1373.73 1394.28,1375.52C1395.21,1378.99 1395.68,1384.15 1395.68,1391C1395.68,1394.89 1395.6,1398.05 1395.45,1400.48C1395.29,1402.9 1394.9,1404.9 1394.28,1406.48C1393.55,1408.16 1392.53,1409.58 1391.23,1410.74C1389.93,1411.9 1388.14,1413.16 1385.85,1414.53C1388.34,1416.11 1390.24,1417.59 1391.55,1418.96C1392.85,1420.33 1393.81,1421.9 1394.43,1423.69C1395.06,1425.59 1395.42,1427.83 1395.53,1430.41C1395.63,1432.99 1395.68,1436.28 1395.68,1440.28C1395.68,1443.97 1395.6,1447.02 1395.45,1449.44C1395.29,1451.86 1395.06,1453.86 1394.75,1455.44C1394.43,1457.13 1394.02,1458.55 1393.5,1459.71C1392.98,1460.87 1392.3,1462.08 1391.47,1463.34C1389.49,1466.29 1386.96,1468.74 1383.89,1470.69C1380.83,1472.63 1376.79,1473.61 1371.8,1473.61C1369.3,1473.61 1366.64,1473.19 1363.83,1472.35C1361.02,1471.5 1358.47,1470.13 1356.18,1468.24C1353.89,1466.34 1352,1463.87 1350.49,1460.81C1348.98,1457.76 1348.22,1454.02 1348.22,1449.6L1348.22,1440.44L1364.15,1440.44L1364.15,1448.81C1364.15,1451.34 1364.85,1453.42 1366.25,1455.05C1367.66,1456.68 1369.56,1457.5 1371.95,1457.5C1374.35,1457.5 1376.25,1456.68 1377.65,1455.05C1379.06,1453.42 1379.76,1451.23 1379.76,1448.49L1379.76,1432.38C1379.76,1427.96 1378.92,1425.06 1377.26,1423.69C1376.32,1422.85 1375.05,1422.33 1373.43,1422.12C1371.82,1421.9 1369.71,1421.8 1367.11,1421.8L1367.11,1407.58ZM749.814,1408.13C749.814,1410.55 750.594,1412.5 752.156,1413.97C753.717,1415.45 755.538,1416.18 757.62,1416.18C759.701,1416.18 761.523,1415.45 763.084,1413.97C764.645,1412.5 765.426,1410.55 765.426,1408.13L765.426,1387.28C765.426,1384.86 764.645,1382.91 763.084,1381.43C761.523,1379.96 759.701,1379.22 757.62,1379.22C755.538,1379.22 753.717,1379.96 752.156,1381.43C750.594,1382.91 749.814,1384.86 749.814,1387.28L749.814,1408.13ZM1360.36,1119.93L1353.38,1100.77L1319.15,1142.21L1322.16,1152.5L1360.36,1119.93ZM762.304,1100.21L756.43,1120.5L793.792,1152.32L797.319,1142.56L762.304,1100.21ZM1236.33,891.769L1224.88,881.36L1206.92,947.577L1212.43,953.829L1236.33,891.769ZM891.04,880.38L880.229,892.748L903.607,953.416L909.415,948.091L891.04,880.38ZM1023.44,903.528L1023.44,808.124L1007.52,819.97L1007.52,802.911L1023.44,791.064L1039.36,791.064L1039.36,903.528L1023.44,903.528ZM1062.62,903.528L1062.62,888.364L1091.35,833.554C1092.81,830.816 1093.64,828.421 1093.85,826.367C1094.06,824.314 1094.16,821.76 1094.16,818.706C1094.16,817.338 1094.13,815.89 1094.08,814.363C1094.03,812.836 1093.75,811.493 1093.22,810.335C1092.7,809.177 1091.92,808.202 1090.88,807.413C1089.84,806.623 1088.33,806.228 1086.36,806.228C1083.96,806.228 1082.06,806.913 1080.66,808.281C1079.25,809.65 1078.55,811.651 1078.55,814.284L1078.55,823.445L1062.62,823.445L1062.62,814.6C1062.62,811.23 1063.25,808.071 1064.5,805.122C1065.75,802.174 1067.46,799.594 1069.65,797.383C1071.73,795.171 1074.23,793.407 1077.14,792.091C1080.06,790.775 1083.18,790.117 1086.51,790.117C1090.67,790.117 1094.24,790.88 1097.2,792.407C1100.17,793.934 1102.64,796.014 1104.62,798.646C1106.49,801.279 1107.87,804.28 1108.76,807.65C1109.64,811.019 1110.09,814.6 1110.09,818.391C1110.09,821.128 1110.03,823.419 1109.93,825.262C1109.83,827.104 1109.62,828.868 1109.31,830.553C1108.99,832.238 1108.47,833.923 1107.74,835.608C1107.02,837.292 1106.03,839.346 1104.78,841.768L1081.36,887.417L1110.09,887.417L1110.09,903.528L1062.62,903.528Z" style="fill:rgb(193,171,83);fill-rule:nonzero;"/></g><g transform="matrix(-1,0,0,1,2129.57,0)"><path d="M1077.88,1924.11L1059.77,1971.34L1060.08,1971.65C1060.6,1971.23 1061.41,1970.89 1062.5,1970.62C1063.59,1970.36 1065.02,1970.23 1066.79,1970.23C1069.6,1970.23 1072.2,1970.91 1074.6,1972.28C1076.99,1973.65 1078.87,1975.39 1080.22,1977.5C1080.95,1978.65 1081.52,1979.81 1081.94,1980.97C1082.35,1982.13 1082.72,1983.66 1083.03,1985.55C1083.24,1987.45 1083.39,1989.84 1083.5,1992.74C1083.6,1995.63 1083.65,1999.29 1083.65,2003.72C1083.65,2007.4 1083.6,2010.43 1083.5,2012.8C1083.39,2015.17 1083.24,2017.14 1083.03,2018.72C1082.72,2020.41 1082.33,2021.83 1081.86,2022.99C1081.39,2024.14 1080.79,2025.36 1080.06,2026.62C1077.98,2030.09 1075.2,2032.78 1071.71,2034.67C1068.22,2036.57 1064.3,2037.52 1059.92,2037.52C1055.55,2037.52 1051.65,2036.54 1048.21,2034.6C1044.78,2032.65 1042.02,2029.99 1039.94,2026.62C1039.11,2025.36 1038.46,2024.14 1037.99,2022.99C1037.52,2021.83 1037.18,2020.41 1036.97,2018.72C1036.66,2017.14 1036.45,2015.17 1036.35,2012.8C1036.25,2010.43 1036.19,2007.4 1036.19,2003.72C1036.19,2000.24 1036.25,1997.37 1036.35,1995.11C1036.45,1992.84 1036.61,1990.87 1036.82,1989.18C1037.03,1987.61 1037.34,1986.16 1037.76,1984.84C1038.17,1983.52 1038.64,1982.13 1039.16,1980.65L1060.08,1924.11L1077.88,1924.11ZM1067.73,1992.5C1067.73,1990.08 1066.95,1988.13 1065.39,1986.66C1063.83,1985.18 1062.01,1984.45 1059.92,1984.45C1057.84,1984.45 1056.02,1985.18 1054.46,1986.66C1052.9,1988.13 1052.12,1990.08 1052.12,1992.5L1052.12,2013.35C1052.12,2015.77 1052.9,2017.72 1054.46,2019.2C1056.02,2020.67 1057.84,2021.41 1059.92,2021.41C1062.01,2021.41 1063.83,2020.67 1065.39,2019.2C1066.95,2017.72 1067.73,2015.77 1067.73,2013.35L1067.73,1992.5ZM1225.2,1951.72L1236.01,1939.35L1212.63,1878.68L1206.82,1884.01L1225.2,1951.72ZM879.91,1940.33L891.359,1950.74L909.314,1884.52L903.808,1878.27L879.91,1940.33ZM1353.93,1731.89L1359.81,1711.6L1322.44,1679.78L1318.92,1689.54L1353.93,1731.89ZM755.878,1712.17L762.856,1731.33L797.087,1689.89L794.082,1679.6L755.878,1712.17ZM739.666,1476.52L757.776,1429.29L757.464,1428.98C756.943,1429.4 756.137,1429.74 755.044,1430C753.951,1430.27 752.52,1430.4 750.75,1430.4C747.94,1430.4 745.338,1429.71 742.945,1428.35C740.551,1426.98 738.677,1425.24 737.324,1423.13C736.596,1422.08 736.023,1420.95 735.607,1419.74C735.191,1418.53 734.879,1416.97 734.67,1415.08C734.358,1413.18 734.15,1410.79 734.046,1407.89C733.942,1404.99 733.89,1401.34 733.89,1396.91C733.89,1393.23 733.942,1390.2 734.046,1387.83C734.15,1385.46 734.358,1383.43 734.67,1381.75C734.879,1380.17 735.217,1378.8 735.685,1377.64C736.154,1376.48 736.752,1375.27 737.481,1374.01C739.562,1370.53 742.346,1367.85 745.833,1365.95C749.319,1364.06 753.248,1363.11 757.62,1363.11C761.991,1363.11 765.894,1364.08 769.328,1366.03C772.763,1367.98 775.521,1370.64 777.603,1374.01C778.331,1375.27 778.956,1376.48 779.476,1377.64C779.996,1378.8 780.413,1380.17 780.725,1381.75C780.933,1383.43 781.089,1385.46 781.193,1387.83C781.297,1390.2 781.349,1393.23 781.349,1396.91C781.349,1400.39 781.297,1403.26 781.193,1405.52C781.089,1407.79 780.933,1409.71 780.725,1411.29C780.413,1412.97 780.075,1414.47 779.71,1415.79C779.346,1417.1 778.904,1418.5 778.383,1419.97L757.464,1476.52L739.666,1476.52ZM1367.11,1407.58C1371.9,1407.58 1375.2,1407 1377.03,1405.85C1378.85,1404.69 1379.76,1402 1379.76,1397.79L1379.76,1383.26C1379.76,1380.94 1379.06,1379.05 1377.65,1377.57C1376.25,1376.1 1374.35,1375.36 1371.95,1375.36C1369.14,1375.36 1367.14,1376.26 1365.94,1378.05C1364.75,1379.84 1364.15,1381.57 1364.15,1383.26L1364.15,1392.42L1348.22,1392.42L1348.22,1383.1C1348.22,1379.84 1348.85,1376.73 1350.1,1373.78C1351.35,1370.83 1353.06,1368.31 1355.25,1366.2C1357.43,1364.09 1359.98,1362.41 1362.9,1361.14C1365.81,1359.88 1368.93,1359.25 1372.26,1359.25C1376.64,1359.25 1380.25,1360.12 1383.11,1361.86C1385.98,1363.59 1388.14,1365.36 1389.59,1367.15C1390.63,1368.41 1391.55,1369.67 1392.33,1370.94C1393.11,1372.2 1393.76,1373.73 1394.28,1375.52C1395.21,1378.99 1395.68,1384.15 1395.68,1391C1395.68,1394.89 1395.6,1398.05 1395.45,1400.48C1395.29,1402.9 1394.9,1404.9 1394.28,1406.48C1393.55,1408.16 1392.53,1409.58 1391.23,1410.74C1389.93,1411.9 1388.14,1413.16 1385.85,1414.53C1388.34,1416.11 1390.24,1417.59 1391.55,1418.96C1392.85,1420.33 1393.81,1421.9 1394.43,1423.69C1395.06,1425.59 1395.42,1427.83 1395.53,1430.41C1395.63,1432.99 1395.68,1436.28 1395.68,1440.28C1395.68,1443.97 1395.6,1447.02 1395.45,1449.44C1395.29,1451.86 1395.06,1453.86 1394.75,1455.44C1394.43,1457.13 1394.02,1458.55 1393.5,1459.71C1392.98,1460.87 1392.3,1462.08 1391.47,1463.34C1389.49,1466.29 1386.96,1468.74 1383.89,1470.69C1380.83,1472.63 1376.79,1473.61 1371.8,1473.61C1369.3,1473.61 1366.64,1473.19 1363.83,1472.35C1361.02,1471.5 1358.47,1470.13 1356.18,1468.24C1353.89,1466.34 1352,1463.87 1350.49,1460.81C1348.98,1457.76 1348.22,1454.02 1348.22,1449.6L1348.22,1440.44L1364.15,1440.44L1364.15,1448.81C1364.15,1451.34 1364.85,1453.42 1366.25,1455.05C1367.66,1456.68 1369.56,1457.5 1371.95,1457.5C1374.35,1457.5 1376.25,1456.68 1377.65,1455.05C1379.06,1453.42 1379.76,1451.23 1379.76,1448.49L1379.76,1432.38C1379.76,1427.96 1378.92,1425.06 1377.26,1423.69C1376.32,1422.85 1375.05,1422.33 1373.43,1422.12C1371.82,1421.9 1369.71,1421.8 1367.11,1421.8L1367.11,1407.58ZM749.814,1408.13C749.814,1410.55 750.594,1412.5 752.156,1413.97C753.717,1415.45 755.538,1416.18 757.62,1416.18C759.701,1416.18 761.523,1415.45 763.084,1413.97C764.645,1412.5 765.426,1410.55 765.426,1408.13L765.426,1387.28C765.426,1384.86 764.645,1382.91 763.084,1381.43C761.523,1379.96 759.701,1379.22 757.62,1379.22C755.538,1379.22 753.717,1379.96 752.156,1381.43C750.594,1382.91 749.814,1384.86 749.814,1387.28L749.814,1408.13ZM1360.36,1119.93L1353.38,1100.77L1319.15,1142.21L1322.16,1152.5L1360.36,1119.93ZM762.304,1100.21L756.43,1120.5L793.792,1152.32L797.319,1142.56L762.304,1100.21ZM1236.33,891.769L1224.88,881.36L1206.92,947.577L1212.43,953.829L1236.33,891.769ZM891.04,880.38L880.229,892.748L903.607,953.416L909.415,948.091L891.04,880.38ZM1023.44,903.528L1023.44,808.124L1007.52,819.97L1007.52,802.911L1023.44,791.064L1039.36,791.064L1039.36,903.528L1023.44,903.528ZM1062.62,903.528L1062.62,888.364L1091.35,833.554C1092.81,830.816 1093.64,828.421 1093.85,826.367C1094.06,824.314 1094.16,821.76 1094.16,818.706C1094.16,817.338 1094.13,815.89 1094.08,814.363C1094.03,812.836 1093.75,811.493 1093.22,810.335C1092.7,809.177 1091.92,808.202 1090.88,807.413C1089.84,806.623 1088.33,806.228 1086.36,806.228C1083.96,806.228 1082.06,806.913 1080.66,808.281C1079.25,809.65 1078.55,811.651 1078.55,814.284L1078.55,823.445L1062.62,823.445L1062.62,814.6C1062.62,811.23 1063.25,808.071 1064.5,805.122C1065.75,802.174 1067.46,799.594 1069.65,797.383C1071.73,795.171 1074.23,793.407 1077.14,792.091C1080.06,790.775 1083.18,790.117 1086.51,790.117C1090.67,790.117 1094.24,790.88 1097.2,792.407C1100.17,793.934 1102.64,796.014 1104.62,798.646C1106.49,801.279 1107.87,804.28 1108.76,807.65C1109.64,811.019 1110.09,814.6 1110.09,818.391C1110.09,821.128 1110.03,823.419 1109.93,825.262C1109.83,827.104 1109.62,828.868 1109.31,830.553C1108.99,832.238 1108.47,833.923 1107.74,835.608C1107.02,837.292 1106.03,839.346 1104.78,841.768L1081.36,887.417L1110.09,887.417L1110.09,903.528L1062.62,903.528Z" style="fill:rgb(249,242,212);fill-rule:nonzero;"/></g><path d="M1086.4,1421.74L1298.44,1412.55L1293.47,1459.62L1059.71,1439.46L1053.59,1444.83L955.634,1727.47L942.211,1711.82L1034.77,1432.39L1050.22,1412.14L1086.4,1421.74Z" style="fill-opacity:0.15;"/><g transform="matrix(0.577788,0,0,1.02403,184.525,6.9314)"><path d="M1530.88,1319.43C1557.53,1319.43 1579.16,1341.07 1579.16,1367.71C1579.16,1394.36 1557.53,1416 1530.88,1416C1526.62,1416 1509.99,1416.8 1506.06,1415.76C1485.37,1410.31 1482.59,1390.11 1482.59,1367.71C1482.59,1347.14 1488.64,1327.28 1506.78,1320.33C1512.14,1318.27 1524.8,1319.43 1530.88,1319.43Z" style="fill:rgb(31,47,90);"/></g><g transform="matrix(0.577788,0,0,1.02403,172.058,6.9314)"><circle cx="1530.88" cy="1367.71" r="48.284" style="fill:rgb(45,69,132);"/></g><path d="M1028.81,1416.73L914.287,1718.05L933.766,1730.44L1044.4,1429.5L1028.81,1416.73Z" style="fill:rgb(45,69,132);"/><path d="M933.687,1729.75L940.635,1728.66L1047.65,1435.21L1040.49,1433.69L933.687,1729.75Z" style="fill:rgb(31,47,90);"/><g transform="matrix(0.327398,0,0,0.580257,555.373,613.885)"><path d="M1530.88,1319.43C1557.53,1319.43 1579.16,1341.07 1579.16,1367.71C1579.16,1394.36 1557.53,1416 1530.88,1416C1526.58,1416 1454.5,1416.24 1454.5,1416.24C1454.5,1416.24 1482.59,1390.07 1482.59,1367.71C1482.59,1353.04 1453.16,1320.07 1453.16,1320.07C1453.16,1320.07 1518.9,1319.43 1530.88,1319.43Z" style="fill:rgb(98,160,219);"/></g><g transform="matrix(0.327398,0,0,0.580257,530.02,613.885)"><circle cx="1530.88" cy="1367.71" r="48.284" style="fill:rgb(142,187,229);"/></g><g transform="matrix(1,0,0,1,8.48128,0)"><path d="M1056.55,1423.7C1056.55,1423.7 1060.61,1410.19 1056.37,1392.05L1291.45,1390.76L1289.95,1424.11L1056.55,1423.7Z" style="fill:rgb(31,47,90);"/></g><path d="M1056.55,1423.7C1056.55,1423.7 1060.61,1410.19 1056.37,1392.05L1291.45,1390.76L1289.95,1424.11L1056.55,1423.7Z" style="fill:rgb(45,69,132);"/><path d="M1456.75,1288.32C1460.68,1327.95 1462.73,1368.7 1462.73,1410.29C1462.73,1427.44 1462.38,1444.44 1461.7,1461.29C1403.11,1507.16 1344.71,1553.25 1287.17,1600.36C1134.99,1724.94 986.643,1851.99 839.803,1981.29C817.974,1953.84 797.784,1922.55 779.552,1887.99C1005.07,1688.27 1228.62,1485.38 1456.75,1288.32ZM1216.25,761.702C1301.9,823.36 1372.62,936.793 1416.02,1080.06C1175.49,1280.38 937.565,1484.22 707.315,1695.34C685.344,1608.25 673.127,1511.78 673.127,1410.29C673.127,1367.54 675.294,1325.68 679.449,1285.01C722.018,1245.18 764.26,1204.99 805.985,1164.3C895.556,1076.95 983.929,988.358 1073.36,900.867C1120.92,854.348 1168.51,807.939 1216.25,761.702Z" style="fill:url(#_Linear2);"/></g></g><g transform="matrix(0.605347,-0.0642922,0.12267,0.429568,-218.821,286.865)"><g transform="matrix(1,0,0,1,-31.9335,30.6415)"><path d="M3381.04,1607.21L2498.27,1596.63L2533.23,1641.38L3381.04,2230.83L3381.04,1607.21ZM3260.21,1707.94L2834.48,1707.94L3260.21,1998.38L3260.21,1707.94Z" style="fill-opacity:0.25;"/></g><g transform="matrix(1,0,0,1,-0.299901,18.7906)"><path d="M3381.04,1607.21L2467.93,1589.36L2466.94,1607.21L3381.04,2230.83L3381.04,1607.21ZM3260.21,1707.94L2834.48,1707.94L3260.21,1998.38L3260.21,1707.94Z" style="fill:rgb(192,23,90);"/></g><path d="M3381.04,1607.21L2466.94,1607.21L3381.04,2230.83L3381.04,1607.21ZM3260.21,1707.94L2834.48,1707.94L3260.21,1998.38L3260.21,1707.94Z" style="fill:rgb(236,97,152);"/><path d="M3381.04,1630.02L3381.04,1607.21L2466.94,1607.21L2500.38,1630.02L3381.04,1630.02Z" style="fill:rgb(255,211,229);"/><g transform="matrix(1.05446,-9.1175e-17,0,1.0871,-36.3339,-776.924)"><path d="M2465.46,2197.73L2463.6,2197.73L2463.6,2210.03L2465.46,2210.03L2465.46,2197.73ZM2788.88,2197.73L2787.03,2197.73L2787.03,2210.03L2788.88,2210.03L2788.88,2197.73ZM3203.68,2197.73L3201.82,2197.73L3201.82,2210.03L3203.68,2210.03L3203.68,2197.73ZM3066.73,2197.73L3064.87,2197.73L3064.87,2210.03L3066.73,2210.03L3066.73,2197.73ZM2742.76,2197.73L2740.9,2197.73L2740.9,2210.03L2742.76,2210.03L2742.76,2197.73ZM3157.56,2197.73L3155.7,2197.73L3155.7,2210.03L3157.56,2210.03L3157.56,2197.73ZM3020.61,2197.73L3018.75,2197.73L3018.75,2210.03L3020.61,2210.03L3020.61,2197.73ZM2696.64,2197.73L2694.78,2197.73L2694.78,2210.03L2696.64,2210.03L2696.64,2197.73ZM2974.48,2197.73L2972.63,2197.73L2972.63,2210.03L2974.48,2210.03L2974.48,2197.73ZM2650.52,2197.73L2648.66,2197.73L2648.66,2210.03L2650.52,2210.03L2650.52,2197.73ZM2928.36,2197.73L2926.51,2197.73L2926.51,2210.03L2928.36,2210.03L2928.36,2197.73ZM2604.4,2197.73L2602.54,2197.73L2602.54,2210.03L2604.4,2210.03L2604.4,2197.73ZM2882.24,2197.73L2880.38,2197.73L2880.38,2210.03L2882.24,2210.03L2882.24,2197.73ZM2558.27,2197.73L2556.42,2197.73L2556.42,2210.03L2558.27,2210.03L2558.27,2197.73ZM2836.12,2197.73L2834.26,2197.73L2834.26,2210.03L2836.12,2210.03L2836.12,2197.73ZM2512.15,2197.73L2510.3,2197.73L2510.3,2210.03L2512.15,2210.03L2512.15,2197.73ZM3112.85,2197.73L3110.99,2197.73L3110.99,2210.03L3112.85,2210.03L3112.85,2197.73ZM3212.44,2197.73L3210.59,2197.73L3210.59,2205.13L3212.44,2205.13L3212.44,2197.73ZM2484.14,2197.73L2482.28,2197.73L2482.28,2205.13L2484.14,2205.13L2484.14,2197.73ZM2808.1,2197.73L2806.25,2197.73L2806.25,2205.13L2808.1,2205.13L2808.1,2197.73ZM2530.26,2197.73L2528.4,2197.73L2528.4,2205.13L2530.26,2205.13L2530.26,2197.73ZM2854.22,2197.73L2852.37,2197.73L2852.37,2205.13L2854.22,2205.13L2854.22,2197.73ZM2576.38,2197.73L2574.52,2197.73L2574.52,2205.13L2576.38,2205.13L2576.38,2197.73ZM2900.35,2197.73L2898.49,2197.73L2898.49,2205.13L2900.35,2205.13L2900.35,2197.73ZM2622.5,2197.73L2620.64,2197.73L2620.64,2205.13L2622.5,2205.13L2622.5,2197.73ZM2946.47,2197.73L2944.61,2197.73L2944.61,2205.13L2946.47,2205.13L2946.47,2197.73ZM2668.62,2197.73L2666.76,2197.73L2666.76,2205.13L2668.62,2205.13L2668.62,2197.73ZM2992.59,2197.73L2990.73,2197.73L2990.73,2205.13L2992.59,2205.13L2992.59,2197.73ZM3129.54,2197.73L3127.68,2197.73L3127.68,2205.13L3129.54,2205.13L3129.54,2197.73ZM2714.74,2197.73L2712.89,2197.73L2712.89,2205.13L2714.74,2205.13L2714.74,2197.73ZM3038.71,2197.73L3036.85,2197.73L3036.85,2205.13L3038.71,2205.13L3038.71,2197.73ZM3175.66,2197.73L3173.8,2197.73L3173.8,2205.13L3175.66,2205.13L3175.66,2197.73ZM2760.87,2197.73L2759.01,2197.73L2759.01,2205.13L2760.87,2205.13L2760.87,2197.73ZM3084.83,2197.73L3082.97,2197.73L3082.97,2205.13L3084.83,2205.13L3084.83,2197.73ZM3221.78,2197.73L3219.93,2197.73L3219.93,2205.13L3221.78,2205.13L3221.78,2197.73ZM2493.47,2197.73L2491.62,2197.73L2491.62,2205.13L2493.47,2205.13L2493.47,2197.73ZM2817.44,2197.73L2815.59,2197.73L2815.59,2205.13L2817.44,2205.13L2817.44,2197.73ZM2539.6,2197.73L2537.74,2197.73L2537.74,2205.13L2539.6,2205.13L2539.6,2197.73ZM2863.56,2197.73L2861.71,2197.73L2861.71,2205.13L2863.56,2205.13L2863.56,2197.73ZM2585.72,2197.73L2583.86,2197.73L2583.86,2205.13L2585.72,2205.13L2585.72,2197.73ZM2909.68,2197.73L2907.83,2197.73L2907.83,2205.13L2909.68,2205.13L2909.68,2197.73ZM3075.49,2197.73L3073.64,2197.73L3073.64,2205.13L3075.49,2205.13L3075.49,2197.73ZM2955.81,2197.73L2953.95,2197.73L2953.95,2205.13L2955.81,2205.13L2955.81,2197.73ZM2677.96,2197.73L2676.1,2197.73L2676.1,2205.13L2677.96,2205.13L2677.96,2197.73ZM3001.93,2197.73L3000.07,2197.73L3000.07,2205.13L3001.93,2205.13L3001.93,2197.73ZM3138.88,2197.73L3137.02,2197.73L3137.02,2205.13L3138.88,2205.13L3138.88,2197.73ZM2724.08,2197.73L2722.22,2197.73L2722.22,2205.13L2724.08,2205.13L2724.08,2197.73ZM3048.05,2197.73L3046.19,2197.73L3046.19,2205.13L3048.05,2205.13L3048.05,2197.73ZM3185,2197.73L3183.14,2197.73L3183.14,2205.13L3185,2205.13L3185,2197.73ZM2770.2,2197.73L2768.35,2197.73L2768.35,2205.13L2770.2,2205.13L2770.2,2197.73ZM3094.17,2197.73L3092.31,2197.73L3092.31,2205.13L3094.17,2205.13L3094.17,2197.73ZM2502.81,2197.73L2500.96,2197.73L2500.96,2205.13L2502.81,2205.13L2502.81,2197.73ZM2826.78,2197.73L2824.92,2197.73L2824.92,2205.13L2826.78,2205.13L2826.78,2197.73ZM2548.93,2197.73L2547.08,2197.73L2547.08,2205.13L2548.93,2205.13L2548.93,2197.73ZM2872.9,2197.73L2871.05,2197.73L2871.05,2205.13L2872.9,2205.13L2872.9,2197.73ZM2595.06,2197.73L2593.2,2197.73L2593.2,2205.13L2595.06,2205.13L2595.06,2197.73ZM2919.02,2197.73L2917.17,2197.73L2917.17,2205.13L2919.02,2205.13L2919.02,2197.73ZM2641.18,2197.73L2639.32,2197.73L2639.32,2205.13L2641.18,2205.13L2641.18,2197.73ZM2965.14,2197.73L2963.29,2197.73L2963.29,2205.13L2965.14,2205.13L2965.14,2197.73ZM2687.3,2197.73L2685.44,2197.73L2685.44,2205.13L2687.3,2205.13L2687.3,2197.73ZM3011.27,2197.73L3009.41,2197.73L3009.41,2205.13L3011.27,2205.13L3011.27,2197.73ZM3148.22,2197.73L3146.36,2197.73L3146.36,2205.13L3148.22,2205.13L3148.22,2197.73ZM2733.42,2197.73L2731.56,2197.73L2731.56,2205.13L2733.42,2205.13L2733.42,2197.73ZM3057.39,2197.73L3055.53,2197.73L3055.53,2205.13L3057.39,2205.13L3057.39,2197.73ZM3194.34,2197.73L3192.48,2197.73L3192.48,2205.13L3194.34,2205.13L3194.34,2197.73ZM2779.54,2197.73L2777.69,2197.73L2777.69,2205.13L2779.54,2205.13L2779.54,2197.73ZM3103.51,2197.73L3101.65,2197.73L3101.65,2205.13L3103.51,2205.13L3103.51,2197.73ZM2751.53,2197.73L2749.67,2197.73L2749.67,2205.13L2751.53,2205.13L2751.53,2197.73ZM3166.32,2197.73L3164.47,2197.73L3164.47,2205.13L3166.32,2205.13L3166.32,2197.73ZM3029.37,2197.73L3027.51,2197.73L3027.51,2205.13L3029.37,2205.13L3029.37,2197.73ZM2705.4,2197.73L2703.55,2197.73L2703.55,2205.13L2705.4,2205.13L2705.4,2197.73ZM3120.2,2197.73L3118.34,2197.73L3118.34,2205.13L3120.2,2205.13L3120.2,2197.73ZM2983.25,2197.73L2981.39,2197.73L2981.39,2205.13L2983.25,2205.13L2983.25,2197.73ZM2659.28,2197.73L2657.43,2197.73L2657.43,2205.13L2659.28,2205.13L2659.28,2197.73ZM2937.13,2197.73L2935.27,2197.73L2935.27,2205.13L2937.13,2205.13L2937.13,2197.73ZM2613.16,2197.73L2611.3,2197.73L2611.3,2205.13L2613.16,2205.13L2613.16,2197.73ZM2891.01,2197.73L2889.15,2197.73L2889.15,2205.13L2891.01,2205.13L2891.01,2197.73ZM2567.04,2197.73L2565.18,2197.73L2565.18,2205.13L2567.04,2205.13L2567.04,2197.73ZM2844.89,2197.73L2843.03,2197.73L2843.03,2205.13L2844.89,2205.13L2844.89,2197.73ZM2520.92,2197.73L2519.06,2197.73L2519.06,2205.13L2520.92,2205.13L2520.92,2197.73ZM2798.76,2197.73L2796.91,2197.73L2796.91,2205.13L2798.76,2205.13L2798.76,2197.73ZM2474.8,2197.73L2472.94,2197.73L2472.94,2205.13L2474.8,2205.13L2474.8,2197.73ZM2631.84,2197.73L2629.98,2197.73L2629.98,2205.13L2631.84,2205.13L2631.84,2197.73Z" style="fill:rgb(236,97,152);"/></g></g><g transform="matrix(1,0,0,1,58.0027,78.331)"><path d="M165.544,814.634L1957.73,646.467L1961.65,627.86L150.67,793.042L165.544,814.634Z" style="fill:white;"/></g><g transform="matrix(1,0,0,1,-1750.6,-1207.17)"><path d="M2354.94,2131.75L2189.58,2290.33L1934.01,2342.25L2034.99,2160.1L2354.94,2131.75Z" style="fill-opacity:0.21;"/><path d="M2034.52,2160.26L2204.84,1839.8L2256.08,2211.48L2034.52,2160.26Z" style="fill:rgb(236,97,152);"/><path d="M2034.52,2160.26L2034.52,2160.27L2240.1,2095.55L2256.08,2211.48L2034.52,2160.26Z" style="fill-opacity:0.13;"/><path d="M2204.84,1839.8L2256.08,2211.48L2354.94,2131.75L2204.84,1839.8Z" style="fill:rgb(242,156,190);"/><path d="M2255.53,2207.52L2263.81,2184.67L2251.41,2177.62L2245.41,2134.12L2299.72,2024.34L2312.72,2049.62L2263.81,2184.67L2278.76,2193.18L2256.08,2211.48L2255.53,2207.52ZM2247.97,1923.68L2279.22,1984.47L2236.9,2072.37L2221.44,1960.18C2230.94,1947.07 2239.99,1934.63 2247.97,1923.68Z" style="fill:url(#_Linear3);"/></g><g transform="matrix(0.609893,0,0,0.609893,-925.304,-251.05)"><path d="M2354.94,2131.75L2189.58,2290.33L1934.01,2342.25L2034.99,2160.1L2354.94,2131.75Z" style="fill-opacity:0.21;"/><path d="M2034.52,2160.26L2204.84,1839.8L2256.08,2211.48L2034.52,2160.26Z" style="fill:rgb(247,218,97);"/><path d="M2231.97,2036.59L2116.55,2005.92L2204.84,1839.8L2231.97,2036.59Z" style="fill-opacity:0.08;"/><path d="M2213.61,1903.41L2162.76,1918.98L2204.84,1839.8L2213.61,1903.41Z" style="fill:white;fill-opacity:0.45;"/><path d="M2034.52,2160.26L2034.52,2160.27L2240.1,2095.55L2256.08,2211.48L2034.52,2160.26Z" style="fill-opacity:0.13;"/><path d="M2204.84,1839.8L2256.08,2211.48L2354.94,2131.75L2204.84,1839.8Z" style="fill:rgb(255,237,160);"/><path d="M2255.53,2207.52L2263.81,2184.67L2251.41,2177.62L2245.41,2134.12L2299.72,2024.34L2312.72,2049.62L2263.81,2184.67L2278.76,2193.18L2256.08,2211.48L2255.53,2207.52ZM2247.97,1923.68L2279.22,1984.47L2236.9,2072.37L2221.44,1960.18C2230.94,1947.07 2239.99,1934.63 2247.97,1923.68Z" style="fill:url(#_Linear4);"/></g><g transform="matrix(0.471023,-0.399633,0.976571,0.0394365,-2954.99,2189.6)"><g transform="matrix(1,0,0,1,-14.8973,7.71258)"><path d="M3229.12,2120.88L2498.47,2060.44L2451.76,2215.71L3229.12,2215.71L3243.14,2208.35L3229.12,2120.88Z" style="fill:rgb(36,91,83);"/></g><path d="M3229.12,2120.88L2498.47,2060.44L2451.76,2215.71L3229.12,2215.71L3229.12,2120.88Z" style="fill:rgb(63,160,146);"/><g transform="matrix(1,0,0,0.264258,0,1630.19)"><rect x="2451.76" y="2120.88" width="777.353" height="94.829" style="fill:rgb(55,140,128);"/></g><g transform="matrix(1,0,0,0.2202,0,1727.81)"><rect x="2451.76" y="2120.88" width="777.353" height="94.829" style="fill:rgb(75,184,168);"/></g><g transform="matrix(1,0,0,1,-1.53463,0)"><path d="M2465.46,2197.73L2463.6,2197.73L2463.6,2210.03L2465.46,2210.03L2465.46,2197.73ZM2788.88,2197.73L2787.03,2197.73L2787.03,2210.03L2788.88,2210.03L2788.88,2197.73ZM3203.68,2197.73L3201.82,2197.73L3201.82,2210.03L3203.68,2210.03L3203.68,2197.73ZM3066.73,2197.73L3064.87,2197.73L3064.87,2210.03L3066.73,2210.03L3066.73,2197.73ZM2742.76,2197.73L2740.9,2197.73L2740.9,2210.03L2742.76,2210.03L2742.76,2197.73ZM3157.56,2197.73L3155.7,2197.73L3155.7,2210.03L3157.56,2210.03L3157.56,2197.73ZM3020.61,2197.73L3018.75,2197.73L3018.75,2210.03L3020.61,2210.03L3020.61,2197.73ZM2696.64,2197.73L2694.78,2197.73L2694.78,2210.03L2696.64,2210.03L2696.64,2197.73ZM2974.48,2197.73L2972.63,2197.73L2972.63,2210.03L2974.48,2210.03L2974.48,2197.73ZM2650.52,2197.73L2648.66,2197.73L2648.66,2210.03L2650.52,2210.03L2650.52,2197.73ZM2928.36,2197.73L2926.51,2197.73L2926.51,2210.03L2928.36,2210.03L2928.36,2197.73ZM2604.4,2197.73L2602.54,2197.73L2602.54,2210.03L2604.4,2210.03L2604.4,2197.73ZM2882.24,2197.73L2880.38,2197.73L2880.38,2210.03L2882.24,2210.03L2882.24,2197.73ZM2558.27,2197.73L2556.42,2197.73L2556.42,2210.03L2558.27,2210.03L2558.27,2197.73ZM2836.12,2197.73L2834.26,2197.73L2834.26,2210.03L2836.12,2210.03L2836.12,2197.73ZM2512.15,2197.73L2510.3,2197.73L2510.3,2210.03L2512.15,2210.03L2512.15,2197.73ZM3112.85,2197.73L3110.99,2197.73L3110.99,2210.03L3112.85,2210.03L3112.85,2197.73ZM3212.44,2197.73L3210.59,2197.73L3210.59,2205.13L3212.44,2205.13L3212.44,2197.73ZM2484.14,2197.73L2482.28,2197.73L2482.28,2205.13L2484.14,2205.13L2484.14,2197.73ZM2808.1,2197.73L2806.25,2197.73L2806.25,2205.13L2808.1,2205.13L2808.1,2197.73ZM2530.26,2197.73L2528.4,2197.73L2528.4,2205.13L2530.26,2205.13L2530.26,2197.73ZM2854.22,2197.73L2852.37,2197.73L2852.37,2205.13L2854.22,2205.13L2854.22,2197.73ZM2576.38,2197.73L2574.52,2197.73L2574.52,2205.13L2576.38,2205.13L2576.38,2197.73ZM2900.35,2197.73L2898.49,2197.73L2898.49,2205.13L2900.35,2205.13L2900.35,2197.73ZM2622.5,2197.73L2620.64,2197.73L2620.64,2205.13L2622.5,2205.13L2622.5,2197.73ZM2946.47,2197.73L2944.61,2197.73L2944.61,2205.13L2946.47,2205.13L2946.47,2197.73ZM2668.62,2197.73L2666.76,2197.73L2666.76,2205.13L2668.62,2205.13L2668.62,2197.73ZM2992.59,2197.73L2990.73,2197.73L2990.73,2205.13L2992.59,2205.13L2992.59,2197.73ZM3129.54,2197.73L3127.68,2197.73L3127.68,2205.13L3129.54,2205.13L3129.54,2197.73ZM2714.74,2197.73L2712.89,2197.73L2712.89,2205.13L2714.74,2205.13L2714.74,2197.73ZM3038.71,2197.73L3036.85,2197.73L3036.85,2205.13L3038.71,2205.13L3038.71,2197.73ZM3175.66,2197.73L3173.8,2197.73L3173.8,2205.13L3175.66,2205.13L3175.66,2197.73ZM2760.87,2197.73L2759.01,2197.73L2759.01,2205.13L2760.87,2205.13L2760.87,2197.73ZM3084.83,2197.73L3082.97,2197.73L3082.97,2205.13L3084.83,2205.13L3084.83,2197.73ZM3221.78,2197.73L3219.93,2197.73L3219.93,2205.13L3221.78,2205.13L3221.78,2197.73ZM2493.47,2197.73L2491.62,2197.73L2491.62,2205.13L2493.47,2205.13L2493.47,2197.73ZM2817.44,2197.73L2815.59,2197.73L2815.59,2205.13L2817.44,2205.13L2817.44,2197.73ZM2539.6,2197.73L2537.74,2197.73L2537.74,2205.13L2539.6,2205.13L2539.6,2197.73ZM2863.56,2197.73L2861.71,2197.73L2861.71,2205.13L2863.56,2205.13L2863.56,2197.73ZM2585.72,2197.73L2583.86,2197.73L2583.86,2205.13L2585.72,2205.13L2585.72,2197.73ZM2909.68,2197.73L2907.83,2197.73L2907.83,2205.13L2909.68,2205.13L2909.68,2197.73ZM3075.49,2197.73L3073.64,2197.73L3073.64,2205.13L3075.49,2205.13L3075.49,2197.73ZM2955.81,2197.73L2953.95,2197.73L2953.95,2205.13L2955.81,2205.13L2955.81,2197.73ZM2677.96,2197.73L2676.1,2197.73L2676.1,2205.13L2677.96,2205.13L2677.96,2197.73ZM3001.93,2197.73L3000.07,2197.73L3000.07,2205.13L3001.93,2205.13L3001.93,2197.73ZM3138.88,2197.73L3137.02,2197.73L3137.02,2205.13L3138.88,2205.13L3138.88,2197.73ZM2724.08,2197.73L2722.22,2197.73L2722.22,2205.13L2724.08,2205.13L2724.08,2197.73ZM3048.05,2197.73L3046.19,2197.73L3046.19,2205.13L3048.05,2205.13L3048.05,2197.73ZM3185,2197.73L3183.14,2197.73L3183.14,2205.13L3185,2205.13L3185,2197.73ZM2770.2,2197.73L2768.35,2197.73L2768.35,2205.13L2770.2,2205.13L2770.2,2197.73ZM3094.17,2197.73L3092.31,2197.73L3092.31,2205.13L3094.17,2205.13L3094.17,2197.73ZM2502.81,2197.73L2500.96,2197.73L2500.96,2205.13L2502.81,2205.13L2502.81,2197.73ZM2826.78,2197.73L2824.92,2197.73L2824.92,2205.13L2826.78,2205.13L2826.78,2197.73ZM2548.93,2197.73L2547.08,2197.73L2547.08,2205.13L2548.93,2205.13L2548.93,2197.73ZM2872.9,2197.73L2871.05,2197.73L2871.05,2205.13L2872.9,2205.13L2872.9,2197.73ZM2595.06,2197.73L2593.2,2197.73L2593.2,2205.13L2595.06,2205.13L2595.06,2197.73ZM2919.02,2197.73L2917.17,2197.73L2917.17,2205.13L2919.02,2205.13L2919.02,2197.73ZM2641.18,2197.73L2639.32,2197.73L2639.32,2205.13L2641.18,2205.13L2641.18,2197.73ZM2965.14,2197.73L2963.29,2197.73L2963.29,2205.13L2965.14,2205.13L2965.14,2197.73ZM2687.3,2197.73L2685.44,2197.73L2685.44,2205.13L2687.3,2205.13L2687.3,2197.73ZM3011.27,2197.73L3009.41,2197.73L3009.41,2205.13L3011.27,2205.13L3011.27,2197.73ZM3148.22,2197.73L3146.36,2197.73L3146.36,2205.13L3148.22,2205.13L3148.22,2197.73ZM2733.42,2197.73L2731.56,2197.73L2731.56,2205.13L2733.42,2205.13L2733.42,2197.73ZM3057.39,2197.73L3055.53,2197.73L3055.53,2205.13L3057.39,2205.13L3057.39,2197.73ZM3194.34,2197.73L3192.48,2197.73L3192.48,2205.13L3194.34,2205.13L3194.34,2197.73ZM2779.54,2197.73L2777.69,2197.73L2777.69,2205.13L2779.54,2205.13L2779.54,2197.73ZM3103.51,2197.73L3101.65,2197.73L3101.65,2205.13L3103.51,2205.13L3103.51,2197.73ZM2751.53,2197.73L2749.67,2197.73L2749.67,2205.13L2751.53,2205.13L2751.53,2197.73ZM3166.32,2197.73L3164.47,2197.73L3164.47,2205.13L3166.32,2205.13L3166.32,2197.73ZM3029.37,2197.73L3027.51,2197.73L3027.51,2205.13L3029.37,2205.13L3029.37,2197.73ZM2705.4,2197.73L2703.55,2197.73L2703.55,2205.13L2705.4,2205.13L2705.4,2197.73ZM3120.2,2197.73L3118.34,2197.73L3118.34,2205.13L3120.2,2205.13L3120.2,2197.73ZM2983.25,2197.73L2981.39,2197.73L2981.39,2205.13L2983.25,2205.13L2983.25,2197.73ZM2659.28,2197.73L2657.43,2197.73L2657.43,2205.13L2659.28,2205.13L2659.28,2197.73ZM2937.13,2197.73L2935.27,2197.73L2935.27,2205.13L2937.13,2205.13L2937.13,2197.73ZM2613.16,2197.73L2611.3,2197.73L2611.3,2205.13L2613.16,2205.13L2613.16,2197.73ZM2891.01,2197.73L2889.15,2197.73L2889.15,2205.13L2891.01,2205.13L2891.01,2197.73ZM2567.04,2197.73L2565.18,2197.73L2565.18,2205.13L2567.04,2205.13L2567.04,2197.73ZM2844.89,2197.73L2843.03,2197.73L2843.03,2205.13L2844.89,2205.13L2844.89,2197.73ZM2520.92,2197.73L2519.06,2197.73L2519.06,2205.13L2520.92,2205.13L2520.92,2197.73ZM2798.76,2197.73L2796.91,2197.73L2796.91,2205.13L2798.76,2205.13L2798.76,2197.73ZM2474.8,2197.73L2472.94,2197.73L2472.94,2205.13L2474.8,2205.13L2474.8,2197.73ZM2631.84,2197.73L2629.98,2197.73L2629.98,2205.13L2631.84,2205.13L2631.84,2197.73Z" style="fill:rgb(175,231,223);"/></g></g><g transform="matrix(1,0,0,1,0.0491239,-5.88057)"><g transform="matrix(-1.10365,0.0941312,0.0941312,1.10365,2693.92,-1076.97)"><g transform="matrix(1,0,0,1,-11.5637,0)"><path d="M1564.92,1658.83L1776.99,1658.83C1776.99,1658.83 1781.34,1655.22 1785.76,1651.56C1791.02,1647.2 1792.27,1639.62 1788.69,1633.8C1776.06,1613.28 1748.69,1568.8 1748.69,1568.8L1564.77,1571.57C1564.77,1571.57 1588.57,1612.54 1599.07,1630.61C1600.31,1632.74 1600.58,1635.3 1599.81,1637.64C1599.04,1639.99 1597.3,1641.89 1595.04,1642.87C1584.41,1647.49 1568.05,1654.6 1568.05,1654.6L1564.92,1658.83Z" style="fill:rgb(64,103,177);"/></g><g transform="matrix(1,0,0,1,-201.253,0)"><path d="M1769.71,1597.82L1977.22,1637.78C1977.06,1633.78 1975.9,1629.77 1973.67,1626.15C1960,1603.93 1938.38,1568.8 1938.38,1568.8L1754.46,1571.57L1769.71,1597.82Z" style="fill:rgb(51,82,141);"/></g><g transform="matrix(1,0,0,1,-201.253,0)"><path d="M1932.25,1572.42L1969.52,1635.49C1969.67,1635.75 1969.84,1636 1970.03,1636.23C1970.03,1636.23 1972.07,1638.9 1973.08,1642.4C1973.58,1644.12 1973.92,1646.12 1973.06,1648C1972.01,1650.3 1969.44,1652.07 1965.04,1653.55C1965.03,1653.55 1761.06,1653.63 1761.06,1653.63C1757.13,1653.63 1753.94,1656.82 1753.94,1660.76C1753.94,1664.69 1757.13,1667.88 1761.07,1667.88L1966.15,1667.8C1966.86,1667.8 1967.57,1667.7 1968.25,1667.49C1978.67,1664.28 1983.67,1659.06 1986.02,1653.93C1988.4,1648.72 1988.15,1643.19 1986.77,1638.43C1985.29,1633.32 1982.54,1629.23 1981.61,1627.93C1981.61,1627.94 1944.52,1565.17 1944.52,1565.17C1942.52,1561.78 1938.14,1560.66 1934.76,1562.66C1931.37,1564.66 1930.25,1569.04 1932.25,1572.42Z" style="fill:rgb(45,69,132);"/></g><g transform="matrix(1.03989,0,-0.125,1,115.084,3.04866)"><g transform="matrix(0.428201,0,6.07128e-18,0.440071,567.286,881.916)"><path d="M3395.32,576.444C3395.32,553.732 3351.63,511.716 3328.92,511.716L1808.82,536.438C1786.11,536.438 1757.32,565.11 1757.32,587.822L1753.03,1560.63C1753.03,1583.34 1799.37,1615.1 1822.09,1615.1L3326.76,1624.11C3336.7,1624.11 3350.34,1623.43 3366.13,1615.41C3383.11,1606.8 3393.85,1593.32 3393.85,1580.54L3395.32,576.444Z" style="fill:rgb(45,69,132);"/></g><g transform="matrix(0.428027,-1.22416e-17,1.18801e-17,0.437074,553.693,871.386)"><path d="M3395.32,576.444C3395.32,553.732 3376.88,535.292 3354.17,535.292L1822.09,535.292C1799.37,535.292 1780.93,553.732 1780.93,576.444L1780.93,1573.94C1780.93,1596.66 1799.37,1615.1 1822.09,1615.1L3354.17,1615.1C3376.88,1615.1 3395.32,1596.66 3395.32,1573.94L3395.32,576.444Z" style="fill:rgb(232,246,255);"/></g><g transform="matrix(0.443098,1.22416e-17,5.68596e-20,0.441049,526.989,868.203)"><path d="M3347.66,1449.42L3347.66,1573.94C3347.66,1596.66 3329.76,1615.1 3307.72,1615.1L1820.87,1615.1C1798.83,1615.1 1780.93,1596.66 1780.93,1573.94L1780.93,1449.42L3347.66,1449.42Z" style="fill:rgb(64,103,177);"/></g><g transform="matrix(0.349283,0,0,0.349283,757.739,1006.19)"><g transform="matrix(-0.879081,-1.07656e-16,1.22465e-16,-1,5579.11,3064.58)"><circle cx="2498.44" cy="1535.48" r="50.538" style="fill:rgb(45,69,132);"/></g></g></g><g transform="matrix(0.662035,-6.93889e-18,-4.90767e-07,0.662037,654.773,325.619)"><path d="M1817.26,1182.38L2100.9,1182.38C2116.17,1182.38 2127.03,1194.66 2125.14,1209.79L2116.52,1278.72C2091.58,1299.41 2066.77,1320.27 2042.1,1341.25C1827.07,1524.18 1623.94,1717.73 1397.79,1887.51C1391.64,1892.13 1385.43,1896.88 1379.17,1901.74L980.924,1901.74C965.654,1901.74 954.792,1889.46 956.684,1874.33L961.77,1833.64C1023.71,1785.76 1081.1,1736.98 1104.3,1718.6C1337.36,1533.91 1569.82,1347.41 1817.26,1182.38ZM1639.66,1182.38C1580.39,1216.46 1523.75,1255.19 1465.21,1290.44C1304.72,1387.08 1145.82,1487.37 991.728,1593.97L1010.96,1440.13C1013.82,1437.88 1016.68,1435.64 1019.55,1433.4C1073.82,1391 1129.4,1350.23 1185,1309.62C1226.51,1279.3 1269.3,1250.3 1311.39,1220.75C1329.99,1207.69 1348.76,1194.96 1367.63,1182.38L1639.66,1182.38Z" style="fill:white;fill-opacity:0.16;"/></g><g transform="matrix(0.662035,-6.93889e-18,-4.90767e-07,0.662037,712.448,241.423)"><g transform="matrix(-0.825556,0.00360218,-0.110585,0.826051,3730.09,467.476)"><path d="M3031.56,1161.91C3031.56,1148.97 3021.05,1138.45 3008.1,1138.45L2133.21,1138.45C2120.26,1138.45 2109.75,1148.97 2109.75,1161.91L2109.75,1661.07C2109.75,1674.02 2120.26,1684.53 2133.21,1684.53L3008.1,1684.53C3021.05,1684.53 3031.56,1674.02 3031.56,1661.07L3031.56,1161.91Z" style="fill-opacity:0.24;"/></g><g transform="matrix(-0.825556,0.00360218,-0.110585,0.826051,3717.44,439.365)"><path d="M3031.56,1161.91C3031.56,1148.97 3021.05,1138.45 3008.1,1138.45L2133.21,1138.45C2120.26,1138.45 2109.75,1148.97 2109.75,1161.91L2109.75,1661.07C2109.75,1674.02 2120.26,1684.53 2133.21,1684.53L3008.1,1684.53C3021.05,1684.53 3031.56,1674.02 3031.56,1661.07L3031.56,1161.91Z" style="fill:rgb(68,174,158);"/></g><g transform="matrix(-0.663268,0.00289406,-0.0888465,0.663665,3269.56,670.392)"><path d="M3031.56,1161.91C3031.56,1148.97 3021.05,1138.45 3008.1,1138.45L2133.21,1138.45C2120.26,1138.45 2109.75,1148.97 2109.75,1161.91L2109.75,1661.07C2109.75,1674.02 2120.26,1684.53 2133.21,1684.53L3008.1,1684.53C3021.05,1684.53 3031.56,1674.02 3031.56,1661.07L3031.56,1161.91Z" style="fill:rgb(213,239,235);"/></g><g transform="matrix(-0.825556,0.00360218,-0.110585,0.826051,3860.09,803.088)"><path d="M2532.92,1128.39L2533.98,790.646L3098.25,1131.11L2532.92,1128.39Z" style="fill:rgb(185,228,222);"/></g><g transform="matrix(-0.825556,0.00360218,-0.110585,0.826051,3851.28,795.521)"><rect x="2516.07" y="800.737" width="6.005" height="341.905" style="fill:rgb(10,96,83);"/></g><g transform="matrix(-0.110585,0.826051,1.38715,-0.00605262,340.385,-328.049)"><rect x="2516.07" y="800.737" width="6.005" height="341.905" style="fill:rgb(10,96,83);"/></g><g transform="matrix(-0.825556,0.00360218,-0.110585,0.826051,3851.28,795.521)"><path d="M3061.92,1128.24C3068.43,1132.07 3073.83,1135.25 3077.95,1137.67C3080.24,1139.01 3083.18,1138.25 3084.52,1135.96C3085.87,1133.68 3085.1,1130.73 3082.82,1129.39C3078.7,1126.97 3073.3,1123.8 3066.78,1119.97C3064.5,1118.62 3061.55,1119.39 3060.21,1121.67C3058.87,1123.96 3059.63,1126.9 3061.92,1128.24ZM3020.02,1103.62C3025.65,1106.93 3031.01,1110.08 3036.05,1113.04C3038.34,1114.39 3041.28,1113.62 3042.62,1111.34C3043.97,1109.05 3043.2,1106.11 3040.92,1104.77C3035.87,1101.8 3030.52,1098.65 3024.88,1095.34C3022.6,1094 3019.65,1094.77 3018.31,1097.05C3016.97,1099.33 3017.73,1102.28 3020.02,1103.62ZM2978.12,1079C2983.61,1082.22 2988.96,1085.37 2994.15,1088.42C2996.44,1089.76 2999.38,1089 3000.72,1086.71C3002.07,1084.43 3001.3,1081.49 2999.02,1080.14C2993.83,1077.09 2988.47,1073.95 2982.98,1070.72C2980.7,1069.38 2977.75,1070.14 2976.41,1072.43C2975.07,1074.71 2975.83,1077.65 2978.12,1079ZM2936.22,1054.37C2941.65,1057.57 2947,1060.71 2952.25,1063.8C2954.54,1065.14 2957.48,1064.37 2958.82,1062.09C2960.17,1059.81 2959.4,1056.86 2957.12,1055.52C2951.86,1052.43 2946.51,1049.29 2941.08,1046.1C2938.8,1044.75 2935.85,1045.52 2934.51,1047.8C2933.17,1050.09 2933.93,1053.03 2936.22,1054.37ZM2894.32,1029.75C2899.71,1032.92 2905.06,1036.06 2910.35,1039.17C2912.64,1040.51 2915.58,1039.75 2916.92,1037.47C2918.26,1035.18 2917.5,1032.24 2915.22,1030.9C2909.93,1027.79 2904.58,1024.64 2899.18,1021.47C2896.9,1020.13 2893.95,1020.89 2892.61,1023.18C2891.27,1025.46 2892.03,1028.41 2894.32,1029.75ZM2852.42,1005.12C2857.79,1008.28 2863.14,1011.43 2868.45,1014.55C2870.74,1015.89 2873.68,1015.13 2875.02,1012.84C2876.37,1010.56 2875.6,1007.61 2873.32,1006.27C2868,1003.15 2862.65,1000.01 2857.28,996.848C2855,995.506 2852.05,996.271 2850.71,998.555C2849.37,1000.84 2850.13,1003.78 2852.42,1005.12ZM2810.52,980.501C2815.87,983.646 2821.22,986.789 2826.55,989.925C2828.84,991.267 2831.78,990.503 2833.12,988.219C2834.47,985.935 2833.7,982.991 2831.42,981.649C2826.08,978.513 2820.73,975.37 2815.38,972.225C2813.1,970.883 2810.15,971.647 2808.81,973.931C2807.47,976.215 2808.23,979.159 2810.52,980.501ZM2768.62,955.878C2773.95,959.012 2779.3,962.154 2784.65,965.302C2786.94,966.644 2789.88,965.88 2791.22,963.596C2792.57,961.312 2791.8,958.367 2789.52,957.025C2784.16,953.878 2778.81,950.735 2773.48,947.602C2771.2,946.259 2768.25,947.024 2766.91,949.308C2765.57,951.592 2766.33,954.536 2768.62,955.878ZM2726.72,931.254C2732.03,934.375 2737.38,937.518 2742.75,940.678C2745.04,942.021 2747.98,941.256 2749.32,938.972C2750.66,936.688 2749.9,933.744 2747.62,932.402C2742.24,929.242 2736.89,926.099 2731.58,922.978C2729.3,921.635 2726.35,922.4 2725.01,924.684C2723.67,926.968 2724.43,929.912 2726.72,931.254ZM2684.82,906.631C2690.1,909.735 2695.45,912.878 2700.85,916.054C2703.14,917.397 2706.08,916.632 2707.42,914.348C2708.76,912.064 2708,909.12 2705.72,907.778C2700.31,904.602 2694.96,901.459 2689.68,898.354C2687.4,897.012 2684.45,897.776 2683.11,900.06C2681.77,902.344 2682.53,905.288 2684.82,906.631ZM2642.91,882.007C2648.16,885.088 2653.51,888.232 2658.95,891.431C2661.24,892.773 2664.18,892.008 2665.52,889.724C2666.86,887.44 2666.1,884.496 2663.82,883.154C2658.37,879.955 2653.02,876.811 2647.78,873.73C2645.49,872.388 2642.55,873.152 2641.21,875.436C2639.87,877.72 2640.63,880.664 2642.91,882.007ZM2601.01,857.383C2606.18,860.421 2611.54,863.566 2617.05,866.807C2619.33,868.149 2622.28,867.384 2623.62,865.1C2624.96,862.816 2624.2,859.872 2621.91,858.53C2616.4,855.289 2611.05,852.145 2605.88,849.106C2603.59,847.764 2600.65,848.528 2599.31,850.812C2597.97,853.096 2598.73,856.04 2601.01,857.383ZM2559.11,832.759C2564.09,835.684 2569.45,838.833 2575.15,842.183C2577.43,843.525 2580.38,842.76 2581.72,840.476C2583.06,838.192 2582.3,835.248 2580.01,833.906C2574.31,830.556 2568.96,827.408 2563.98,824.482C2561.69,823.14 2558.75,823.904 2557.41,826.188C2556.07,828.472 2556.83,831.416 2559.11,832.759ZM2517.21,808.135C2517.21,808.135 2522.94,811.501 2533.25,817.559C2535.53,818.901 2538.48,818.137 2539.82,815.853C2541.16,813.569 2540.4,810.625 2538.11,809.282C2527.8,803.225 2522.08,799.858 2522.08,799.858C2519.79,798.516 2516.85,799.281 2515.51,801.565C2514.16,803.849 2514.93,806.793 2517.21,808.135Z" style="fill:rgb(10,96,83);"/></g><g transform="matrix(-0.825556,0.00360218,-0.110585,0.826051,3851.28,795.521)"><path d="M2530.93,1075.55C2530.93,1075.55 2568.57,1088.92 2582.77,1127.45C2583.69,1129.93 2586.45,1131.21 2588.93,1130.29C2591.42,1129.37 2592.7,1126.61 2591.78,1124.13C2576,1081.32 2534.13,1066.5 2534.13,1066.5C2531.64,1065.62 2528.89,1066.93 2528.01,1069.42C2527.12,1071.92 2528.43,1074.67 2530.93,1075.55Z" style="fill:rgb(10,96,83);"/></g><g transform="matrix(-0.825556,0.00360218,-0.110585,0.826051,3851.28,795.521)"><path d="M2986.99,1129.24C2986.99,1129.24 2981.89,1107.89 3000.85,1103.42C3003.42,1102.82 3005.03,1100.23 3004.42,1097.65C3003.81,1095.07 3001.22,1093.47 2998.64,1094.08C2970.96,1100.6 2977.63,1131.35 2977.63,1131.35C2978.21,1133.93 2980.78,1135.56 2983.37,1134.97C2985.95,1134.39 2987.58,1131.82 2986.99,1129.24Z" style="fill:rgb(10,96,83);"/></g><g transform="matrix(-3.08925,0.0134794,-0.413814,3.09111,10357.9,-1599.71)"><path d="M2669.37,1025.51L2669.08,1024.75L2666.63,1024.75L2666.34,1025.53C2666.22,1025.83 2666.13,1026.03 2666.05,1026.14C2665.97,1026.24 2665.84,1026.3 2665.66,1026.3C2665.51,1026.3 2665.37,1026.24 2665.25,1026.13C2665.13,1026.01 2665.07,1025.89 2665.07,1025.74C2665.07,1025.66 2665.09,1025.58 2665.12,1025.49C2665.14,1025.4 2665.19,1025.28 2665.25,1025.12L2666.8,1021.2C2666.84,1021.09 2666.89,1020.95 2666.95,1020.8C2667.01,1020.64 2667.08,1020.51 2667.15,1020.4C2667.22,1020.3 2667.31,1020.21 2667.43,1020.15C2667.54,1020.09 2667.68,1020.05 2667.85,1020.05C2668.02,1020.05 2668.16,1020.09 2668.28,1020.15C2668.39,1020.21 2668.48,1020.3 2668.55,1020.4C2668.62,1020.5 2668.68,1020.61 2668.73,1020.73C2668.78,1020.84 2668.84,1021 2668.91,1021.19L2670.49,1025.09C2670.61,1025.38 2670.67,1025.6 2670.67,1025.74C2670.67,1025.88 2670.62,1026 2670.5,1026.12C2670.38,1026.24 2670.24,1026.3 2670.08,1026.3C2669.98,1026.3 2669.9,1026.28 2669.83,1026.24C2669.76,1026.21 2669.7,1026.16 2669.66,1026.1C2669.61,1026.05 2669.56,1025.95 2669.51,1025.83C2669.45,1025.71 2669.41,1025.6 2669.37,1025.51ZM2666.95,1023.83L2668.75,1023.83L2667.84,1021.34L2666.95,1023.83Z" style="fill:rgb(10,96,83);fill-rule:nonzero;"/><g transform="matrix(1,0,0,1,75.8511,53.889)"><path d="M2674.15,1026.19L2672.3,1026.19C2672.04,1026.19 2671.85,1026.13 2671.73,1026.01C2671.62,1025.89 2671.56,1025.7 2671.56,1025.44L2671.56,1020.91C2671.56,1020.64 2671.62,1020.45 2671.74,1020.33C2671.85,1020.21 2672.04,1020.16 2672.3,1020.16L2674.26,1020.16C2674.55,1020.16 2674.8,1020.17 2675.01,1020.21C2675.22,1020.25 2675.41,1020.31 2675.58,1020.42C2675.72,1020.5 2675.85,1020.61 2675.96,1020.74C2676.07,1020.87 2676.15,1021.01 2676.21,1021.17C2676.26,1021.33 2676.29,1021.5 2676.29,1021.67C2676.29,1022.27 2675.99,1022.72 2675.39,1023C2676.18,1023.25 2676.58,1023.74 2676.58,1024.47C2676.58,1024.81 2676.49,1025.11 2676.32,1025.38C2676.14,1025.65 2675.91,1025.85 2675.62,1025.98C2675.43,1026.06 2675.22,1026.11 2674.98,1026.14C2674.74,1026.18 2674.47,1026.19 2674.15,1026.19ZM2674.06,1023.51L2672.79,1023.51L2672.79,1025.27L2674.1,1025.27C2674.93,1025.27 2675.34,1024.98 2675.34,1024.38C2675.34,1024.08 2675.23,1023.86 2675.02,1023.72C2674.8,1023.58 2674.48,1023.51 2674.06,1023.51ZM2672.79,1021.07L2672.79,1022.63L2673.91,1022.63C2674.21,1022.63 2674.45,1022.61 2674.61,1022.55C2674.78,1022.49 2674.91,1022.38 2674.99,1022.22C2675.06,1022.1 2675.1,1021.98 2675.1,1021.83C2675.1,1021.53 2674.99,1021.33 2674.77,1021.23C2674.55,1021.12 2674.22,1021.07 2673.78,1021.07L2672.79,1021.07Z" style="fill:rgb(10,96,83);fill-rule:nonzero;"/></g><g transform="matrix(1,0,0,1,75.9047,-11.5639)"><path d="M2682.78,1024.29C2682.78,1024.48 2682.73,1024.69 2682.64,1024.91C2682.54,1025.13 2682.39,1025.35 2682.19,1025.57C2681.99,1025.78 2681.73,1025.96 2681.41,1026.09C2681.1,1026.23 2680.73,1026.3 2680.31,1026.3C2679.99,1026.3 2679.7,1026.27 2679.44,1026.2C2679.18,1026.14 2678.94,1026.05 2678.73,1025.92C2678.52,1025.8 2678.32,1025.63 2678.14,1025.42C2677.98,1025.23 2677.85,1025.02 2677.74,1024.78C2677.62,1024.55 2677.54,1024.3 2677.48,1024.03C2677.43,1023.76 2677.4,1023.48 2677.4,1023.18C2677.4,1022.7 2677.47,1022.26 2677.61,1021.88C2677.75,1021.49 2677.95,1021.16 2678.22,1020.89C2678.48,1020.62 2678.79,1020.41 2679.14,1020.27C2679.5,1020.12 2679.87,1020.05 2680.28,1020.05C2680.76,1020.05 2681.2,1020.15 2681.58,1020.35C2681.96,1020.54 2682.25,1020.78 2682.46,1021.07C2682.66,1021.36 2682.76,1021.63 2682.76,1021.88C2682.76,1022.02 2682.71,1022.14 2682.61,1022.25C2682.51,1022.36 2682.39,1022.41 2682.26,1022.41C2682.1,1022.41 2681.98,1022.38 2681.9,1022.3C2681.83,1022.23 2681.74,1022.1 2681.64,1021.92C2681.48,1021.62 2681.3,1021.39 2681.08,1021.25C2680.87,1021.1 2680.6,1021.02 2680.28,1021.02C2679.78,1021.02 2679.38,1021.22 2679.08,1021.6C2678.78,1021.98 2678.64,1022.52 2678.64,1023.22C2678.64,1023.69 2678.7,1024.08 2678.83,1024.39C2678.97,1024.71 2679.15,1024.94 2679.39,1025.09C2679.64,1025.25 2679.92,1025.32 2680.24,1025.32C2680.59,1025.32 2680.89,1025.24 2681.13,1025.06C2681.38,1024.89 2681.56,1024.63 2681.68,1024.29C2681.74,1024.13 2681.8,1024.01 2681.88,1023.9C2681.95,1023.81 2682.08,1023.75 2682.25,1023.75C2682.39,1023.75 2682.52,1023.81 2682.62,1023.91C2682.73,1024.01 2682.78,1024.13 2682.78,1024.29Z" style="fill:rgb(10,96,83);fill-rule:nonzero;"/></g></g><g transform="matrix(-0.825556,0.00360218,-0.110585,0.826051,3860.09,803.088)"><path d="M3099.21,789.416L3132.72,790.237C3132.72,790.237 3132.19,820.182 3132.19,820.182C3132.14,822.831 3134.26,825.02 3136.91,825.067C3139.56,825.114 3141.74,823.001 3141.79,820.353L3142.41,785.64C3142.45,783.002 3140.36,780.821 3137.72,780.756L3099.45,779.819C3096.8,779.754 3094.6,781.852 3094.53,784.5C3094.47,787.149 3096.56,789.352 3099.21,789.416Z" style="fill:rgb(10,96,83);"/></g></g></g><g transform="matrix(-1.09602,0.160136,0.32883,1.07137,3484.1,-1139.04)"><g transform="matrix(1,0,-1.158,1,2036.52,10.9009)"><path d="M2278.07,1771.05C2278.07,1767.87 2285.63,1740.78 2285.63,1740.78L2262.87,1679.76C2262.87,1679.76 1927.93,1683.48 1905.88,1683.48C1905,1683.48 1904.52,1683.79 1904.52,1684.36L1904.52,1765.52C1904.52,1766.51 1905.97,1768.12 1908.16,1769.55C1910.35,1770.98 1912.82,1771.93 1914.34,1771.93L2276.71,1771.93C2277.59,1771.93 2278.07,1771.62 2278.07,1771.05Z" style="fill-opacity:0.2;"/></g><g transform="matrix(1,0,-1.158,1,2032.42,2.10808)"><path d="M2278.07,1689.89C2278.07,1688.9 2276.62,1687.29 2274.43,1685.86C2272.24,1684.42 2269.78,1683.48 2268.25,1683.48L1905.88,1683.48C1905,1683.48 1904.52,1683.79 1904.52,1684.36L1904.52,1765.52C1904.52,1766.51 1905.97,1768.12 1908.16,1769.55C1910.35,1770.98 1912.82,1771.93 1914.34,1771.93L2276.71,1771.93C2277.59,1771.93 2278.07,1771.62 2278.07,1771.05L2278.07,1689.89Z" style="fill:rgb(64,103,177);fill-opacity:0.96;"/></g><path d="M2353.86,1686.73C2353.8,1687.69 2353.36,1688.61 2352.61,1689.26C2330.72,1708.16 2267.46,1762.79 2258.63,1770.41C2257.97,1770.99 2257.12,1771.3 2256.24,1771.3L1893.87,1771.3C1892.85,1771.3 1891.9,1770.87 1891.22,1770.16C1891.19,1770.66 1891.26,1771.17 1891.44,1771.66C1891.98,1773.09 1893.34,1774.04 1894.87,1774.04L2257.24,1774.04C2258.12,1774.04 2258.96,1773.73 2259.63,1773.15C2268.46,1765.53 2331.71,1710.9 2353.6,1692C2354.75,1691 2355.17,1689.39 2354.64,1687.96C2354.46,1687.49 2354.2,1687.08 2353.86,1686.73Z" style="fill:rgb(13,97,152);fill-opacity:0.96;"/><g transform="matrix(1,0,0,1,92.3917,1.7561)"><path d="M2187.01,1685.58L2088.8,1685.58C2074.17,1692.56 2060.7,1701.91 2049.45,1712.96L2045.44,1715.09C2040.47,1716.86 2037.4,1723.58 2035.43,1728.15C2032.97,1733.85 2029.17,1741.37 2030.97,1747.83C2033.09,1755.43 2043.49,1760.53 2050.24,1762.92C2089.25,1776.74 2136.39,1756.38 2166.07,1730.86C2176.31,1722.05 2190.87,1709.1 2189.45,1693.94C2189.15,1690.68 2188.29,1687.92 2187.01,1685.58Z" style="fill:rgb(55,84,140);fill-opacity:0.96;"/></g><g transform="matrix(1,0,0,1,87.9002,-5.06192)"><path d="M2031.13,1736.46C2019.93,1725.08 2036.45,1702.48 2047.01,1693.15C2066.64,1675.83 2091.34,1666.69 2116.51,1662.52C2128.43,1660.54 2144.05,1660.73 2155.95,1663.63C2162.19,1665.15 2167.63,1667.63 2173.21,1670.77C2176.4,1672.56 2178.88,1675.18 2181.74,1677.44C2192.82,1686.18 2184.1,1704.8 2181.7,1707.57C2173.2,1717.39 2163.35,1726.88 2151.91,1733.34C2124.53,1748.79 2096.31,1754.72 2064.89,1751.44C2052.85,1750.19 2042.97,1748.49 2031.13,1736.46Z" style="fill:rgb(208,237,255);"/><path d="M2132.25,1661.22C2127.3,1666.11 2119.23,1674.41 2127.39,1679.63C2128.76,1680.51 2130.42,1681.17 2131.93,1681.72C2133.99,1682.45 2136.26,1682.89 2138.43,1683.05C2148.88,1683.83 2160.38,1682.19 2170.64,1680.4C2174.24,1679.77 2178.07,1678.28 2181.85,1677.52C2192.76,1686.31 2184.09,1704.81 2181.7,1707.57C2173.2,1717.39 2163.35,1726.88 2151.91,1733.34C2124.53,1748.79 2096.31,1754.72 2064.89,1751.44C2052.85,1750.19 2042.97,1748.49 2031.13,1736.46C2029.34,1734.65 2028.26,1732.55 2027.75,1730.26C2028.1,1730.5 2028.44,1730.74 2028.8,1730.97C2036.56,1736.06 2046.16,1738.86 2055.39,1739.22C2072.07,1739.86 2089.03,1736.96 2104.92,1732.19C2120.97,1727.38 2138.73,1723.14 2152.27,1712.61C2157.89,1708.24 2163.67,1701.23 2156.47,1695.65C2155.39,1694.81 2153.8,1694.4 2152.53,1693.97C2149.23,1692.85 2145.13,1692.57 2141.68,1692.05C2135.71,1691.14 2129.34,1688.85 2123.89,1686.34C2120.46,1684.76 2115.24,1682.5 2113.24,1679.02C2111.76,1676.45 2114.01,1674.25 2115.66,1672.61C2120.12,1668.17 2125.86,1664.38 2131.4,1661.23L2131.73,1661.23L2132.25,1661.22Z" style="fill:rgb(165,221,255);"/><path d="M2078.18,1676.85C2072.97,1678.46 2068.38,1681.51 2063.68,1684.17C2056.21,1688.39 2048.88,1693.1 2043.46,1699.91C2039.27,1705.18 2034.82,1715.16 2044.95,1715.88C2046.38,1715.98 2048.06,1716.05 2049.47,1715.79C2053.64,1715.05 2057.56,1712.56 2061.21,1710.55C2071.64,1704.79 2081.64,1697.09 2089.61,1688.18C2091.5,1686.07 2093.53,1683.29 2094.24,1680.49C2096,1673.47 2085.47,1673.74 2081.9,1675.05" style="fill:white;fill-opacity:0.38;"/><path d="M2137.26,1665.55C2134.11,1665.06 2130.72,1667.33 2129.45,1670.24C2128.53,1672.35 2129.08,1675 2131.72,1675.1C2135.6,1675.24 2140.48,1672.87 2143.47,1670.51C2146.3,1668.29 2143.56,1666.05 2140.88,1665.61C2139.66,1665.4 2138.44,1665.29 2137.21,1665.16" style="fill:white;fill-opacity:0.38;"/><path d="M2112.67,1667.32C2109.55,1667.47 2106.96,1672 2106.54,1674.78C2106.3,1676.4 2107.62,1678.46 2109.45,1678.16C2109.84,1678.09 2109.55,1674.18 2109.65,1673.57C2109.8,1672.73 2110.32,1670.88 2110.95,1670.24C2111.56,1669.62 2112.72,1669.13 2113.08,1668.31" style="fill:rgb(165,221,255);"/></g></g><g transform="matrix(1,0,0,1,57.9536,84.2116)"><path d="M587.223,874.957C587.82,875.139 588.447,875.202 589.069,875.141C613.721,872.745 1115.16,823.998 1220.27,813.781C1222.03,813.61 1223.42,812.211 1223.58,810.448C1223.75,808.685 1222.63,807.055 1220.93,806.564C1211.28,803.782 1200.94,800.801 1198.25,800.024C1197.8,799.896 1197.34,799.852 1196.88,799.896C1175.8,801.892 682.921,848.567 567.793,859.469C565.535,859.683 563.744,861.462 563.516,863.718C563.287,865.974 564.685,868.077 566.854,868.739C575.745,871.453 584.454,874.112 587.223,874.957Z" style="fill-opacity:0.23;"/></g><g transform="matrix(-1.10365,0.0941312,0.0941312,1.10365,2693.92,-1076.97)"><g transform="matrix(0.716442,-1.79452e-17,-1.74375e-17,0.763813,641.896,396.499)"><path d="M1630.67,1814.86L777.507,1810.02C771.3,1810.01 769.902,1799.37 773.193,1797.31L933.088,1697.1C936.346,1695.06 943.97,1693.41 950.117,1693.41L1800.4,1694.07C1806.55,1694.07 1806.33,1705.21 1803.07,1707.25L1647.86,1811.14C1644.57,1813.2 1636.87,1814.86 1630.67,1814.86Z" style="fill-opacity:0.17;"/></g><g transform="matrix(0.716442,-1.79452e-17,-1.74375e-17,0.763813,630.233,390.194)"><path d="M1630.67,1814.86L777.507,1810.02C771.3,1810.01 769.902,1799.37 773.193,1797.31L933.088,1697.1C936.346,1695.06 943.97,1693.41 950.117,1693.41L1800.4,1694.07C1806.55,1694.07 1806.33,1705.21 1803.07,1707.25L1647.86,1811.14C1644.57,1813.2 1636.87,1814.86 1630.67,1814.86Z" style="fill:rgb(45,69,132);"/></g><g transform="matrix(0.716442,-1.79452e-17,-1.74375e-17,0.763813,630.233,390.194)"><path d="M1628.54,1801.7L778.472,1801.05C772.265,1801.04 769.902,1799.37 773.193,1797.31L933.088,1697.1C936.346,1695.06 943.97,1693.41 950.117,1693.41L1800.4,1694.07C1806.55,1694.07 1808.89,1695.73 1805.63,1697.77L1645.73,1797.98C1642.44,1800.04 1634.74,1801.7 1628.54,1801.7Z" style="fill:rgb(190,230,255);"/></g><g transform="matrix(0.716442,-1.79452e-17,-1.74375e-17,0.763813,630.233,390.194)"><g transform="matrix(3.48851,0,-1.83818,1.157,994.328,1704.89)"><path d="M0,8.592L-9.227,8.571C-10.125,8.569 -10.851,7.839 -10.849,6.942L-10.836,1.622C-10.834,0.724 -10.105,-0.002 -9.208,0L0.02,0.021C0.917,0.023 1.644,0.753 1.641,1.651L1.629,6.97C1.627,7.868 0.897,8.594 0,8.592" style="fill:rgb(64,103,177);fill-rule:nonzero;"/></g><g transform="matrix(3.48851,0,-1.83818,1.157,1051.01,1704.94)"><path d="M0,8.592L-9.227,8.571C-10.125,8.569 -10.851,7.839 -10.849,6.942L-10.836,1.622C-10.834,0.724 -10.104,-0.002 -9.207,0L0.02,0.021C0.918,0.023 1.644,0.753 1.642,1.651L1.629,6.97C1.627,7.868 0.898,8.594 0,8.592" style="fill:rgb(64,103,177);fill-rule:nonzero;"/></g><g transform="matrix(3.48851,0,-1.83818,1.157,1107.7,1704.98)"><path d="M0,8.592L-9.227,8.571C-10.125,8.569 -10.851,7.839 -10.849,6.942L-10.836,1.621C-10.834,0.724 -10.104,-0.002 -9.207,0L0.02,0.021C0.917,0.023 1.644,0.753 1.642,1.65L1.629,6.97C1.627,7.868 0.898,8.594 0,8.592" style="fill:rgb(64,103,177);fill-rule:nonzero;"/></g><g transform="matrix(3.48851,0,-1.83818,1.157,1164.39,1705.02)"><path d="M0,8.592L-9.227,8.571C-10.125,8.569 -10.851,7.839 -10.849,6.942L-10.836,1.622C-10.834,0.724 -10.105,-0.002 -9.207,0L0.02,0.021C0.917,0.023 1.644,0.753 1.642,1.651L1.629,6.97C1.627,7.868 0.897,8.594 0,8.592" style="fill:rgb(64,103,177);fill-rule:nonzero;"/></g><g transform="matrix(3.48851,0,-1.83818,1.157,1221.08,1705.07)"><path d="M0,8.592L-9.227,8.571C-10.125,8.569 -10.851,7.839 -10.849,6.942L-10.836,1.621C-10.834,0.724 -10.105,-0.002 -9.208,0L0.02,0.021C0.917,0.023 1.644,0.753 1.641,1.65L1.629,6.97C1.627,7.868 0.897,8.594 0,8.592" style="fill:rgb(64,103,177);fill-rule:nonzero;"/></g><g transform="matrix(3.48851,0,-1.83818,1.157,1277.76,1705.11)"><path d="M0,8.592L-9.227,8.571C-10.125,8.569 -10.851,7.839 -10.848,6.942L-10.836,1.622C-10.834,0.724 -10.104,-0.002 -9.207,0L0.02,0.021C0.918,0.023 1.644,0.753 1.642,1.651L1.629,6.97C1.627,7.868 0.898,8.594 0,8.592" style="fill:rgb(64,103,177);fill-rule:nonzero;"/></g><g transform="matrix(3.48851,0,-1.83818,1.157,1334.45,1705.16)"><path d="M0,8.592L-9.227,8.571C-10.125,8.569 -10.851,7.839 -10.849,6.942L-10.836,1.621C-10.834,0.724 -10.104,-0.002 -9.207,0L0.02,0.021C0.917,0.023 1.644,0.753 1.642,1.65L1.629,6.97C1.627,7.868 0.898,8.594 0,8.592" style="fill:rgb(64,103,177);fill-rule:nonzero;"/></g><g transform="matrix(3.48851,0,-1.83818,1.157,1391.14,1705.2)"><path d="M0,8.592L-9.227,8.571C-10.125,8.569 -10.851,7.839 -10.849,6.942L-10.836,1.621C-10.834,0.724 -10.105,-0.002 -9.207,0L0.02,0.021C0.918,0.023 1.644,0.753 1.642,1.65L1.629,6.97C1.627,7.868 0.897,8.594 0,8.592" style="fill:rgb(64,103,177);fill-rule:nonzero;"/></g><g transform="matrix(3.48851,0,-1.83818,1.157,1447.82,1705.24)"><path d="M0,8.592L-9.227,8.571C-10.125,8.569 -10.851,7.839 -10.849,6.942L-10.836,1.621C-10.834,0.724 -10.104,-0.002 -9.207,0L0.02,0.021C0.917,0.023 1.644,0.753 1.642,1.65L1.629,6.97C1.627,7.868 0.897,8.594 0,8.592" style="fill:rgb(64,103,177);fill-rule:nonzero;"/></g><g transform="matrix(3.48851,0,-1.83818,1.157,1504.51,1705.29)"><path d="M0,8.592L-9.228,8.571C-10.125,8.569 -10.851,7.839 -10.849,6.941L-10.836,1.621C-10.834,0.724 -10.105,-0.002 -9.207,0L0.02,0.021C0.917,0.023 1.644,0.753 1.642,1.65L1.629,6.97C1.627,7.868 0.897,8.594 0,8.592" style="fill:rgb(64,103,177);fill-rule:nonzero;"/></g><g transform="matrix(3.48851,0,-1.83818,1.157,1561.2,1705.33)"><path d="M0,8.592L-9.228,8.571C-10.125,8.569 -10.851,7.839 -10.849,6.942L-10.837,1.621C-10.834,0.724 -10.105,-0.002 -9.207,0L0.02,0.021C0.917,0.023 1.644,0.753 1.642,1.65L1.629,6.97C1.627,7.868 0.897,8.594 0,8.592" style="fill:rgb(64,103,177);fill-rule:nonzero;"/></g><g transform="matrix(3.48851,0,-1.83818,1.157,1617.89,1705.37)"><path d="M0,8.592L-9.228,8.571C-10.125,8.569 -10.851,7.839 -10.849,6.941L-10.837,1.621C-10.835,0.724 -10.105,-0.002 -9.207,0L0.02,0.021C0.917,0.023 1.644,0.753 1.642,1.65L1.629,6.97C1.627,7.868 0.897,8.594 0,8.592" style="fill:rgb(64,103,177);fill-rule:nonzero;"/></g><g transform="matrix(3.48851,0,-1.83818,1.157,1687.57,1705.42)"><path d="M0,8.592L-12.953,8.571C-13.851,8.569 -14.577,7.839 -14.574,6.942L-14.563,1.621C-14.561,0.724 -13.831,-0.002 -12.934,0L0.021,0.021C0.918,0.023 1.644,0.753 1.642,1.65L1.629,6.97C1.627,7.868 0.898,8.594 0,8.592" style="fill:rgb(64,103,177);fill-rule:nonzero;"/></g><g transform="matrix(3.48851,0,-1.83818,1.157,1757.55,1705.46)"><path d="M0,8.609L-13.037,8.57C-13.935,8.568 -14.661,7.839 -14.659,6.941L-14.646,1.621C-14.645,0.724 -13.915,-0.002 -13.018,0L0.02,0.038C0.917,0.041 1.644,0.77 1.641,1.668L1.629,6.987C1.627,7.885 0.897,8.611 0,8.609" style="fill:rgb(64,103,177);fill-rule:nonzero;"/></g><g transform="matrix(3.48851,0,-1.83818,1.157,883.731,1774.16)"><path d="M0,16.406L-9.227,16.385C-10.125,16.383 -10.851,15.653 -10.849,14.756L-10.818,1.622C-10.816,0.724 -10.086,-0.002 -9.189,0L0.038,0.021C0.936,0.023 1.662,0.753 1.66,1.65L1.629,14.785C1.627,15.682 0.898,16.408 0,16.406" style="fill:rgb(64,103,177);fill-rule:nonzero;"/></g><g transform="matrix(3.48851,0,-1.83818,1.157,940.418,1774.21)"><path d="M0,16.406L-9.227,16.385C-10.125,16.383 -10.851,15.653 -10.849,14.755L-10.818,1.621C-10.816,0.723 -10.087,-0.002 -9.189,0L0.038,0.021C0.936,0.023 1.662,0.753 1.66,1.65L1.629,14.784C1.627,15.681 0.898,16.408 0,16.406" style="fill:rgb(64,103,177);fill-rule:nonzero;"/></g><g transform="matrix(3.48851,0,-1.83818,1.157,997.106,1774.25)"><path d="M0,16.406L-9.227,16.385C-10.125,16.383 -10.851,15.653 -10.849,14.756L-10.818,1.622C-10.816,0.724 -10.087,-0.002 -9.189,0L0.038,0.021C0.936,0.023 1.662,0.753 1.66,1.65L1.629,14.784C1.627,15.682 0.898,16.408 0,16.406" style="fill:rgb(64,103,177);fill-rule:nonzero;"/></g><g transform="matrix(3.48851,0,-1.83818,1.157,1053.79,1774.29)"><path d="M0,16.406L-9.227,16.385C-10.125,16.383 -10.851,15.653 -10.849,14.755L-10.818,1.621C-10.816,0.723 -10.087,-0.002 -9.189,0L0.038,0.02C0.936,0.023 1.662,0.753 1.659,1.65L1.629,14.784C1.627,15.681 0.897,16.408 0,16.406" style="fill:rgb(64,103,177);fill-rule:nonzero;"/></g><g transform="matrix(3.48851,0,-1.83818,1.157,1280.75,1774.34)"><path d="M0,16.518L-58.035,16.384C-58.933,16.382 -59.659,15.653 -59.657,14.755L-59.626,1.622C-59.625,0.724 -58.895,-0.003 -57.998,-0.001L0.038,0.133C0.936,0.136 1.661,0.866 1.659,1.763L1.629,14.897C1.627,15.794 0.897,16.521 0,16.518" style="fill:rgb(64,103,177);fill-rule:nonzero;"/></g><g transform="matrix(3.48851,0,-1.83818,1.157,1337.23,1774.51)"><path d="M0,16.406L-9.228,16.385C-10.125,16.383 -10.851,15.653 -10.849,14.756L-10.818,1.622C-10.816,0.723 -10.087,-0.002 -9.189,0L0.038,0.021C0.936,0.023 1.661,0.753 1.659,1.65L1.629,14.784C1.627,15.682 0.897,16.408 0,16.406" style="fill:rgb(64,103,177);fill-rule:nonzero;"/></g><g transform="matrix(3.48851,0,-1.83818,1.157,1393.91,1774.56)"><path d="M0,16.404L-9.228,16.383C-10.125,16.381 -10.851,15.652 -10.849,14.754L-10.818,1.62C-10.816,0.722 -10.087,-0.003 -9.189,-0.001L0.038,0.019C0.936,0.022 1.661,0.752 1.659,1.649L1.629,14.783C1.627,15.68 0.897,16.407 0,16.404" style="fill:rgb(64,103,177);fill-rule:nonzero;"/></g><g transform="matrix(3.48851,0,-1.83818,1.157,1450.6,1774.6)"><path d="M0,16.406L-9.228,16.385C-10.125,16.383 -10.851,15.653 -10.849,14.756L-10.818,1.622C-10.816,0.723 -10.087,-0.002 -9.189,0L0.037,0.021C0.936,0.023 1.661,0.753 1.659,1.65L1.629,14.784C1.627,15.682 0.897,16.408 0,16.406" style="fill:rgb(64,103,177);fill-rule:nonzero;"/></g><g transform="matrix(3.48851,0,-1.83818,1.157,1561.52,1786.36)"><path d="M0,6.325L-10.474,6.301C-11.371,6.299 -12.097,5.569 -12.095,4.672L-12.088,1.622C-12.086,0.724 -11.356,-0.002 -10.459,0L0.015,0.024C0.912,0.026 1.639,0.756 1.636,1.653L1.629,4.703C1.627,5.601 0.897,6.327 0,6.325" style="fill:rgb(64,103,177);fill-rule:nonzero;"/></g><g transform="matrix(3.48851,0,-1.83818,1.157,1623.87,1786.41)"><path d="M0,6.324L-10.474,6.3C-11.371,6.298 -12.097,5.568 -12.095,4.671L-12.088,1.621C-12.086,0.723 -11.356,-0.002 -10.459,0L0.015,0.024C0.912,0.026 1.639,0.755 1.636,1.653L1.629,4.703C1.627,5.6 0.897,6.326 0,6.324" style="fill:rgb(64,103,177);fill-rule:nonzero;"/></g><g transform="matrix(3.48851,0,-1.83818,1.157,1499.17,1786.31)"><path d="M0,6.325L-10.473,6.301C-11.371,6.299 -12.097,5.569 -12.095,4.671L-12.088,1.622C-12.086,0.723 -11.356,-0.002 -10.459,0L0.015,0.024C0.912,0.026 1.639,0.756 1.637,1.653L1.629,4.703C1.627,5.6 0.897,6.327 0,6.325" style="fill:rgb(64,103,177);fill-rule:nonzero;"/></g><g transform="matrix(3.48851,0,-1.83818,1.157,1580.14,1774.7)"><path d="M0,6.323L-10.474,6.3C-11.371,6.298 -12.097,5.568 -12.095,4.67L-12.088,1.621C-12.086,0.722 -11.356,-0.003 -10.459,-0.001L0.015,0.023C0.912,0.025 1.638,0.755 1.636,1.652L1.629,4.702C1.627,5.599 0.897,6.326 0,6.323" style="fill:rgb(64,103,177);fill-rule:nonzero;"/></g><g transform="matrix(3.48851,0,-1.83818,1.157,972.073,1718.82)"><path d="M0,12.499L-9.227,12.478C-10.125,12.476 -10.851,11.746 -10.849,10.849L-10.827,1.622C-10.825,0.724 -10.096,-0.002 -9.198,0L0.029,0.021C0.927,0.023 1.653,0.753 1.651,1.65L1.629,10.878C1.627,11.775 0.898,12.501 0,12.499" style="fill:rgb(64,103,177);fill-rule:nonzero;"/></g><g transform="matrix(3.48851,0,-1.83818,1.157,1028.76,1718.86)"><path d="M0,12.499L-9.227,12.478C-10.125,12.476 -10.851,11.746 -10.849,10.849L-10.827,1.621C-10.825,0.724 -10.096,-0.002 -9.198,-0.001L0.029,0.021C0.927,0.023 1.652,0.752 1.65,1.65L1.629,10.877C1.627,11.774 0.898,12.501 0,12.499" style="fill:rgb(64,103,177);fill-rule:nonzero;"/></g><g transform="matrix(3.48851,0,-1.83818,1.157,1085.45,1718.91)"><path d="M0,12.499L-9.227,12.478C-10.125,12.476 -10.851,11.746 -10.849,10.849L-10.828,1.622C-10.825,0.724 -10.096,-0.002 -9.198,0L0.029,0.021C0.926,0.023 1.652,0.753 1.65,1.65L1.629,10.878C1.627,11.775 0.897,12.501 0,12.499" style="fill:rgb(64,103,177);fill-rule:nonzero;"/></g><g transform="matrix(3.48851,0,-1.83818,1.157,1142.13,1718.95)"><path d="M0,12.499L-9.227,12.478C-10.125,12.476 -10.851,11.746 -10.848,10.849L-10.827,1.621C-10.825,0.724 -10.096,-0.002 -9.198,-0.001L0.029,0.021C0.927,0.023 1.653,0.752 1.651,1.65L1.629,10.877C1.627,11.774 0.898,12.501 0,12.499" style="fill:rgb(64,103,177);fill-rule:nonzero;"/></g><g transform="matrix(3.48851,0,-1.83818,1.157,1198.82,1718.99)"><path d="M0,12.499L-9.227,12.478C-10.125,12.476 -10.851,11.746 -10.849,10.849L-10.827,1.622C-10.825,0.724 -10.096,-0.002 -9.198,0L0.029,0.021C0.927,0.023 1.653,0.753 1.651,1.65L1.629,10.878C1.627,11.775 0.898,12.501 0,12.499" style="fill:rgb(64,103,177);fill-rule:nonzero;"/></g><g transform="matrix(3.48851,0,-1.83818,1.157,1255.51,1719.04)"><path d="M0,12.499L-9.227,12.478C-10.125,12.476 -10.851,11.746 -10.849,10.849L-10.827,1.621C-10.825,0.724 -10.096,-0.002 -9.198,-0.001L0.029,0.021C0.927,0.023 1.653,0.752 1.65,1.65L1.629,10.877C1.627,11.774 0.898,12.501 0,12.499" style="fill:rgb(64,103,177);fill-rule:nonzero;"/></g><g transform="matrix(3.48851,0,-1.83818,1.157,1312.2,1719.08)"><path d="M0,12.499L-9.227,12.478C-10.125,12.476 -10.851,11.746 -10.849,10.849L-10.827,1.622C-10.825,0.724 -10.096,-0.002 -9.198,0L0.029,0.021C0.926,0.023 1.652,0.753 1.65,1.65L1.629,10.878C1.627,11.775 0.897,12.501 0,12.499" style="fill:rgb(64,103,177);fill-rule:nonzero;"/></g><g transform="matrix(3.48851,0,-1.83818,1.157,1368.88,1719.13)"><path d="M0,12.499L-9.227,12.478C-10.124,12.476 -10.85,11.746 -10.848,10.849L-10.827,1.621C-10.825,0.724 -10.096,-0.002 -9.198,-0.001L0.029,0.021C0.927,0.023 1.653,0.752 1.65,1.65L1.63,10.877C1.628,11.774 0.898,12.501 0,12.499" style="fill:rgb(64,103,177);fill-rule:nonzero;"/></g><g transform="matrix(3.48851,0,-1.83818,1.157,1425.57,1719.17)"><path d="M0,12.499L-9.227,12.478C-10.124,12.476 -10.851,11.746 -10.849,10.849L-10.827,1.622C-10.825,0.724 -10.096,-0.002 -9.198,0L0.029,0.021C0.927,0.023 1.652,0.753 1.65,1.65L1.629,10.878C1.627,11.775 0.897,12.501 0,12.499" style="fill:rgb(64,103,177);fill-rule:nonzero;"/></g><g transform="matrix(3.48851,0,-1.83818,1.157,1482.25,1719.21)"><path d="M0,12.499L-9.227,12.478C-10.124,12.476 -10.851,11.746 -10.849,10.848L-10.827,1.621C-10.825,0.724 -10.096,-0.002 -9.198,-0.001L0.029,0.021C0.927,0.023 1.652,0.752 1.65,1.65L1.629,10.877C1.627,11.774 0.897,12.501 0,12.499" style="fill:rgb(64,103,177);fill-rule:nonzero;"/></g><g transform="matrix(3.48851,0,-1.83818,1.157,1538.94,1719.26)"><path d="M0,12.499L-9.227,12.478C-10.125,12.476 -10.851,11.746 -10.849,10.849L-10.827,1.622C-10.825,0.724 -10.096,-0.002 -9.198,0L0.029,0.021C0.927,0.023 1.652,0.753 1.65,1.65L1.629,10.878C1.627,11.775 0.897,12.501 0,12.499" style="fill:rgb(64,103,177);fill-rule:nonzero;"/></g><g transform="matrix(3.48851,0,-1.83818,1.157,1595.63,1719.3)"><path d="M0,12.499L-9.227,12.478C-10.125,12.476 -10.851,11.746 -10.849,10.848L-10.827,1.621C-10.825,0.724 -10.096,-0.002 -9.198,-0.001L0.028,0.021C0.927,0.023 1.652,0.752 1.65,1.65L1.629,10.877C1.627,11.774 0.897,12.501 0,12.499" style="fill:rgb(64,103,177);fill-rule:nonzero;"/></g><g transform="matrix(3.48851,0,-1.83818,1.157,1665.32,1719.34)"><path d="M0,12.499L-12.954,12.478C-13.852,12.476 -14.577,11.746 -14.575,10.849L-14.554,1.622C-14.552,0.724 -13.822,-0.002 -12.925,0L0.028,0.021C0.926,0.023 1.652,0.753 1.65,1.65L1.629,10.878C1.627,11.775 0.897,12.501 0,12.499" style="fill:rgb(64,103,177);fill-rule:nonzero;"/></g><g transform="matrix(3.48851,0,-1.83818,1.157,1735.3,1719.39)"><path d="M0,12.516L-13.037,12.478C-13.935,12.476 -14.661,11.746 -14.659,10.848L-14.638,1.621C-14.636,0.724 -13.906,-0.002 -13.008,0L0.028,0.038C0.927,0.04 1.652,0.77 1.65,1.668L1.629,10.895C1.627,11.792 0.897,12.518 0,12.516" style="fill:rgb(64,103,177);fill-rule:nonzero;"/></g><g transform="matrix(3.48851,0,-1.83818,1.157,970.301,1737.27)"><path d="M0,12.536L-17.157,12.477C-18.055,12.475 -18.781,11.746 -18.779,10.849L-18.758,1.621C-18.755,0.723 -18.026,-0.002 -17.128,0L0.029,0.058C0.927,0.06 1.653,0.79 1.651,1.687L1.629,10.915C1.627,11.812 0.898,12.538 0,12.536" style="fill:rgb(64,103,177);fill-rule:nonzero;"/></g><g transform="matrix(3.48851,0,-1.83818,1.157,1056.01,1737.36)"><path d="M0,12.499L-17.156,12.478C-18.053,12.476 -18.779,11.746 -18.777,10.849L-18.756,1.621C-18.754,0.724 -18.024,-0.002 -17.127,0L0.029,0.021C0.927,0.023 1.653,0.753 1.65,1.65L1.629,10.877C1.627,11.775 0.898,12.501 0,12.499" style="fill:rgb(64,103,177);fill-rule:nonzero;"/></g><g transform="matrix(3.48851,0,-1.83818,1.157,1112.7,1737.4)"><path d="M0,12.499L-9.227,12.478C-10.125,12.476 -10.851,11.746 -10.849,10.849L-10.827,1.622C-10.825,0.725 -10.096,-0.002 -9.198,0L0.029,0.021C0.927,0.023 1.653,0.753 1.65,1.65L1.629,10.878C1.627,11.775 0.898,12.501 0,12.499" style="fill:rgb(64,103,177);fill-rule:nonzero;"/></g><g transform="matrix(3.48851,0,-1.83818,1.157,1169.38,1737.44)"><path d="M0,12.499L-9.227,12.478C-10.125,12.476 -10.851,11.746 -10.849,10.849L-10.827,1.621C-10.825,0.724 -10.096,-0.002 -9.198,0L0.029,0.021C0.926,0.023 1.652,0.753 1.65,1.65L1.629,10.877C1.627,11.775 0.897,12.501 0,12.499" style="fill:rgb(64,103,177);fill-rule:nonzero;"/></g><g transform="matrix(3.48851,0,-1.83818,1.157,1226.07,1737.49)"><path d="M0,12.499L-9.227,12.478C-10.125,12.476 -10.851,11.746 -10.849,10.849L-10.828,1.622C-10.825,0.725 -10.096,-0.002 -9.198,0L0.029,0.021C0.926,0.023 1.652,0.753 1.65,1.65L1.629,10.878C1.627,11.775 0.897,12.501 0,12.499" style="fill:rgb(64,103,177);fill-rule:nonzero;"/></g><g transform="matrix(3.48851,0,-1.83818,1.157,1282.76,1737.53)"><path d="M0,12.499L-9.227,12.478C-10.125,12.476 -10.851,11.746 -10.849,10.849L-10.828,1.621C-10.825,0.724 -10.096,-0.002 -9.198,0L0.029,0.021C0.926,0.023 1.652,0.753 1.65,1.65L1.629,10.877C1.627,11.775 0.897,12.501 0,12.499" style="fill:rgb(64,103,177);fill-rule:nonzero;"/></g><g transform="matrix(3.48851,0,-1.83818,1.157,1339.45,1737.57)"><path d="M0,12.499L-9.228,12.478C-10.125,12.476 -10.851,11.746 -10.849,10.849L-10.828,1.622C-10.826,0.725 -10.096,-0.002 -9.198,0L0.028,0.021C0.926,0.023 1.652,0.753 1.65,1.65L1.629,10.878C1.627,11.775 0.897,12.501 0,12.499" style="fill:rgb(64,103,177);fill-rule:nonzero;"/></g><g transform="matrix(3.48851,0,-1.83818,1.157,1396.13,1737.62)"><path d="M0,12.499L-9.228,12.478C-10.125,12.476 -10.852,11.746 -10.849,10.849L-10.828,1.621C-10.825,0.724 -10.097,-0.002 -9.198,0L0.028,0.021C0.926,0.023 1.652,0.753 1.65,1.65L1.629,10.877C1.627,11.774 0.897,12.501 0,12.499" style="fill:rgb(64,103,177);fill-rule:nonzero;"/></g><g transform="matrix(3.48851,0,-1.83818,1.157,1452.82,1737.66)"><path d="M0,12.499L-9.227,12.478C-10.124,12.476 -10.851,11.746 -10.849,10.849L-10.827,1.622C-10.825,0.725 -10.096,-0.002 -9.197,0L0.029,0.021C0.927,0.023 1.653,0.753 1.651,1.65L1.63,10.878C1.628,11.775 0.898,12.501 0,12.499" style="fill:rgb(64,103,177);fill-rule:nonzero;"/></g><g transform="matrix(3.48851,0,-1.83818,1.157,1509.51,1737.7)"><path d="M0,12.499L-9.227,12.478C-10.124,12.476 -10.851,11.746 -10.849,10.849L-10.827,1.621C-10.825,0.724 -10.096,-0.002 -9.198,0L0.029,0.021C0.927,0.023 1.653,0.753 1.65,1.65L1.63,10.877C1.627,11.774 0.898,12.501 0,12.499" style="fill:rgb(64,103,177);fill-rule:nonzero;"/></g><g transform="matrix(3.48851,0,-1.83818,1.157,1566.19,1737.75)"><path d="M0,12.499L-9.227,12.478C-10.124,12.476 -10.851,11.746 -10.849,10.849L-10.827,1.622C-10.825,0.724 -10.096,-0.002 -9.198,0L0.029,0.021C0.927,0.023 1.652,0.753 1.65,1.65L1.629,10.878C1.627,11.775 0.897,12.501 0,12.499" style="fill:rgb(64,103,177);fill-rule:nonzero;"/></g><g transform="matrix(3.48851,0,-1.83818,1.157,1621.71,1737.75)"><path d="M0,12.499L-9.228,12.478C-10.125,12.476 -10.851,11.746 -10.849,10.849L-10.827,1.622C-10.825,0.724 -10.097,-0.002 -9.198,0L0.028,0.021C0.926,0.023 1.652,0.753 1.65,1.65L1.629,10.878C1.627,11.775 0.897,12.501 0,12.499" style="fill:rgb(64,103,177);fill-rule:nonzero;"/></g><g transform="matrix(3.48851,0,-1.83818,1.157,1705.93,1737.79)"><path d="M0,12.554L-16.885,12.478C-17.783,12.476 -18.509,11.746 -18.507,10.849L-18.485,1.621C-18.483,0.724 -17.754,-0.002 -16.856,0L0.029,0.076C0.927,0.078 1.652,0.808 1.65,1.705L1.629,10.932C1.627,11.83 0.897,12.556 0,12.554" style="fill:rgb(64,103,177);fill-rule:nonzero;"/></g><g transform="matrix(3.48851,0,-1.83818,1.157,969.957,1755.72)"><path d="M0,12.537L-25.497,12.478C-26.394,12.476 -27.12,11.747 -27.118,10.85L-27.097,1.622C-27.095,0.724 -26.365,-0.002 -25.468,0.001L0.029,0.059C0.927,0.061 1.652,0.791 1.65,1.688L1.629,10.915C1.627,11.813 0.898,12.539 0,12.537" style="fill:rgb(64,103,177);fill-rule:nonzero;"/></g><g transform="matrix(3.48851,0,-1.83818,1.157,1026.58,1755.8)"><path d="M0,12.5L-9.227,12.479C-10.125,12.477 -10.851,11.747 -10.849,10.849L-10.827,1.622C-10.825,0.725 -10.096,-0.002 -9.198,0L0.029,0.021C0.926,0.024 1.652,0.753 1.65,1.651L1.629,10.878C1.627,11.775 0.897,12.502 0,12.5" style="fill:rgb(64,103,177);fill-rule:nonzero;"/></g><g transform="matrix(3.48851,0,-1.83818,1.157,1083.26,1755.85)"><path d="M0,12.499L-9.227,12.478C-10.125,12.476 -10.851,11.746 -10.849,10.849L-10.827,1.622C-10.825,0.724 -10.096,-0.002 -9.198,0L0.029,0.021C0.926,0.023 1.652,0.753 1.65,1.65L1.629,10.877C1.627,11.775 0.897,12.501 0,12.499" style="fill:rgb(64,103,177);fill-rule:nonzero;"/></g><g transform="matrix(3.48851,0,-1.83818,1.157,1139.95,1755.89)"><path d="M0,12.5L-9.227,12.479C-10.125,12.477 -10.851,11.747 -10.849,10.849L-10.828,1.622C-10.826,0.725 -10.096,-0.002 -9.198,0L0.029,0.021C0.926,0.023 1.652,0.753 1.65,1.651L1.629,10.878C1.627,11.775 0.897,12.502 0,12.5" style="fill:rgb(64,103,177);fill-rule:nonzero;"/></g><g transform="matrix(3.48851,0,-1.83818,1.157,1196.63,1755.93)"><path d="M0,12.499L-9.227,12.478C-10.125,12.476 -10.851,11.746 -10.849,10.849L-10.827,1.622C-10.825,0.724 -10.096,-0.002 -9.198,0L0.029,0.021C0.927,0.023 1.653,0.753 1.65,1.65L1.629,10.877C1.627,11.775 0.898,12.501 0,12.499" style="fill:rgb(64,103,177);fill-rule:nonzero;"/></g><g transform="matrix(3.48851,0,-1.83818,1.157,1253.32,1755.98)"><path d="M0,12.5L-9.227,12.479C-10.125,12.477 -10.851,11.747 -10.849,10.849L-10.827,1.622C-10.825,0.725 -10.096,-0.002 -9.198,0L0.029,0.021C0.927,0.023 1.653,0.753 1.65,1.651L1.629,10.878C1.627,11.775 0.897,12.502 0,12.5" style="fill:rgb(64,103,177);fill-rule:nonzero;"/></g><g transform="matrix(3.48851,0,-1.83818,1.157,1310.01,1756.02)"><path d="M0,12.499L-9.227,12.478C-10.125,12.476 -10.851,11.746 -10.849,10.849L-10.827,1.621C-10.825,0.724 -10.096,-0.002 -9.198,0L0.028,0.021C0.927,0.023 1.652,0.753 1.65,1.65L1.629,10.877C1.627,11.775 0.897,12.501 0,12.499" style="fill:rgb(64,103,177);fill-rule:nonzero;"/></g><g transform="matrix(3.48851,0,-1.83818,1.157,1366.7,1756.06)"><path d="M0,12.5L-9.228,12.479C-10.125,12.477 -10.851,11.747 -10.849,10.849L-10.827,1.622C-10.825,0.725 -10.096,-0.002 -9.198,0L0.028,0.021C0.927,0.023 1.652,0.753 1.65,1.651L1.629,10.878C1.627,11.775 0.897,12.502 0,12.5" style="fill:rgb(64,103,177);fill-rule:nonzero;"/></g><g transform="matrix(3.48851,0,-1.83818,1.157,1423.38,1756.11)"><path d="M0,12.499L-9.228,12.478C-10.125,12.476 -10.851,11.746 -10.849,10.849L-10.827,1.621C-10.825,0.724 -10.096,-0.002 -9.198,0L0.028,0.021C0.927,0.023 1.652,0.753 1.65,1.65L1.629,10.877C1.627,11.775 0.897,12.501 0,12.499" style="fill:rgb(64,103,177);fill-rule:nonzero;"/></g><g transform="matrix(3.48851,0,-1.83818,1.157,1480.07,1756.15)"><path d="M0,12.5L-9.228,12.479C-10.125,12.476 -10.851,11.747 -10.849,10.849L-10.828,1.622C-10.825,0.725 -10.096,-0.002 -9.198,0L0.028,0.021C0.926,0.023 1.652,0.753 1.65,1.651L1.629,10.878C1.627,11.775 0.897,12.502 0,12.5" style="fill:rgb(64,103,177);fill-rule:nonzero;"/></g><g transform="matrix(3.48851,0,-1.83818,1.157,1536.76,1756.19)"><path d="M0,12.499L-9.227,12.478C-10.124,12.476 -10.851,11.746 -10.848,10.849L-10.827,1.621C-10.825,0.724 -10.096,-0.002 -9.197,0L0.029,0.021C0.927,0.023 1.653,0.753 1.651,1.65L1.63,10.877C1.628,11.775 0.898,12.501 0,12.499" style="fill:rgb(64,103,177);fill-rule:nonzero;"/></g><g transform="matrix(3.48851,0,-1.83818,1.157,1676.49,1756.24)"><path d="M0,12.555L-33.032,12.479C-33.93,12.476 -34.656,11.747 -34.654,10.849L-34.633,1.622C-34.631,0.725 -33.901,-0.002 -33.004,0L0.029,0.077C0.927,0.079 1.653,0.809 1.65,1.706L1.63,10.933C1.628,11.83 0.898,12.557 0,12.555" style="fill:rgb(64,103,177);fill-rule:nonzero;"/></g></g></g></g></g></g></g></g></g><defs><linearGradient id="_Linear2" x1="0" y1="0" x2="1" y2="-0.16218" gradientUnits="userSpaceOnUse" gradientTransform="matrix(1371.98,-1982.89,1982.89,1371.98,819.182,1783.15)"><stop offset="0" style="stop-color:white;stop-opacity:0"/><stop offset="1" style="stop-color:white;stop-opacity:1"/></linearGradient><linearGradient id="_Linear3" x1="0" y1="0" x2="1" y2="0" gradientUnits="userSpaceOnUse" gradientTransform="matrix(107.738,-194.711,194.711,107.738,2259.56,2104.98)"><stop offset="0" style="stop-color:white;stop-opacity:0"/><stop offset="1" style="stop-color:white;stop-opacity:1"/></linearGradient><linearGradient id="_Linear4" x1="0" y1="0" x2="1" y2="0" gradientUnits="userSpaceOnUse" gradientTransform="matrix(107.738,-194.711,194.711,107.738,2259.56,2104.98)"><stop offset="0" style="stop-color:white;stop-opacity:0"/><stop offset="1" style="stop-color:white;stop-opacity:1"/></linearGradient></defs></svg>