<svg xmlns="http://www.w3.org/2000/svg" xmlns:xlink="http://www.w3.org/1999/xlink" viewBox="0 0 4800 2700"><defs><style>.cls-1,.cls-58{fill:none;}.cls-2{isolation:isolate;}.cls-3{clip-path:url(#clip-path);}.cls-4{fill:#333;}.cls-5{fill:#02976a;}.cls-6{fill:#bf8549;}.cls-7{fill:#d3d3d3;}.cls-8{opacity:0.19;}.cls-43,.cls-8{mix-blend-mode:multiply;}.cls-56,.cls-9{fill:#fff;}.cls-10{fill:#a5a5a5;}.cls-11{fill:#824d03;}.cls-12{fill:#703e03;}.cls-13{fill:#4f3b44;}.cls-14{fill:#212121;}.cls-15{fill:#d1cfcd;}.cls-16{fill:#e84546;}.cls-17{fill:#b81b1c;}.cls-18{fill:#d32436;}.cls-19{fill:#ffe38e;}.cls-20{fill:#f7940d;}.cls-21{fill:#f1f2f2;}.cls-22{fill:#b85007;}.cls-23{fill:#f9e6b2;}.cls-24{fill:#ffcd4d;}.cls-25{fill:#f66f6b;}.cls-26{fill:#ea3d4e;}.cls-27{fill:#e5b095;}.cls-28{fill:#f5c0a3;}.cls-29{fill:#801d15;}.cls-30{fill:#083c51;}.cls-31{fill:#0f4b6a;}.cls-32{fill:#fff8f5;}.cls-33{fill:#dcdedd;}.cls-34{fill:#8f8f8f;}.cls-35{fill:gray;}.cls-36{fill:#c7efff;}.cls-37{fill:#fefefc;}.cls-38{fill:#292929;}.cls-39{fill:#085780;}.cls-40{fill:#c79e81;}.cls-41{fill:#ba5007;}.cls-42{fill:#ff812a;}.cls-43{opacity:0.32;}.cls-44{fill:#5b5a5a;}.cls-45{fill:#6a6a6a;}.cls-46{fill:#f6c45e;}.cls-47{fill:#a8b454;}.cls-48{fill:#5b5b5b;}.cls-49{fill:#b7b7b7;}.cls-50{fill:#ec008c;}.cls-51{fill:#ef4858;}.cls-52{fill:#a3162a;}.cls-53{fill:#f442b5;}.cls-54{fill:#919191;}.cls-55{fill:#bf047c;}.cls-56,.cls-59{font-size:100px;}.cls-56{font-family:OpenSans-SemiBoldItalic, Open Sans;font-weight:600;font-style:italic;}.cls-57{font-family:OpenSans-SemiBold, Open Sans;font-style:normal;}.cls-58{stroke:#333;stroke-miterlimit:10;stroke-width:17px;}.cls-59{font-family:OpenSans-Bold, Open Sans;font-weight:700;}</style><clipPath id="clip-path"><rect class="cls-1" width="4800" height="2700"/></clipPath></defs><g class="cls-2"><g id="Layer_4" data-name="Layer 4"><g class="cls-3"><polygon class="cls-4" points="4800.01 1527.76 4800.01 2762.21 3757.63 2160.35 3733.69 2146.53 1668.11 953.88 1630.84 932.36 1630.35 932.65 1603.64 948.07 142.88 1791.44 139.74 1793.25 0.01 1873.92 0.01 639.59 362.61 430.24 2896.85 430.24 2893.95 428.57 2896.16 428.57 2899.06 430.24 4799.65 1527.55 4800.01 1527.76"/><polygon class="cls-4" points="362.71 430.18 1366.11 -145.76 1896.15 -145.76 2975.64 476.73 362.71 430.18"/><polygon class="cls-5" points="3795.73 2183.28 0.01 2183.28 1.18 1873.33 1510.87 1000.84 1629.61 932.22 1743.06 997.7 3521.11 2023.96 3795.73 2183.28"/><polygon class="cls-6" points="2989.33 1871.39 311.13 1861.53 1446.5 1209.52 1451.3 1206.76 1623.48 1107.88 2989.33 1871.39"/><polygon class="cls-7" points="4800.01 2762.35 4800.01 2875.71 0.01 2875.71 0.01 2183.28 3795.73 2183.28 3946.11 2269.99 4784.05 2753.15 4800.01 2762.35"/><path class="cls-8" d="M2076.92,1132.39l1212.32,677.36a148.51,148.51,0,0,0,148-1.78l351.25-207.49c26.51-15.66,26.29-54.09-.41-69.43L2593.69,844.39Z"/><polygon class="cls-9" points="4800.01 2560.64 4800.01 2762.21 3798.97 2184.26 3973.53 2083.48 4800.01 2560.64"/><polygon class="cls-4" points="4800.01 2359.05 4800.01 2560.61 3973.61 2083.49 4148.17 1982.71 4800.01 2359.05"/><polygon class="cls-9" points="4800.01 2157.46 4800.01 2359.02 4148.25 1982.72 4322.8 1881.94 4800.01 2157.46"/><polygon class="cls-4" points="4800.01 1955.87 4800.01 2157.42 4322.89 1881.96 4497.44 1781.18 4800.01 1955.87"/><polygon class="cls-9" points="4800.01 1754.27 4800.01 1955.83 4497.52 1781.19 4672.08 1680.41 4800.01 1754.27"/><polygon class="cls-4" points="4800.01 1606.62 4800.01 1754.24 4672.16 1680.43 4800.01 1606.62"/><polygon class="cls-7" points="4800 -145.76 4800.01 1480.14 4799.65 1479.94 1974.17 -142.16 4800 -145.76"/><polygon class="cls-7" points="1280.32 -145.76 211.73 467.44 211.71 467.45 0.01 589.68 -0.01 589.69 -0.01 589.41 0.01 589.4 0.01 -145.76 1280.32 -145.76"/><polygon class="cls-10" points="4799.65 1479.88 4799.65 1527.88 1889.5 -142.16 1886.6 -143.83 1971.28 -143.83 1974.17 -142.16 4799.65 1479.88"/><polygon class="cls-10" points="1366.11 -145.76 362.61 430.24 0.01 639.44 -0.01 639.45 -0.01 589.41 0.01 589.4 211.71 467.45 211.73 467.44 276.31 430.24 1280.32 -145.76 1366.11 -145.76"/><polygon class="cls-11" points="3061.12 1872.71 2987.37 1871.68 1623.48 1107.88 1623.48 1067.03 3061.12 1872.71"/><polygon class="cls-12" points="1623.48 1067.03 1623.48 1107.88 311.13 1861.53 241.69 1860.56 1623.48 1067.03"/><polygon class="cls-9" points="4775.85 1562.48 4751.92 1576.29 1764.4 -145.76 1812.26 -145.76 4775.85 1562.48"/><polygon class="cls-9" points="3795.61 2123.34 3771.68 2137.16 1628.14 899.59 1604.21 885.77 1628.14 871.95 1652.07 885.77 3795.61 2123.34"/><polygon class="cls-9" points="4800.01 1530.89 4800.01 1558.53 3757.63 2160.35 3733.69 2146.53 4800.01 1530.89"/><polygon class="cls-7" points="1476.4 -144.21 0.01 705.99 0.01 678.36 1428.55 -144.21 1476.4 -144.21"/><polygon class="cls-9" points="1652.07 885.77 1628.14 899.59 0.01 1839.59 0.01 1811.96 1604.21 885.77 1628.14 871.95 1652.07 885.77"/><polygon class="cls-9" points="473.21 985.56 415.19 952.06 936.47 651.1 994.49 684.6 473.21 985.56"/><polygon class="cls-9" points="1180.95 568.88 1122.93 535.38 1614.47 250.21 1672.49 283.71 1180.95 568.88"/><polygon class="cls-9" points="274.49 1100.29 0.01 1258.76 0.01 1191.76 216.47 1066.79 274.49 1100.29"/><polygon class="cls-9" points="2446.94 795.6 2504.96 762.11 1983.68 461.14 1925.66 494.64 2446.94 795.6"/><polygon class="cls-9" points="3166.94 1211.3 3224.96 1177.8 2703.68 876.84 2645.66 910.33 3166.94 1211.3"/><polygon class="cls-9" points="3886.94 1626.99 3944.96 1593.49 3423.68 1292.53 3365.66 1326.03 3886.94 1626.99"/><polygon class="cls-7" points="3795.73 2183.28 0.01 2183.28 0.01 2023.96 3521.11 2023.96 3795.73 2183.28"/><g id="truck"><path class="cls-13" d="M2626,1320.49c0-49.66-35.14-110.25-78.4-135.24-22.95-13.25-43.54-13.78-57.91-4v-.09l-23.75,14.45,7.44,8a78.21,78.21,0,0,0-4.13,26.29c0,49.7,35.08,110.26,78.34,135.27,11.84,6.85,23,10.19,33.06,10.61l-4.65,11.47,26.87-16.33h0C2617.08,1362.89,2626,1345.43,2626,1320.49Z"/><path class="cls-13" d="M2461.69,1214.27c0-49.64-35.08-110.24-78.36-135.22-23-13.27-43.56-13.78-57.92-4v-.1l-23.77,14.47,7.39,8a79.21,79.21,0,0,0-4.12,26.32c0,49.7,35.09,110.24,78.41,135.24,11.81,6.82,22.95,10.17,33,10.6l-4.7,11.48,26.9-16.33h0C2452.83,1256.69,2461.69,1239.23,2461.69,1214.27Z"/><path class="cls-14" d="M2357.62,1094.76c-43.32-25-78.41-5-78.42,44.68s35.09,110.23,78.41,135.27,78.36,5,78.37-44.72S2400.92,1119.75,2357.62,1094.76Z"/><path class="cls-15" d="M2357.61,1131.35c-25.65-14.81-46.47-2.91-46.47,26.48s20.81,65.44,46.47,80.27,46.5,2.92,46.5-26.54S2383.3,1146.13,2357.61,1131.35Zm38.06,82a.11.11,0,0,0-.08,0l-1-.62c-1.36,9.71-6.12,16.26-12.87,18.95l1.15,2.77c1.66,4,.93,7.52-1.72,7.91a4.65,4.65,0,0,1-3-.74,12.19,12.19,0,0,1-4.77-5.72l-1.3-3a35.82,35.82,0,0,1-14.48-5,64.14,64.14,0,0,1-14.45-11.69l-.39.39c-1.07,1.26-2.87,1.23-4.66.14a9.87,9.87,0,0,1-3.15-2.88c-2.55-3.44-3.22-7.86-1.55-9.85l.09-.09c-6.79-10.55-11.51-22.59-12.95-34l-1.59-.91a12.31,12.31,0,0,1-5.63-9.67c0-3.58,2.53-5,5.63-3.23l1.59.94c1.46-10.21,6.6-17,13.95-19.36l-1.33-3.61c-1.46-4-.46-7.37,2.28-7.5s6.16,3,7.62,7l1.23,3.44a36.56,36.56,0,0,1,13.31,4.83,63.55,63.55,0,0,1,13.29,10.52l1.27-2c1.46-2.27,4.85-1.46,7.64,1.77s3.72,7.79,2.26,10.12l-1.41,2.07c7.42,10.95,12.58,23.66,14,35.65l1.06.6a12.11,12.11,0,0,1,5.55,9.72C2401.25,1213.71,2398.73,1215.12,2395.67,1213.33Z"/><path class="cls-15" d="M2395.74,1200.42l-14.25-8.37-7.19-18.29a1.16,1.16,0,0,0,.44-.41l7.33-11.25c1.46-2.33.41-6.85-2.26-10.12s-6.18-4-7.64-1.77l-7.32,11.31a3.49,3.49,0,0,0-.15.34l-14.09-8.06-7.54-20.4c-1.46-4-4.88-7.1-7.62-7s-3.74,3.46-2.28,7.5l7.66,20.56-7.08,10-14.79-8.53c-3.1-1.81-5.63-.35-5.63,3.23a12.31,12.31,0,0,0,5.63,9.67l14.79,8.58,7.08,18-7.42,8.4c-1.67,2-1,6.41,1.55,9.85a9.87,9.87,0,0,0,3.15,2.88c1.79,1.09,3.59,1.12,4.66-.14l7.84-8.9,14.4,8.39,8.38,19.89a12.19,12.19,0,0,0,4.77,5.72,4.65,4.65,0,0,0,3,.74c2.65-.39,3.38-3.93,1.72-7.91l-8.28-19.75,6.88-9.7,14.11,8.35a.11.11,0,0,1,.08,0c3.06,1.79,5.58.38,5.62-3.19A12.11,12.11,0,0,0,2395.74,1200.42Z"/><path class="cls-14" d="M2346.73,1178.45c0-6.92,4.85-9.66,10.88-6.21s10.92,11.85,10.92,18.77-4.91,9.65-10.92,6.15S2346.73,1185.33,2346.73,1178.45Z"/><path class="cls-14" d="M2521.86,1201c-43.28-25-78.4-5-78.41,44.73s35.12,110.2,78.4,135.23,78.43,4.93,78.43-44.69S2565.18,1225.94,2521.86,1201Z"/><path class="cls-15" d="M2521.86,1237.54c-25.63-14.81-46.49-2.91-46.5,26.5s20.86,65.43,46.49,80.29,46.53,2.89,46.54-26.6S2547.53,1252.34,2521.86,1237.54Zm38.1,82s-.07-.06-.1,0l-1-.62c-1.4,9.74-6.11,16.28-12.9,18.93l1.18,2.81c1.66,4,.9,7.45-1.72,7.86a4.65,4.65,0,0,1-3-.69,12,12,0,0,1-4.78-5.76l-1.31-3a36.55,36.55,0,0,1-14.48-5,65.36,65.36,0,0,1-14.45-11.72l-.34.38c-1.07,1.29-2.87,1.24-4.68.18a9.48,9.48,0,0,1-3.13-2.91c-2.57-3.47-3.3-7.87-1.58-9.85l.13-.1c-6.85-10.55-11.6-22.58-13-34l-1.65-.89a12.57,12.57,0,0,1-5.58-9.71c0-3.59,2.52-5,5.58-3.25l1.65.95c1.43-10.24,6.57-17,14-19.36l-1.39-3.65c-1.48-4-.45-7.33,2.29-7.49s6.13,3,7.61,7l1.29,3.47a35.88,35.88,0,0,1,13.26,4.81,64.4,64.4,0,0,1,13.3,10.51l1.25-2c1.49-2.29,4.91-1.45,7.64,1.79s3.72,7.77,2.31,10.09l-1.41,2.09c7.4,10.91,12.52,23.67,14,35.63l1.1.61a12.33,12.33,0,0,1,5.58,9.76C2565.54,1319.91,2563,1321.31,2560,1319.53Z"/><path class="cls-15" d="M2560,1306.62l-14.26-8.39-7.15-18.29a4.74,4.74,0,0,0,.41-.39l7.35-11.26c1.41-2.32.39-6.81-2.31-10.09s-6.15-4.08-7.64-1.79l-7.29,11.3c-.08.1-.1.25-.2.34l-14-8.1-7.57-20.35c-1.48-4-4.9-7.06-7.61-7s-3.77,3.47-2.29,7.49l7.67,20.61-7.08,10-14.8-8.55c-3.06-1.77-5.58-.34-5.58,3.25a12.57,12.57,0,0,0,5.58,9.71l14.8,8.53,7.07,18.05-7.39,8.39c-1.72,2-1,6.38,1.58,9.85a9.48,9.48,0,0,0,3.13,2.91c1.81,1.06,3.61,1.11,4.68-.18l7.81-8.87,14.4,8.39,8.37,19.85a12,12,0,0,0,4.78,5.76,4.65,4.65,0,0,0,3,.69c2.62-.41,3.38-3.91,1.72-7.86l-8.28-19.77,6.88-9.7,14.11,8.35s.1,0,.1,0c3.06,1.78,5.58.38,5.63-3.15A12.33,12.33,0,0,0,2560,1306.62Z"/><path class="cls-14" d="M2511,1284.64c0-6.89,4.87-9.68,10.86-6.21s10.86,11.87,10.86,18.78-4.87,9.65-10.87,6.18S2511,1291.53,2511,1284.64Z"/><polygon class="cls-16" points="2227.18 671.62 2701.57 446 3527.03 896.24 3008.53 1140.14 2227.18 671.62"/><polygon class="cls-17" points="2895.7 1461.44 2099.78 1017.82 2097.86 861.86 2227.18 671.62 3008.53 1119.34 2895.7 1461.44"/><polygon id="front" class="cls-18" points="3008.51 1525.73 3527.01 1232.38 3527.03 896.24 3056.71 1138.39 3008.51 1525.73"/><path class="cls-13" d="M3325.64,1676.26c0-48.08-34-106.73-75.93-130.94-22.21-12.85-42.16-13.32-56.06-3.86l-.05-.09-23,14,7.23,7.73a75.14,75.14,0,0,0-4.07,25.48c0,48.1,34,106.72,75.9,130.93,11.48,6.6,22.31,9.88,32,10.29l-4.53,11.08,26-15.76h0C3317,1717.34,3325.64,1700.43,3325.64,1676.26Z"/><path class="cls-14" d="M3224.86,1560.56c-42-24.24-75.92-4.87-75.92,43.22s34,106.71,75.91,131,75.87,4.83,75.87-43.27S3266.75,1584.75,3224.86,1560.56Z"/><path class="cls-15" d="M3224.85,1595.94c-24.86-14.3-45-2.84-45,25.65s20.18,63.38,45,77.71,45,2.81,45-25.65S3249.65,1610.27,3224.85,1595.94Zm36.84,79.36h-.05l-.95-.57c-1.41,9.4-6,15.69-12.5,18.25l1.11,2.7c1.64,3.88.86,7.3-1.67,7.7a5,5,0,0,1-2.94-.71,12.38,12.38,0,0,1-4.58-5.54l-1.24-3a34.77,34.77,0,0,1-14-4.86,62.26,62.26,0,0,1-14-11.32l-.3.4c-1.08,1.2-2.83,1.15-4.57.17a11,11,0,0,1-3-2.82c-2.44-3.34-3.12-7.65-1.48-9.54l.12-.09c-6.65-10.24-11.22-21.86-12.59-32.95l-1.52-.86a12,12,0,0,1-5.5-9.38c0-3.45,2.47-4.86,5.49-3.12l1.53.92c1.39-10,6.39-16.47,13.56-18.76l-1.36-3.51c-1.42-3.92-.43-7.16,2.22-7.25s6,2.89,7.38,6.78l1.19,3.29a36.69,36.69,0,0,1,12.89,4.67,63,63,0,0,1,12.87,10.22l1.22-1.9c1.41-2.23,4.73-1.43,7.35,1.69s3.64,7.59,2.21,9.79l-1.31,2c7.16,10.62,12.14,22.92,13.55,34.5l1,.65a11.93,11.93,0,0,1,5.45,9.42C3267.14,1675.7,3264.68,1677,3261.69,1675.3Z"/><path class="cls-15" d="M3261.72,1662.87l-13.78-8.17-6.88-17.68c.09-.14.23-.23.38-.41l7.06-10.89c1.43-2.2.45-6.6-2.21-9.79s-5.94-3.92-7.35-1.69l-7.08,10.9a3.31,3.31,0,0,0-.19.38l-13.58-7.83-7.32-19.73c-1.41-3.89-4.75-6.88-7.38-6.78s-3.64,3.33-2.22,7.25l7.43,19.91-6.85,9.68-14.31-8.24c-3-1.74-5.49-.33-5.49,3.12a12,12,0,0,0,5.5,9.38l14.29,8.26,6.81,17.5-7.11,8.14c-1.64,1.89-1,6.2,1.48,9.54a11,11,0,0,0,3,2.82c1.74,1,3.49,1,4.57-.17l7.51-8.59,14,8.12,8.07,19.23a12.38,12.38,0,0,0,4.58,5.54,5,5,0,0,0,2.94.71c2.53-.4,3.31-3.82,1.67-7.7l-8-19.12,6.67-9.34,13.7,8.08h.05c3,1.71,5.45.4,5.48-3A11.93,11.93,0,0,0,3261.72,1662.87Z"/><path class="cls-14" d="M3214.31,1641.57c0-6.71,4.72-9.35,10.54-6s10.55,11.48,10.55,18.17-4.74,9.35-10.55,6S3214.32,1648.24,3214.31,1641.57Z"/><polygon class="cls-19" points="3433.1 1751.14 3762.02 1551.55 3762.03 1331.2 3730.49 1119.29 3401.9 1301.92 3337.82 1695.19 3433.1 1751.14"/><path class="cls-20" d="M3401.9,1301.92l-298.4-171.63-8.79,424.15,55.59,32.17s15.17-57.67,74.09-40.43c16.72,5.8,40.55,20.65,67.07,57.52h0c14.25,20.9,26.56,48,29.46,81.43l112.18,66,0-236.67Z"/><polygon class="cls-19" points="3103.5 1130.29 3421.08 945.07 3730.49 1119.29 3401.9 1301.92 3103.5 1130.29"/><polygon class="cls-9" points="3748.72 1323.4 3447.02 1492.34 3445.58 1483.76 3417.07 1307.79 3715.17 1143.05 3722.69 1138.83 3748.72 1323.4"/><polygon class="cls-4" points="3739.82 1318.87 3445.58 1483.76 3417.07 1307.79 3715.17 1143.05 3739.82 1318.87"/><polygon class="cls-9" points="3402.38 1482.11 3253.08 1397.44 3253.09 1240.52 3261.8 1245.81 3380.85 1317.28 3402.38 1472.99 3402.38 1482.11"/><polygon class="cls-4" points="3402.38 1472.99 3261.78 1392.68 3261.8 1245.81 3380.85 1317.28 3402.38 1472.99"/><polygon class="cls-9" points="3240.44 1232.4 3240.43 1390.33 3127.32 1327.88 3127.34 1168.59 3134.36 1172.48 3240.44 1232.4"/><polygon class="cls-4" points="3240.44 1232.4 3240.43 1381.88 3134.35 1323.36 3134.36 1172.48 3240.44 1232.4"/><polygon class="cls-10" points="3699.79 1470.22 3705.57 1467.04 3699.8 1463.76 3528.31 1557.57 3528.3 1650.35 3534.05 1653.64 3534.05 1647.23 3699.78 1557.09 3699.79 1470.22"/><polygon class="cls-4" points="3534.06 1560.83 3534.05 1653.64 3705.57 1560.38 3705.57 1467.04 3534.06 1560.83"/><path class="cls-21" d="M3542.14,1566.19a2,2,0,0,0,1-.24l154.68-83.34a2,2,0,1,0-1.91-3.55l-154.68,83.34a2,2,0,0,0,.95,3.79Z"/><path class="cls-21" d="M3542.14,1575.61a1.94,1.94,0,0,0,1-.25L3698,1491.9a2,2,0,0,0-1.92-3.55l-154.93,83.46a2,2,0,0,0,.95,3.8Z"/><path class="cls-21" d="M3542.14,1585a2,2,0,0,0,1-.24l155.18-83.6a2,2,0,0,0-1.91-3.55l-155.18,83.6a2,2,0,0,0,.95,3.79Z"/><path class="cls-21" d="M3542.14,1594.44a2,2,0,0,0,1-.25l155.44-83.72a2,2,0,0,0-1.91-3.55l-155.45,83.72a2,2,0,0,0,1,3.8Z"/><path class="cls-21" d="M3542.14,1603.85a2.07,2.07,0,0,0,1-.24l155.69-83.86a2,2,0,0,0-1.91-3.55l-155.7,83.86a2,2,0,0,0,1,3.79Z"/><path class="cls-21" d="M3542.14,1613.27a2,2,0,0,0,1-.25l156-84a2,2,0,0,0-1.92-3.55l-156,84a2,2,0,0,0,1,3.8Z"/><path class="cls-21" d="M3542.14,1622.68a2,2,0,0,0,1-.24l156.21-84.11a2,2,0,0,0-1.91-3.55l-156.21,84.11a2,2,0,0,0,1,3.79Z"/><path class="cls-21" d="M3542.14,1632.1a1.93,1.93,0,0,0,1-.25l156.46-84.24a2,2,0,1,0-1.91-3.55l-156.46,84.24a2,2,0,0,0,1,3.8Z"/><path class="cls-21" d="M3542.14,1641.51a2,2,0,0,0,1-.24l156.71-84.37a2,2,0,1,0-1.91-3.55l-156.71,84.37a2,2,0,0,0,1,3.79Z"/><polygon class="cls-10" points="3517.18 1602.35 3521.05 1600.05 3517.18 1598.12 3472.61 1624.12 3472.6 1678.98 3476.5 1680.92 3476.5 1676.56 3517.17 1651.54 3517.18 1602.35"/><polygon class="cls-4" points="3476.5 1626.09 3476.5 1680.92 3521.05 1653.52 3521.05 1600.05 3476.5 1626.09"/><polygon class="cls-10" points="3750.41 1473.25 3754.35 1470.99 3750.41 1469.01 3705.85 1495.11 3705.85 1549.9 3709.79 1551.85 3709.79 1547.49 3750.4 1522.51 3750.41 1473.25"/><polygon class="cls-4" points="3709.79 1497.04 3709.79 1551.85 3754.35 1524.45 3754.35 1470.99 3709.79 1497.04"/><path class="cls-22" d="M3172,1554.62l5-14.78-42.26-14.1-20.15,58.38,37.21-2.43C3159.11,1566.63,3163.54,1561,3172,1554.62Z"/><polygon class="cls-23" points="3134.75 1532.79 3187.09 1491.53 3334.04 1576.09 3284.7 1618.36 3134.75 1532.79"/><polygon class="cls-20" points="3334.05 1569.04 3366.24 1620.37 3366.24 1691.37 3324.96 1725.05 3284.71 1611.3 3334.05 1569.04"/><polygon class="cls-24" points="3134.76 1525.74 3187.09 1484.49 3334.05 1569.04 3284.71 1611.3 3134.76 1525.74"/><polygon class="cls-23" points="3134.75 1532.79 3134.76 1525.74 3160.16 1540.25 3134.75 1532.79"/><polygon class="cls-23" points="3280.73 1616.08 3316.91 1722.36 3324.96 1725.05 3284.71 1611.3 3280.73 1616.08"/><polygon class="cls-23" points="3138.22 1533.82 3120.74 1583.73 3114.61 1584.12 3134.76 1525.74 3138.22 1533.82"/><polygon class="cls-25" points="3032.22 1069.48 3500.09 794.06 3612.76 861.96 3152.25 1138.4 3032.22 1069.48"/><polygon class="cls-16" points="3152.25 1138.4 3152.25 1159.55 3612.76 882.79 3612.76 861.96 3152.25 1138.4"/><polygon class="cls-17" points="3152.25 1159.55 3099.17 1144.43 3008.51 1525.73 2856.64 1439.18 3032.22 1069.48 3152.25 1138.4 3152.25 1159.55"/><polygon class="cls-16" points="2540.68 1218.71 2638.67 985.19 2654.67 993.2 2565.83 1206.13 2540.68 1218.71"/><polygon class="cls-26" points="2540.68 1218.71 2695.81 1307.71 2695.81 1279.95 2565.83 1206.13 2540.68 1218.71"/><polygon class="cls-16" points="2379.84 1125.2 2477.82 891.69 2493.83 899.7 2404.98 1112.63 2379.84 1125.2"/><polygon class="cls-26" points="2379.84 1125.2 2534.96 1214.21 2534.97 1186.45 2404.98 1112.63 2379.84 1125.2"/><polygon class="cls-16" points="2701.52 1312.86 2799.52 1079.34 2815.51 1087.36 2726.66 1300.28 2701.52 1312.86"/><polygon class="cls-26" points="2701.52 1312.86 2856.65 1401.86 2856.65 1374.1 2726.66 1300.28 2701.52 1312.86"/><polygon class="cls-16" points="2253.29 721.44 2253.28 1034.52 2253.28 1058.65 2285.93 1043.14 2285.96 739.65 2253.29 721.44"/><polygon class="cls-26" points="2998.66 1140.13 2253.29 721.44 2253.29 735.72 2991.99 1154.19 2998.66 1140.13"/><polygon class="cls-26" points="2253.28 1058.65 2365.95 1120.71 2374.93 1093.77 2285.93 1043.14 2253.28 1058.65"/><polygon class="cls-26" points="2701.57 446 2708.36 945.02 3008.53 1117.49 3032.22 1069.48 3423.93 840.01 2701.57 446"/><path class="cls-17" d="M2291.51,1114.32l-15.44-4.34-17.34,59.25H2283C2279,1155.6,2279.93,1127.59,2291.51,1114.32Z"/><polygon class="cls-25" points="2279.93 1117.86 2264.85 1168.55 2258.74 1169.23 2276.07 1109.97 2279.93 1117.86"/><polygon class="cls-25" points="2335.63 1072.75 2284.15 1114.45 2276.07 1109.97 2278.84 1117.87 2279.98 1117.82 2279.93 1117.86 2568.08 1279.26 2617.03 1231.68 2335.63 1072.75"/><polygon class="cls-26" points="2276.07 1109.97 2335.63 1072.75 2619.09 1229.74 2572.21 1275.24 2276.07 1109.97"/><polygon class="cls-17" points="2656.05 1329.11 2653.95 1284.94 2619.09 1229.74 2571.82 1274.3 2609.73 1367.15 2656.05 1329.11"/><polygon class="cls-25" points="2609.73 1367.15 2609.73 1367.15 2572.21 1275.24 2568.08 1279.26 2602.29 1366.03 2609.73 1367.15"/></g><g id="sand"><path class="cls-6" d="M2364.31,753.86l355.92,213.39,267.57,160.46,18.47,11.07,30.89-72.22,230.36-134.93c-8.63-12.56-18.36-25.41-24.77-41.94-9.39-23.48-11.93-48-22.12-71.57-17.55-40.5-27.31-83.34-48.09-122.14-17.85-33.32-41.88-61.14-69.62-85l0,0a457.44,457.44,0,0,0-61-43.78q-10.47-6.35-21.22-12.33c-18-10-37.88-22.86-57.83-32.72a177.1,177.1,0,0,0-28.34-11.48c-48.24-14.17-99.65-11.86-150.58-1-69.71,14.89-138.58,45.84-197.23,72.58-43.58,20.66-114.7,57.35-151.41,87.17C2404.32,694.58,2380.12,723.28,2364.31,753.86Z"/><path class="cls-12" d="M2364.31,753.86l143.88,86.27h0l124.1,74.41c-64.82-43.22-72-89.34-66.52-120.46,4.76-27.52,29.52-44.56,44.14-52.39,16-7.59,32-14.62,46.7-21.68a3.06,3.06,0,0,1,.51-1.44c1.41-2.21,5.62-3.18,8.37-2.95,4.81-2.43,9.42-4.87,13.77-7.36,31.39-19.09,50-44.27,66.93-69.84a8.25,8.25,0,0,1-2.22,0,4,4,0,0,1-2.57-1.62,2.92,2.92,0,0,1-.13-3.37c1.45-2.26,6.15-3.09,8.48-2.51.39.09.77.22,1.15.34l3.37-5.16a4.49,4.49,0,0,1-2.72-1.75,3.24,3.24,0,0,1-.12-3.75c1.42-2.22,5.65-3.2,8.41-3,15.46-23.23,31.67-46.2,57.41-58.55,22.21-10.66,47.12-15,71.35-18.14,52.51-6.78,106.22,1.58,153.28,26.24q-10.47-6.35-21.22-12.33c-18-10-37.88-22.86-57.83-32.72a177.1,177.1,0,0,0-28.34-11.48c-1.67-.49-3.34-1-5-1.41-.5-.14-1-.26-1.51-.39-1.19-.3-2.37-.61-3.56-.9l-1.74-.42c-1.13-.27-2.29-.54-3.42-.78l-1.72-.38c-1.21-.26-2.43-.51-3.65-.75l-1.44-.28c-1.56-.3-3.12-.57-4.68-.85l-.41-.07c-1.78-.3-3.55-.58-5.33-.84l-.57-.08c-1.54-.23-3.07-.42-4.6-.62l-1.32-.15q-2-.25-3.93-.45c-.49-.06-1-.09-1.46-.16l-3.95-.35c-.43,0-.87-.08-1.3-.12-1.52-.12-3-.22-4.57-.33a4.58,4.58,0,0,1-.64,0c-3.59-.21-7.2-.36-10.81-.44h-.82c-1.49,0-3,0-4.49-.06h-1.19c-1.42,0-2.83,0-4.24,0H2857l-4.56.12-.76,0q-5.51.18-11,.56h-.05c-1.76.11-3.53.24-5.28.4l-.91.07c-1.52.13-3,.28-4.55.42l-1,.1c-1.57.16-3.11.32-4.67.51l-.76.08q-8.29,1-16.63,2.3l-.32,0c-1.71.27-3.42.56-5.12.86-.24,0-.47.08-.7.12-1.65.28-3.3.59-4.94.89-.19,0-.37.08-.55.1-3.74.7-7.46,1.45-11.19,2.24-69.72,14.89-138.58,45.84-197.23,72.58-43.58,20.66-114.7,57.35-151.41,87.17C2404.32,694.58,2380.11,723.28,2364.31,753.86ZM2700.64,671a2.91,2.91,0,0,1,2.66-.78,3.84,3.84,0,0,1,1.81,1c.44.46.76,1.68-.29,1.66-.54,0-1-.41-1.63-.39a9.76,9.76,0,0,1-1.71.11,1.15,1.15,0,0,1-.8-.5A.91.91,0,0,1,2700.64,671Zm-4.88,14.46a2.14,2.14,0,0,1,1.91-.57,3,3,0,0,1,1.32.7c.32.33.54,1.21-.22,1.2-.39,0-.75-.29-1.17-.29a7.2,7.2,0,0,1-1.23.09.94.94,0,0,1-.59-.37A.68.68,0,0,1,2695.76,685.49Zm-48,24.45c-.5,0-1-.36-1.51-.35a9.25,9.25,0,0,1-1.58.1,1.13,1.13,0,0,1-.75-.46.87.87,0,0,1-.05-1,2.75,2.75,0,0,1,2.49-.73,3.61,3.61,0,0,1,1.68.89C2648.47,708.83,2648.77,710,2647.78,709.94Zm-12,7.15c1-1.54,4.22-2.11,5.82-1.71a8.54,8.54,0,0,1,4,2.1c1,1,1.67,3.69-.65,3.62-1.18,0-2.26-.87-3.55-.85s-2.44.46-3.73.27a2.74,2.74,0,0,1-1.78-1.11A2,2,0,0,1,2635.8,717.09Zm-17-1.54a3.14,3.14,0,0,1,2.86-.85,4.25,4.25,0,0,1,1.95,1c.49.5.82,1.82-.32,1.78-.57,0-1.11-.43-1.75-.41a12.42,12.42,0,0,1-1.83.13,1.38,1.38,0,0,1-.87-.55A1,1,0,0,1,2618.81,715.55Zm-10.9,10.12c.73-1.13,3.08-1.55,4.26-1.25a6.06,6.06,0,0,1,2.89,1.53c.72.74,1.22,2.69-.48,2.64-.86,0-1.65-.62-2.59-.61a16.51,16.51,0,0,1-2.72.19,2,2,0,0,1-1.29-.81A1.47,1.47,0,0,1,2607.91,725.67Zm24.39,188.86,23.95,14.36C2647.5,924.16,2639.55,919.37,2632.3,914.53Z"/></g><ellipse class="cls-8" cx="3062.29" cy="2095.68" rx="114.48" ry="66.09" transform="translate(-13.12 19.31) rotate(-0.36)"/><path class="cls-4" d="M3091.57,2089.16a28.71,28.71,0,0,1,1.66,2.56c.24.42.82,2,1.47,1a2.26,2.26,0,0,0,.11-1.21,18,18,0,0,1,2.5,8.11,18.31,18.31,0,0,1-.44,5.32,11,11,0,0,1-1.74,4.53A7,7,0,0,1,3091,2112a10.17,10.17,0,0,1-5.89-.85,17.34,17.34,0,0,1-8.85-8.5,31.6,31.6,0,0,0-2.18-4.54c-1.59-2.32-4.22-3.65-6.42-5.39a19.84,19.84,0,0,1-6.15-8.3,14,14,0,0,1-1-6.35,9.72,9.72,0,0,1,1.41-4.49c-.55.85.68,2.46,1.51,2.55a6.76,6.76,0,0,0,1.6-.42,10.24,10.24,0,0,1,2.28-.13c2.9.12,5.31,1.18,8,2.09a40.88,40.88,0,0,1,8.07,3.55A28.72,28.72,0,0,1,3091.57,2089.16Z"/><path class="cls-14" d="M3067.29,2070.57c2.9.12,5.31,1.17,8,2.09a40.88,40.88,0,0,1,8.07,3.55,28.56,28.56,0,0,1,8.22,7.95c3.33,4.64,7.2,13.08,4.58,18.79a7.34,7.34,0,0,1-5.13,4,10.25,10.25,0,0,1-5.89-.85,17.38,17.38,0,0,1-8.85-8.5,32.24,32.24,0,0,0-2.18-4.55c-1.59-2.31-4.22-3.64-6.42-5.38a19.84,19.84,0,0,1-6.15-8.3c-.93-2.38-1.28-5.38.48-7.24C3063.31,2070.79,3065.39,2070.48,3067.29,2070.57Z"/><path class="cls-27" d="M3104.13,2042.72c-1.51,9.07-4.55,17.78-6.82,26.66a88.11,88.11,0,0,0-2.5,13.46,51,51,0,0,0-.22,6.77c0,.8.29,2.06-.18,2.78a3.34,3.34,0,0,1-2.3,1.08,7.7,7.7,0,0,1-4.38-.88,13.14,13.14,0,0,1-3.57-2.77,40.69,40.69,0,0,1-3.22-4.06,8.31,8.31,0,0,1-1.55-3.27,4,4,0,0,1,0-1.95c.27-.67.79-.43,1.31-.76s.49-1.59.51-2.2c0-1,.26-7.29.32-9.37.13-4.16.19-8.33,0-12.5-.16-2.86-.45-5.72-.74-8.58l-4.46-43.51c3.75,1,7.59-1.62,9.79-4.8,1.11-1.6,2-3.45,3.67-4.49,2.79-1.76,6.3.16,8.11,2.46,1.56,2,2.12,5.08,2.94,7.42a78.77,78.77,0,0,1,4.35,24.33A76.48,76.48,0,0,1,3104.13,2042.72Z"/><path class="cls-4" d="M3075.59,2115.88a12,12,0,0,1-2.18,6.38c-1.57,1.95-4.24,2.71-6.74,2.68a14.21,14.21,0,0,1-5-1,13,13,0,0,1-4.47-2.66,15.07,15.07,0,0,0-5.44-3.11,60,60,0,0,0-8.33-1.81,42.16,42.16,0,0,1-9.66-2.82,21.38,21.38,0,0,1-8-6,13.67,13.67,0,0,1-2.71-6.35,16.34,16.34,0,0,1,.28-7.33,4.49,4.49,0,0,1,.55-1.27c.06-.08,1-.81,1-.63,0,.4-.16.62.06,1,.89,1.7,2.34,1,3.8.84a20.58,20.58,0,0,1,5.07.44,73.39,73.39,0,0,0,15.68.33c2.58-.14,5.15-.33,7.73-.45a10.78,10.78,0,0,0,2.79,0c.59-.23.81-1.11,1.56-1.07a1.36,1.36,0,0,1,.71.37,50.25,50.25,0,0,1,5.71,5.59,42,42,0,0,1,2.9,3.74c.37.54.73,1.51,1.27,1.89s1-.11.85-.74a18.23,18.23,0,0,1,2.67,9.32A25.59,25.59,0,0,1,3075.59,2115.88Z"/><path class="cls-14" d="M3075.39,2110.72a10,10,0,0,1-2,6.4c-1.57,2-4.24,2.7-6.74,2.68a14,14,0,0,1-5-1,12.66,12.66,0,0,1-4.47-2.66,15,15,0,0,0-5.44-3.1,60,60,0,0,0-8.33-1.81,42.66,42.66,0,0,1-9.66-2.82,21.49,21.49,0,0,1-8-6,11.64,11.64,0,0,1-2.31-8.09,6.23,6.23,0,0,1,2.61-4.76c2.23-1.43,5.13-.83,7.75-.42a74,74,0,0,0,15.68.33c2.58-.15,5.15-.33,7.73-.45a10.78,10.78,0,0,0,2.79,0c.59-.23.81-1.12,1.56-1.07a1.23,1.23,0,0,1,.71.37,49.42,49.42,0,0,1,5.71,5.59,31.68,31.68,0,0,1,6.16,10A20.88,20.88,0,0,1,3075.39,2110.72Z"/><path class="cls-28" d="M3074.17,2026.55c.53,4.77,1.65,9.45,2.25,14.2a64.8,64.8,0,0,1-.4,18.86c-1.16,6.91-3.44,13.61-4.43,20.55a76.75,76.75,0,0,0-.56,13.64c.07,1.67,0,3.34.14,5,.09,1,1.2,3.48.26,4.21a2.58,2.58,0,0,1-1.45.41,28.46,28.46,0,0,1-16.15-3.58,16.65,16.65,0,0,1-5.13-4.22,3.65,3.65,0,0,1-.91-3.12c.36-1.12,1.67-1.3,2.53-2,2.41-2,2.76-5.45,2.72-8.55-.18-13.21-4.08-26.19-4-39.4.09-10.84,2.88-22-.17-32.36a14.09,14.09,0,0,0,14,.84c2.21-1.14,4.16-2.88,6.59-3.35a4.88,4.88,0,0,1,4.68,1.77c1,1.36.49,2.36.15,3.86C3073.4,2017.53,3073.71,2022.3,3074.17,2026.55Z"/><path class="cls-29" d="M3111,1911.9a174.42,174.42,0,0,1-2.19,22.32q-4.21,29.73-8.41,59.47a25.66,25.66,0,0,1-2,7.86,20.52,20.52,0,0,1-6.35,7c-15.61,11.72-37.35,13.24-55.89,7.1-3-1-6-2.24-7.94-4.68-2.58-3.26-2.6-7.78-2.51-11.93l1.1-48.64c.27-11.78.53-23.58,2-35.27A167.88,167.88,0,0,1,3044,1864c3.71,5.43,10.65,7.47,17.11,8.71,7.3,1.4,15.54,2.07,21.53-2.34,5.43-4,11.88-10.63,17.17-2.58,5,7.64,7.91,17.59,9.62,26.47A87.77,87.77,0,0,1,3111,1911.9Z"/><path class="cls-27" d="M3046.8,1786.2a12.58,12.58,0,0,0-5.94-4.84c-2.36-1.06-4.9-1.65-7.32-2.57-1.9-.72-3.72-1.64-5.58-2.45a5.27,5.27,0,0,0-2-.54,2,2,0,0,0-1.75.84,1.79,1.79,0,0,0-2.69,1.84,2.12,2.12,0,0,0-1.89,3.28,2.35,2.35,0,0,0-1.11,2.8,5.82,5.82,0,0,0,1.91,2.63c3.67,3.3,8.19,5.5,12.16,8.45,2.56,1.89,5,4.16,8.07,5a3.79,3.79,0,0,0,3.42-.42,4.86,4.86,0,0,0,1.24-2.87,26.68,26.68,0,0,1,.85-3.53,3.11,3.11,0,0,1,.69-1.21c.21-.2.45-.35.65-.56a2.52,2.52,0,0,0,.51-1.87,9,9,0,0,0-1-3.5Z"/><path class="cls-30" d="M3050.41,1791.28a14.53,14.53,0,0,0-1.73-1.21,4.14,4.14,0,0,0-2.46.12,9.59,9.59,0,0,0-5.34,3.74,9.27,9.27,0,0,0-1.21,2.39c-.36,1.06-1.11,3.55,0,4.3,1.54,1.07,3.12,2.09,4.67,3.14l9.36,6.3a9,9,0,0,1,2.19-4.86,15.57,15.57,0,0,1,4.22-3.34,13.07,13.07,0,0,0,2.42-1.68c.53-.48,1.54-1,1.73-1.7C3061,1797.13,3051.71,1792.1,3050.41,1791.28Z"/><path class="cls-31" d="M3039.91,1871.94c0-.15-.06-.3-.1-.45a271.38,271.38,0,0,1-5.47-34.47q-.53-5.74-.82-11.49c-.26-5.07-.11-10.81,3.59-14.29a16.68,16.68,0,0,1,4.75-2.85c6.94-3.09,14.29-5.36,20.79-9.29,2.8-1.69,5.41-3.67,8.21-5.38a48.26,48.26,0,0,1,17.8-6.44c6-.91,12.47-1.62,18.49-.27a15.28,15.28,0,0,1,8.73,5,18.45,18.45,0,0,1,3.17,7.43c3.48,15.14.42,31.29-5,45.62a102.45,102.45,0,0,1-7.39,15.46c-1.55,2.67-2.66,5.59-4.39,8.14a18,18,0,0,1-6.55,5.7,58.19,58.19,0,0,1-43.58,5.59,28.54,28.54,0,0,1-7-2.8C3043.29,1876.11,3040.37,1874.15,3039.91,1871.94Z"/><path class="cls-31" d="M3117.14,1793.05c2.78,3.89,4.18,8.94,4.74,13.44a56.82,56.82,0,0,1-2.19,24.74c-3.4,10.85-5.11,22.47-13.71,30.63a46.91,46.91,0,0,1-14,9c-8.09,3.42-16.88,4.89-25.65,5.52-9.76.71-20.05.29-28.58-4.53-1.69-1-.89-3.49-.8-5.06.14-2.27.25-4.54.35-6.81q.9-20,.05-40a17.07,17.07,0,0,0-.3-4.29c-.12-.4-1.67-3-2.33-2.47l3.65-2.87a34.65,34.65,0,0,1,8.44-4.83l19.62-7.93a7.46,7.46,0,0,1,2.6-.71,9.36,9.36,0,0,1,2.93.62c5.33,1.58,11.09.82,16.44-.7,2.94-.84,6-2,8.2-4.26.48-.5,3.95-6.6,1.84-6.53,5.11-.15,10.53.15,14.75,3A16,16,0,0,1,3117.14,1793.05Z"/><path class="cls-28" d="M3069,1794.48c-.27,2-2.21,4.34-1.18,6.44.92,1.89,3.48,1.79,5.24,1.76a41.28,41.28,0,0,0,6.28-.66,82.19,82.19,0,0,0,12.44-3.17,25.49,25.49,0,0,0,7.81-3.88,7.7,7.7,0,0,0,2.56-2.94c.41-1,1.08-2.72.27-3.72-.66-.82-1.8-1.08-2.5-1.87a9.92,9.92,0,0,1-1.78-3,10.62,10.62,0,0,1-.33-6.68c1.72-6.91,4.84-13.49,5.71-20.55a47.33,47.33,0,0,0,0-10.44,28.07,28.07,0,0,0-2.5-8.85,24.07,24.07,0,0,0-4.44-6.89,22.77,22.77,0,0,0-13.1-6.22,32.42,32.42,0,0,0-13.08.71,24.7,24.7,0,0,0-6.55,2.71,20,20,0,0,0-7.72,8.81c-1.8,4-1.78,8.89-1.18,13.17a41.62,41.62,0,0,1,.74,4.28,32.89,32.89,0,0,1-.72,5.19c-.57,4.68,1.41,9.26,3.35,13.56,1.09,2.41,2.26,4.93,4.42,6.47,1.4,1,3.08,1.55,4.42,2.65s1.38,2.71,1.65,4.24A29.58,29.58,0,0,1,3069,1794.48Z"/><path class="cls-32" d="M3100.75,1783.37c1.14.38,1.5,2.54,2,3.44a9.94,9.94,0,0,1,1.49,5.06,8.17,8.17,0,0,1-2,4.42,21.6,21.6,0,0,1-9.52,6.41,35,35,0,0,1-27.55-1.5,11,11,0,0,0-2.73-1.13,3.11,3.11,0,0,0-2.77.62c-.13-2.11-.32-4.23-.57-6.33a6.15,6.15,0,0,1,4.59-2.07,22.9,22.9,0,0,1,5.14.59,59.23,59.23,0,0,0,17.78.44c3.24-.4,6.58-1.14,9.09-3.22a7.27,7.27,0,0,0,1.85-2.17c.61-1.14,1.14-4.79,3-4.61Z"/><path class="cls-12" d="M3095.57,1787.89a45.78,45.78,0,0,1-16.58,3.29c-7.4,0-14.68-1.76-21.83-3.66,4.7-4.42,7.56-10.48,9.33-16.69a23.83,23.83,0,0,0,.91-10.7c-.35-1.85-1.2-3.81-2.91-4.6-2.08-1-4.68.31-5.84,2.29-.17.28-.34.6-.66.7s-.82-.2-1.07-.55c-.92-1.27-.88-3-1-4.52-.34-4.23-3.09-7.85-3.38-12.08a16.43,16.43,0,0,1,4.24-11.82,24.08,24.08,0,0,1,12.78-7.54,36.57,36.57,0,0,1,6.9-1c15.53-.66,26.3,10.23,31.25,24.08a145.16,145.16,0,0,1,7.35,27.17,2.72,2.72,0,0,1-.91,2.83A50.9,50.9,0,0,1,3095.57,1787.89Z"/><path class="cls-4" d="M3030.76,1764.13l-1.53-.79h0a2.68,2.68,0,0,0-2.52.3l-42.89,24.79-.32.18a5.69,5.69,0,0,0-2.8,5v.09l2.89,24a2,2,0,0,0,.95,1.6h0l1.5.77,1.66-3.34,24.31-14.06,3.18-1.84,13.33-7.69a5.7,5.7,0,0,0,2.8-5l-1.44-11.94-1.21-10,.85.43Z"/><path class="cls-33" d="M3030.76,1764.13l-1.53-.79h0a2.68,2.68,0,0,0-2.52.3l-42.89,24.79,30,15.24,16.06-27.43-1.21-10,.85.43Z"/><path class="cls-34" d="M2987.6,1790.36l-3.79-1.93-.32.18a5.69,5.69,0,0,0-2.8,5v.09l4.16,2.13Z"/><path class="cls-35" d="M2982.15,1794.41l2.91,24.12c.21,1.77,1.81,2.37,3.57,1.35l43.21-25a5.72,5.72,0,0,0,2.81-5l-2.91-24.13c-.21-1.76-1.81-2.37-3.57-1.35l-43.21,25A5.68,5.68,0,0,0,2982.15,1794.41Z"/><path class="cls-36" d="M2987,1794l2.36,19.64c.18,1.44,1.48,1.93,2.91,1.1l35.19-20.34a4.64,4.64,0,0,0,2.28-4.1l-2.36-19.64c-.18-1.44-1.48-1.93-2.92-1.1l-35.18,20.33A4.64,4.64,0,0,0,2987,1794Z"/><path class="cls-28" d="M3044.45,1789.62a3.14,3.14,0,0,1-.91,1,2.39,2.39,0,0,1-1.13.39,4.61,4.61,0,0,1-2.53-.58,8.17,8.17,0,0,1-4.38-6.79,3.23,3.23,0,0,0-.58-2.31,4.67,4.67,0,0,0-1.07-.6,4,4,0,0,1-1.9-2.6,9.09,9.09,0,0,1-.09-3.29,2,2,0,0,1,.21-.76.68.68,0,0,1,.66-.34,1,1,0,0,1,.48.33c3.07,3.22,6.06,6.58,9.74,9.07A4.5,4.5,0,0,1,3044.45,1789.62Z"/><path class="cls-28" d="M2992.65,1814.47c-.36-2.38-1.64-4.22-2.46-6.43a34,34,0,0,1-1.6-8.24,7.71,7.71,0,0,0-1-3.52c-.42-.63-1.23-1.15-1.9-.81a1.62,1.62,0,0,0-.59.6,7.27,7.27,0,0,0-.58,4.34c.13,1.64.25,3.28.37,4.92a2.39,2.39,0,0,1-.09,1.13.84.84,0,0,1-.91.54,1.09,1.09,0,0,1-.42-.26,4,4,0,0,1-1.65-2.12c-.17-1.12-.27-2.25-.39-3.37-.26-2.21-.49-4.42-.72-6.63,0-.16-1.23.4-1.32.46a7.63,7.63,0,0,0-3.12,3.88c-.23.68-.36,1.39-.61,2.07s-.66,1.47-.9,2.23a11,11,0,0,0-.14,4.17c.12,1.27.23,2.54.35,3.81a5.06,5.06,0,0,0,.3,1.49,13.11,13.11,0,0,1,1,1.8c.25,1,0,1.92.52,2.82s1.27,1.84,1.93,2.74a31.8,31.8,0,0,1,3.59,5.61c.4.9.72,1.84,1.15,2.73a4.28,4.28,0,0,0,1.65,2,3.45,3.45,0,0,0,2,.32c2.11-.23,3.88-1.68,5.36-3.19a.46.46,0,0,0,.15-.22.49.49,0,0,0-.08-.33,14.34,14.34,0,0,1-1.14-5.36,3,3,0,0,1,0-1c.12-.48.45-.87.61-1.33a10.43,10.43,0,0,0,.61-4.53C2992.69,1814.72,2992.67,1814.59,2992.65,1814.47Z"/><path class="cls-31" d="M2983.19,1821.46a16.77,16.77,0,0,1,4.47-1.13c.94-.1,3-.29,3.73.41.51.47.79,1.9,1.09,2.55.91,1.93,2,3.75,3.05,5.62,1.3,2.28,12,17.8,15.41,22.84,6.37-5.5,10.22-13.12,13.26-21,1.71-4.47,3.45-9,6.15-12.93a23.66,23.66,0,0,1,6.06-6.24c1.83-1.26,4.8-3.09,7.13-2.51,2.61.65,5.06,3.79,6.41,5.93a24.52,24.52,0,0,1,2.62,5.81,29.19,29.19,0,0,1,.64,16.68,35.88,35.88,0,0,1-2.56,6.27,67.71,67.71,0,0,1-22.34,25.52,61.09,61.09,0,0,1-9.42,5.24c-2.31,1-5.3,2.65-7.87,2.71s-4.45-1.22-6.3-2.94a47.81,47.81,0,0,1-5.72-6.43,66.9,66.9,0,0,1-8.29-15c-.18-.43-.33-.87-.49-1.31q-2.58-7-5-14c-1.45-4.09-2.8-8.21-4.21-12.31a3.67,3.67,0,0,1-.29-1.52C2980.78,1822.57,2982.27,1821.82,2983.19,1821.46Z"/><ellipse class="cls-8" cx="2035.77" cy="1229.52" rx="59.03" ry="102.23" transform="translate(589.62 3117.57) rotate(-83.68)"/><path class="cls-37" d="M2042.88,1257.21s-2.27,10.38,10.77,13.56c11.72,2.87,16.54-6.48,24.17-8.7s20.26-8.79,23.15-12c5.86-6.4,4.08-9.92,4.08-9.92Z"/><path class="cls-38" d="M2046.78,1239.31s-5.42,16.16-3.47,20.3,11.32,8.43,18.07,3.65,22.86-4.16,32.88-10.8,13-13.15,9.13-16-16.32,3.47-21.47,2.83-18.94-7-18.94-7Z"/><path class="cls-37" d="M1980.65,1209.38s.66-13.27,11.11-17,15.46-6.17,17-2.62,0,15.46-4.35,19.52-7.71,7.81-9.41,12.85-4.1,10.89-10.41,9.76S1971,1221.35,1980.65,1209.38Z"/><path class="cls-38" d="M1980.65,1206.77s.66-13.28,11.11-17,15.46-6.16,17-2.61,0,15.46-4.35,19.52-7.71,7.81-9.41,12.84-4.1,10.89-10.41,9.76S1971,1218.75,1980.65,1206.77Z"/><path class="cls-38" d="M2003.68,1032.83s-8.27,11.32-8.27,29.82.23,34.4-1.74,46.6-8.92,25.37-10.66,36.13-3.49,56.39-3.49,56.39-3.91,8.49,0,10.87,7.9,4.8,13.1,1.31,10.3-7.28,10.07-14,1.56-21.48,8.84-37.78a161.51,161.51,0,0,0,10.23-35.13,429.26,429.26,0,0,0,15.46-48.8,149.64,149.64,0,0,0,4.35-42.94Z"/><path class="cls-39" d="M2021.76,1031.52s-5.66,28.75,0,40.5,12.41,7.81,13.94,23.07,5.13,55.73,6,63.56-7.36,29.4-3.22,42.24,2,34.4,4.56,38.75,10,5.85,15,4.35,9.76-5.21,10.25-8.92,7.62-36.33,7.62-49.62-.22-19.52,2.83-32a133.05,133.05,0,0,0,3.9-31.35c0-8.06,3.26-23.52,0-56.61s-11.32-47.24-11.32-47.24Z"/><path class="cls-40" d="M1997.38,931.89a17.77,17.77,0,0,0-.12-2.73c-.29-3.48-1-8.85-1-8.85s-19.15,10.64-20.46,25.38-6.33,42.94-7.4,47.24-6.54,10.89-3.71,27.87,3.48,20,4.14,22.43,5.39,19.7,6.09,21.65,6.21,5.6,6.42,6.2,3-.48,3.16-.54,1.14,1.09,2.29,0,1.79-3.63,2.28-3.63a4.23,4.23,0,0,0,2.44-2.25c.39-1.07,1.76-5.6,1.21-6.58a1.51,1.51,0,0,0-2.06-.53l-.28.22c-.49.55-1.58,2.46-1.7,2.62s-2-9-2-9a19.67,19.67,0,0,1,3.59.27c.8.28,2,2.66,2.56,3.26s4.23,4.51,4.59,2.56-2.85-7.81-3.13-9.9a5.16,5.16,0,0,0-1.58-3.1,61.86,61.86,0,0,0-7.34-6.48c-1.79-.92-4.14-1.8-4.14-1.8a31.74,31.74,0,0,1-.54-15.4c2-7.81,3.65-13.06,4.51-20.46l.87-7.41s10.23-24.38,12.63-35Z"/><path class="cls-41" d="M2003.8,929.16l-5.86-8.85s-5.15-1.79-11,3.52-9.14,8.16-12.65,23.91-2.7,24.5-2.7,24.5.41,9.76,9.76,9.54,11.87-1.62,11.87-1.62,10-26.78,10.64-36.91A72.89,72.89,0,0,0,2003.8,929.16Z"/><path class="cls-42" d="M1995,922c-1.25,1.39-5.86,7.4-5.86,22.41s9.14,28.3,12.2,41.81,6.52,10.44,3.91,25.24-6.25,30.84-6.25,30.84,14.09,13.8,39,14.23a65.63,65.63,0,0,0,41.24-13.66,126.35,126.35,0,0,1-2.92-33.19c1.09-16.53,9.42-30.25,7.8-44s-20.39-35.14-19.52-35.49S2001.3,915.06,1995,922Z"/><path class="cls-40" d="M2035.56,852.56l12.57.74,5.86,1.62s15.61,10.78,15.87,11.19,4.15.15,5.3,1.23,23,13.66,27.16,16.06,18.72,12,19.38,16.5-12.41,11.51-16,9.64-15.18-10.91-17.88-14.82-16.8-17.1-16.8-17.1-11.71,2.85-18.29,1.06-14.7-8.49-14.7-8.49-6.09-1.43-5.62-2.21.39-3.34,5.21-1.64,14.21,3.77,14.21,3.77-10.62-7.81-10.85-7.81-10.13-1.8-11.44-3.1-1-3.34-.57-3.34a13.1,13.1,0,0,0,1.76-.37s-.67-.94-.18-1.39a4,4,0,0,1,2-.41s-.29-1.05.34-1.09S2035.56,852.56,2035.56,852.56Z"/><path class="cls-40" d="M2017.62,907.76s1.74,10.56,0,13.67-2.83,3.9-2.28,6.3,24.38,5.11,28.09,3.71a22.85,22.85,0,0,0,6.87-4.69s-6.44-3.37-5.68-8.58a60.24,60.24,0,0,0,.76-7.09Z"/><path class="cls-12" d="M2053.87,892.3c.21-.31,1.37-.25,1.31-7.18s-.88-8.8-.88-8.8.23-3.69-.43-4.28-10.23-12.88-29.28-5.19-19.15,22.91-12.81,33.94,10,11.72,10.29,14.55l.31,2.77s10.72-6.85,14.35-5.86a12.21,12.21,0,0,0,8.63-1.09C2046.08,910.44,2053.87,892.3,2053.87,892.3Z"/><path class="cls-40" d="M2054.3,876.24s2.95,6.3,2.5,8.7-1.25,5-1.23,6-.35.45,0,1.75,1.68,2.93-1.27,7.81a19.82,19.82,0,0,0-3.05,9.47,4.61,4.61,0,0,1-4.68,3,2.86,2.86,0,0,1-1.7-2s-3.08-.37-2.87-5,4-8.07,5-6.31,1.17,2.66,1.77,2.19.61-7.81,1.58-11S2055.18,880.77,2054.3,876.24Z"/><path class="cls-40" d="M2056.78,936.07c.17-1,2.12-7.68,12.74-11.44s13.24-3.07,14.78-4.47,13.66-12.83,19.52-15.62,10-6.38,13.88-6.38a8,8,0,0,1,8,6.54c.49,3.75-13.66,24.32-20.24,29.71s-13.55,11.59-14.21,13.07-8.65,19.92-16.65,17.57S2056.78,936.07,2056.78,936.07Z"/><path class="cls-42" d="M2062.63,927.42c-5,1.21-9.29,16.9-8.47,24.09s7.5,19.65,18.92,19.83,27.6-29.4,27.6-29.4,0,.86-5.86-10.19-6-15.61-6-15.61A98.12,98.12,0,0,1,2062.63,927.42Z"/><path class="cls-39" d="M2001.32,986.25s15.34-33.94,49-59.5c0,0,4.89.86,9.88,2.19l-54.33,70.93S2002.1,992.23,2001.32,986.25Z"/><path class="cls-39" d="M2000.54,919.72a18.17,18.17,0,0,0-1.5,18.19c4.74,10.22,19.69,64.79,77.5,66.53l3.49-13s-17.69,3.24-40.12-12.46-34.14-46.1-30.9-58.55Z"/><path class="cls-39" d="M2003.53,993.23a276.84,276.84,0,0,1-4.55,49.1s34.93,42.43,82.79,11.2l-5.23-49.09L2022,974.79Z"/><g id="Axonometric_Cube" data-name="Axonometric Cube"><polygon class="cls-10" points="4800.01 1305.84 4800.01 1324.17 2244.32 -142.16 2276.07 -142.16 4800.01 1305.84"/><polygon class="cls-9" points="4800.01 845.5 4800.01 1305.84 2276.07 -142.16 3073.41 -142.16 4800.01 845.5"/><polygon class="cls-5" points="4800.01 880.12 4800.01 1271.24 2336.03 -142.16 3013.45 -142.16 4800.01 880.12"/></g><g id="Axonometric_Cube-2" data-name="Axonometric Cube"><polygon class="cls-10" points="1001.5 -145.76 0.01 428.85 0.01 410.55 969.68 -145.76 1001.5 -145.76"/><polygon class="cls-9" points="969.68 -145.76 0.01 410.55 0.01 -48.64 169.79 -145.76 969.68 -145.76"/><polygon class="cls-5" points="909.6 -145.76 0.01 376 0.01 -14.15 230.02 -145.76 909.6 -145.76"/></g><rect class="cls-10" x="0.01" y="2183.28" width="3798.79" height="27.58"/><polygon class="cls-43" points="3943.14 2267.03 3774.97 2363.37 3624.16 2210.86 3624.16 2183.28 3795.73 2183.28 3943.14 2267.03"/><g id="traffic_lights" data-name="traffic lights"><path class="cls-10" d="M3800.72,2024.65c12.56-7.27,33-7.22,45.57.08s12.66,19.07.16,26.32-32.95,7.2-45.58-.08S3788.16,2031.88,3800.72,2024.65Z"/><path class="cls-10" d="M3855.81,2037.78h-64.47v182.93h0c0,4.73,3.21,9.49,9.53,13.12,12.63,7.3,33,7.33,45.58.09,6.29-3.65,9.36-8.41,9.32-13.21h0Z"/><path class="cls-9" d="M3841.73,2029.34a10.72,10.72,0,0,0,.21-1.68V1513.29a18.39,18.39,0,0,0-36.78,0v514.37a18.43,18.43,0,0,0,.25,2.25C3813.09,2035.82,3825.87,2040.76,3841.73,2029.34Z"/><polygon class="cls-10" points="3819.36 1275.56 3890.95 1316.88 3819.83 1357.97 3748.2 1316.63 3819.36 1275.56"/><polygon class="cls-10" points="3819.36 1511.3 3890.95 1552.64 3819.83 1593.69 3748.2 1552.38 3819.36 1511.3"/><polygon class="cls-44" points="3819.83 1357.97 3819.83 1596.13 3748.2 1552.38 3748.2 1316.63 3819.83 1357.97"/><polygon class="cls-45" points="3890.95 1316.88 3890.95 1552.64 3819.83 1596.13 3819.83 1357.97 3890.95 1316.88"/><path class="cls-10" d="M3747.55,1352s-9.51,9.6,12.31,27v-30.22S3754.59,1346.58,3747.55,1352Z"/><path class="cls-26" d="M3756.59,1364.28c.06-15.22,10.81-21.36,24-13.71s23.92,26.16,23.92,41.39-10.74,21.35-24,13.7S3756.59,1379.49,3756.59,1364.28Z"/><path class="cls-10" d="M3747.55,1352s18.65-22.23,43.47-5.63c0,0,18.74,12.38,13.4,47.57L3778,1367.16S3763.26,1351.21,3747.55,1352Z"/><path class="cls-10" d="M3747.55,1426.6s-9.51,9.59,12.31,27v-30.26S3754.59,1421.19,3747.55,1426.6Z"/><path class="cls-46" d="M3756.59,1438.91c.06-15.23,10.81-21.36,24-13.7s23.92,26.15,23.92,41.38-10.74,21.35-24,13.7S3756.59,1454.12,3756.59,1438.91Z"/><path class="cls-10" d="M3747.55,1426.6s18.65-22.23,43.47-5.66c0,0,18.74,12.38,13.4,47.59L3778,1441.8S3763.26,1425.81,3747.55,1426.6Z"/><path class="cls-10" d="M3747.55,1501.23s-9.51,9.59,12.31,27V1498S3754.59,1495.83,3747.55,1501.23Z"/><path class="cls-47" d="M3756.59,1513.54c.06-15.22,10.81-21.37,24-13.72s23.92,26.17,23.92,41.38-10.74,21.36-24,13.72S3756.59,1528.74,3756.59,1513.54Z"/><path class="cls-10" d="M3747.55,1501.23s18.65-22.25,43.47-5.65c0,0,18.74,12.36,13.4,47.58L3778,1516.41S3763.26,1500.46,3747.55,1501.23Z"/><path class="cls-10" d="M3890.55,1352s9.54,9.6-12.29,27v-30.22S3883.52,1346.58,3890.55,1352Z"/><path class="cls-26" d="M3881.48,1364.28c0-15.22-10.77-21.36-24-13.71s-23.91,26.16-23.91,41.39,10.79,21.35,24,13.7S3881.48,1379.49,3881.48,1364.28Z"/><path class="cls-10" d="M3890.55,1352s-18.61-22.23-43.52-5.63c0,0-18.73,12.38-13.38,47.57l26.41-26.74S3874.84,1351.21,3890.55,1352Z"/><path class="cls-10" d="M3890.55,1426.6s9.54,9.59-12.29,27v-30.26S3883.52,1421.19,3890.55,1426.6Z"/><path class="cls-46" d="M3881.48,1438.91c0-15.23-10.77-21.36-24-13.7s-23.91,26.15-23.91,41.38,10.79,21.35,24,13.7S3881.48,1454.12,3881.48,1438.91Z"/><path class="cls-10" d="M3890.55,1426.6s-18.61-22.23-43.52-5.66c0,0-18.73,12.38-13.38,47.59l26.41-26.73S3874.84,1425.81,3890.55,1426.6Z"/><path class="cls-10" d="M3890.55,1501.23s9.54,9.59-12.29,27V1498S3883.52,1495.83,3890.55,1501.23Z"/><path class="cls-47" d="M3881.48,1513.54c0-15.22-10.77-21.37-24-13.72s-23.91,26.17-23.91,41.38,10.79,21.36,24,13.72S3881.48,1528.74,3881.48,1513.54Z"/><path class="cls-10" d="M3890.55,1501.23s-18.61-22.25-43.52-5.65c0,0-18.73,12.36-13.38,47.58l26.41-26.75S3874.84,1500.46,3890.55,1501.23Z"/></g><polygon class="cls-43" points="3855.48 1848.56 4018.63 1943.54 4401.61 1744.39 4220.07 1638.69 3855.48 1848.56"/><g id="stop_sign" data-name="stop sign"><polygon class="cls-48" points="3858.34 1667.66 3873.93 1659 3957.33 1612.63 4039.89 1566.74 4116 1524.43 4198.93 1478.33 4263.4 1442.49 4303.05 1420.45 4323.13 1314.43 4323.19 1314.08 4087.05 1448.21 4010.33 1491.79 3920.24 1542.95 3913.78 1546.63 3913.58 1546.73 3881.29 1565.08 3858.34 1667.66"/><polygon class="cls-49" points="3870.74 1557.31 3880.88 1564.78 3881.29 1565.08 3913.58 1546.73 3913.78 1546.63 3920.24 1542.95 4010.33 1491.79 4087.05 1448.21 4318.65 1316.65 4319.12 1316.39 4323.19 1314.08 4313.1 1308.14 4309.23 1310.31 4076.68 1441.3 3998.34 1485.43 3998.19 1485.52 3909.34 1535.57 3870.74 1557.31"/><polygon class="cls-50" points="3848.05 1658.55 3858.34 1667.66 3881.29 1565.08 3880.88 1564.78 3870.74 1557.31 3867.4 1572.22 3848.05 1658.55"/><polygon class="cls-51" points="3867.4 1572.22 3880.88 1564.78 3913.58 1546.73 3913.78 1546.63 3920.33 1543.02 3920.24 1542.95 3909.34 1535.57 3870.74 1557.31 3867.4 1572.22"/><polygon class="cls-17" points="3848.05 1658.55 3858.34 1667.66 3873.93 1659 3920.33 1543.02 3913.78 1546.63 3913.58 1546.73 3880.88 1564.78 3867.4 1572.22 3848.05 1658.55"/><polygon class="cls-17" points="4116 1524.43 4198.93 1478.33 4247.43 1357.11 4247.47 1356.97 4170.03 1399.71 4169.25 1401.51 4116 1524.43"/><polygon class="cls-51" points="4247.47 1356.97 4237.18 1350.58 4159.97 1393.52 4170.03 1399.71 4247.47 1356.97"/><polygon class="cls-17" points="4271.14 1438.18 4303.05 1420.45 4323.19 1314.08 4318.65 1316.65 4271.14 1438.18"/><polygon class="cls-51" points="4308.75 1310.58 4318.65 1316.65 4319.12 1316.39 4323.19 1314.08 4313.1 1308.14 4308.75 1310.58"/><polygon class="cls-17" points="3957.33 1612.63 4039.89 1566.74 4087.05 1448.21 4087.12 1448.05 4010.4 1491.62 4010.33 1491.79 3957.33 1612.63"/><polygon class="cls-51" points="3998.19 1485.52 4010.4 1491.62 4087.12 1448.05 4076.68 1441.3 3998.34 1485.43 3998.19 1485.52"/><polygon class="cls-52" points="3870.74 1557.31 3880.88 1564.78 3858.34 1667.66 3848.05 1658.55 3870.74 1557.31"/><polygon class="cls-48" points="3843.91 1807.05 3859.48 1798.38 3942.89 1752.01 4025.44 1706.12 4101.57 1663.8 4184.5 1617.71 4248.95 1581.88 4288.6 1559.83 4308.69 1453.81 4308.75 1453.46 4072.61 1587.58 3995.88 1631.17 3905.8 1682.34 3899.34 1686.01 3899.14 1686.12 3866.85 1704.46 3843.91 1807.05"/><polygon class="cls-49" points="3856.29 1696.7 3866.43 1704.17 3866.85 1704.46 3899.14 1686.12 3899.34 1686.01 3905.8 1682.34 3995.88 1631.17 4072.61 1587.58 4304.21 1456.04 4304.66 1455.78 4308.75 1453.46 4298.66 1447.52 4294.78 1449.69 4062.24 1580.69 3983.9 1624.81 3983.75 1624.9 3894.9 1674.95 3856.29 1696.7"/><polygon class="cls-50" points="3833.61 1797.93 3843.91 1807.05 3866.85 1704.46 3866.43 1704.17 3856.29 1696.7 3852.95 1711.6 3833.61 1797.93"/><polygon class="cls-51" points="3852.95 1711.6 3866.43 1704.17 3899.14 1686.12 3899.34 1686.01 3905.89 1682.4 3905.8 1682.34 3894.9 1674.95 3856.29 1696.7 3852.95 1711.6"/><polygon class="cls-17" points="3833.61 1797.93 3843.91 1807.05 3859.48 1798.38 3905.89 1682.4 3899.34 1686.01 3899.14 1686.12 3866.43 1704.17 3852.95 1711.6 3833.61 1797.93"/><polygon class="cls-17" points="4101.57 1663.8 4184.5 1617.71 4232.98 1496.5 4233.04 1496.36 4155.59 1539.09 4154.81 1540.9 4101.57 1663.8"/><polygon class="cls-53" points="4233.04 1496.36 4222.74 1489.96 4145.53 1532.9 4155.58 1539.09 4233.04 1496.36"/><polygon class="cls-17" points="4256.7 1577.57 4288.6 1559.83 4308.75 1453.46 4304.21 1456.04 4256.7 1577.57"/><polygon class="cls-53" points="4294.31 1449.96 4304.21 1456.04 4304.66 1455.78 4308.75 1453.46 4298.66 1447.52 4294.31 1449.96"/><polygon class="cls-17" points="3942.89 1752.01 4025.44 1706.12 4072.61 1587.58 4072.67 1587.42 3995.96 1630.99 3995.88 1631.17 3942.89 1752.01"/><polygon class="cls-53" points="3983.75 1624.9 3995.96 1630.99 4072.67 1587.42 4062.24 1580.69 3983.9 1624.81 3983.75 1624.9"/><polygon class="cls-52" points="3856.29 1696.7 3866.43 1704.17 3843.91 1807.05 3833.61 1797.93 3856.29 1696.7"/><polygon class="cls-7" points="4333.19 1703.77 4205.97 1631.48 4212.56 1602.85 4330.31 1669.09 4333.19 1703.77"/><polygon class="cls-50" points="4212.56 1602.85 4219.38 1600.46 4335.35 1665.51 4330.31 1669.09 4212.56 1602.85"/><polygon class="cls-54" points="4275.42 1353.56 4203.43 1713.47 4182.88 1726.48 4259.72 1334.47 4275.42 1353.56"/><polygon class="cls-7" points="4297.68 1320.42 4370.13 1750.87 4347.56 1763.89 4271.93 1333.71 4297.68 1320.42"/><polygon class="cls-49" points="4259.72 1334.47 4335.69 1756.17 4347.56 1763.89 4271.54 1331.5 4259.72 1324.74 4259.72 1331.5 4259.72 1334.47"/><polygon class="cls-49" points="4261.74 1333.88 4182.88 1726.48 4171.88 1721.45 4254.42 1321.72 4259.72 1324.74 4261.74 1333.88"/><polygon class="cls-9" points="4297.68 1320.42 4271.93 1333.71 4254.42 1321.72 4279.86 1309.72 4297.68 1320.42"/><polygon class="cls-54" points="3963.47 1516.71 3900.68 1827.19 3881.07 1839.13 3947.77 1497.63 3963.47 1516.71"/><polygon class="cls-7" points="3985.73 1483.57 4058.18 1914.02 4035.61 1927.03 3959.98 1496.87 3985.73 1483.57"/><polygon class="cls-49" points="3947.77 1497.63 4023.74 1919.31 4035.61 1927.03 3959.59 1494.65 3947.77 1487.9 3947.77 1494.65 3947.77 1497.63"/><polygon class="cls-49" points="3949.8 1497.03 3881.07 1839.13 3870.63 1832.8 3942.48 1484.87 3947.77 1487.9 3949.8 1497.03"/><polygon class="cls-9" points="3985.73 1483.57 3959.98 1496.87 3942.48 1484.87 3967.91 1472.88 3985.73 1483.57"/><polygon class="cls-49" points="4019.47 1868.26 3892.25 1795.98 3898.84 1767.34 4016.6 1833.58 4019.47 1868.26"/><polygon class="cls-54" points="3898.84 1767.34 3905.66 1764.95 4021.64 1830.01 4016.6 1833.58 3898.84 1767.34"/><polygon class="cls-16" points="3902.11 1580.96 3924.27 1700.6 3924.27 1700.62 3925.87 1709.24 3998.36 1667.38 4084.3 1617.74 4158.73 1574.76 4244.66 1525.13 4324.56 1478.98 4370.13 1452.67 4347.56 1331.51 4344.64 1333.14 4266.44 1376.93 4180.96 1424.81 4106.52 1466.49 4021.04 1514.36 3945.42 1556.7 3902.11 1580.96"/><polygon class="cls-55" points="3925.87 1709.24 3915.85 1702.46 3892.69 1577.74 3902.11 1580.96 3925.87 1709.24"/><polygon class="cls-51" points="4347.56 1331.5 4339.25 1327.35 3892.69 1577.74 3902.11 1580.96 4347.56 1331.5"/><polygon class="cls-16" points="4403.31 1625.8 3959.06 1882.38 3935.3 1754.08 4380.75 1504.63 4403.31 1625.8"/><polygon class="cls-51" points="3925.87 1750.86 3935.31 1754.08 4054.23 1687.49 4061.62 1683.34 4380.75 1504.63 4372.42 1500.47 4132.76 1634.86 4048.39 1682.17 3925.87 1750.86"/><polygon class="cls-49" points="4324.56 1478.98 4370.13 1452.67 4347.56 1331.51 4344.64 1333.14 4324.56 1478.98"/><polygon class="cls-49" points="4158.73 1574.76 4244.66 1525.13 4266.44 1376.93 4180.96 1424.81 4158.73 1574.76"/><polygon class="cls-49" points="3998.36 1667.38 4084.3 1617.74 4106.52 1466.49 4021.04 1514.36 3998.36 1667.38"/><polygon class="cls-49" points="3902.11 1580.96 3924.27 1700.6 3945.42 1556.7 3902.11 1580.96"/><polygon class="cls-49" points="4357.75 1652.11 4403.31 1625.8 4380.75 1504.63 4377.82 1506.27 4357.75 1652.11"/><polygon class="cls-49" points="4191.91 1747.89 4277.85 1698.26 4299.63 1550.06 4214.14 1597.93 4191.91 1747.89"/><polygon class="cls-49" points="4031.54 1840.51 4117.48 1790.87 4139.71 1639.62 4054.22 1687.49 4031.54 1840.51"/><polygon class="cls-49" points="3935.3 1754.08 3957.46 1873.73 3978.61 1729.83 3935.3 1754.08"/><polygon class="cls-9" points="4266.44 1376.93 4259.28 1372.19 4174.95 1419.47 4180.96 1424.81 4266.44 1376.93"/><polygon class="cls-9" points="4106.52 1466.34 4099.36 1461.59 4015.02 1508.87 4021.04 1514.21 4106.52 1466.34"/><polygon class="cls-9" points="4344.64 1333.14 4336.42 1328.93 4339.25 1327.35 4347.56 1331.51 4344.64 1333.14"/><polygon class="cls-9" points="3945.42 1556.7 3937.83 1552.43 3892.69 1577.74 3902.11 1580.96 3945.42 1556.7"/><polygon class="cls-7" points="3902.11 1580.96 3925.87 1709.24 3915.85 1702.46 3892.69 1577.74 3902.11 1580.96"/><polygon class="cls-9" points="4299.63 1550.07 4292.47 1545.32 4208.14 1592.6 4214.14 1597.93 4299.63 1550.07"/><polygon class="cls-9" points="4048.39 1682.17 4054.23 1687.49 4061.62 1683.34 4139.71 1639.46 4132.76 1634.86 4048.39 1682.17"/><polygon class="cls-9" points="4377.82 1506.28 4369.61 1502.06 4372.44 1500.47 4380.75 1504.63 4377.82 1506.28"/><polygon class="cls-9" points="3978.61 1729.84 3971.01 1725.56 3925.87 1750.87 3935.3 1754.09 3978.61 1729.84"/><polygon class="cls-7" points="3935.3 1754.09 3959.06 1882.38 3949.04 1875.59 3925.87 1750.87 3935.3 1754.09"/></g><polygon class="cls-43" points="594.55 1170.43 431.4 1265.41 48.42 1066.26 229.95 960.56 594.55 1170.43"/><g id="stop_sign-2" data-name="stop sign"><polygon class="cls-48" points="591.68 989.53 576.1 980.87 492.69 934.51 410.14 888.61 334.03 846.3 251.1 800.2 186.63 764.36 146.98 742.32 126.89 636.3 126.84 635.95 362.97 770.08 439.7 813.66 529.79 864.83 536.25 868.5 536.45 868.6 568.74 886.95 591.68 989.53"/><polygon class="cls-49" points="579.29 879.19 569.15 886.66 568.74 886.95 536.45 868.6 536.25 868.5 529.79 864.83 439.7 813.66 362.97 770.08 131.38 638.53 130.91 638.26 126.84 635.95 136.93 630.01 140.8 632.18 373.34 763.17 451.69 807.31 451.83 807.39 540.69 857.44 579.29 879.19"/><polygon class="cls-50" points="601.98 980.42 591.68 989.53 568.74 886.95 569.15 886.66 579.29 879.19 582.63 894.1 601.98 980.42"/><polygon class="cls-51" points="582.63 894.1 569.15 886.66 536.45 868.6 536.25 868.5 529.7 864.89 529.79 864.83 540.69 857.44 579.29 879.19 582.63 894.1"/><polygon class="cls-17" points="601.98 980.42 591.68 989.53 576.1 980.87 529.7 864.89 536.25 868.5 536.45 868.6 569.15 886.66 582.63 894.1 601.98 980.42"/><polygon class="cls-17" points="334.03 846.3 251.1 800.2 202.6 678.99 202.55 678.84 280 721.58 280.78 723.38 334.03 846.3"/><polygon class="cls-51" points="202.55 678.84 212.85 672.45 290.06 715.4 280 721.58 202.55 678.84"/><polygon class="cls-17" points="178.89 760.05 146.98 742.32 126.84 635.95 131.38 638.53 178.89 760.05"/><polygon class="cls-51" points="141.28 632.45 131.38 638.53 130.91 638.26 126.84 635.95 136.93 630.01 141.28 632.45"/><polygon class="cls-17" points="492.69 934.51 410.14 888.61 362.97 770.08 362.91 769.92 439.63 813.49 439.7 813.66 492.69 934.51"/><polygon class="cls-51" points="451.83 807.39 439.63 813.49 362.91 769.92 373.34 763.17 451.69 807.31 451.83 807.39"/><polygon class="cls-52" points="579.29 879.19 569.15 886.66 591.68 989.53 601.98 980.42 579.29 879.19"/><polygon class="cls-48" points="606.12 1128.92 590.54 1120.25 507.14 1073.88 424.58 1028 348.46 985.67 265.52 939.58 201.08 903.75 161.43 881.7 141.34 775.68 141.28 775.33 377.42 909.45 454.14 953.04 544.23 1004.21 550.69 1007.88 550.89 1007.99 583.18 1026.33 606.12 1128.92"/><polygon class="cls-49" points="593.74 1018.57 583.6 1026.04 583.18 1026.33 550.89 1007.99 550.69 1007.88 544.23 1004.21 454.14 953.04 377.42 909.45 145.82 777.91 145.36 777.66 141.28 775.33 151.37 769.39 155.25 771.57 387.79 902.56 466.13 946.69 466.28 946.77 555.13 996.83 593.74 1018.57"/><polygon class="cls-50" points="616.42 1119.81 606.12 1128.92 583.18 1026.33 583.6 1026.04 593.74 1018.57 597.08 1033.48 616.42 1119.81"/><polygon class="cls-51" points="597.08 1033.48 583.6 1026.04 550.89 1007.99 550.69 1007.88 544.14 1004.27 544.23 1004.21 555.13 996.83 593.74 1018.57 597.08 1033.48"/><polygon class="cls-17" points="616.42 1119.81 606.12 1128.92 590.54 1120.25 544.14 1004.27 550.69 1007.88 550.89 1007.99 583.6 1026.04 597.08 1033.48 616.42 1119.81"/><polygon class="cls-17" points="348.46 985.67 265.52 939.58 217.04 818.37 216.99 818.23 294.44 860.97 295.21 862.77 348.46 985.67"/><polygon class="cls-53" points="216.99 818.23 227.28 811.83 304.5 854.77 294.45 860.97 216.99 818.23"/><polygon class="cls-17" points="193.33 899.45 161.43 881.7 141.28 775.33 145.82 777.91 193.33 899.45"/><polygon class="cls-53" points="155.72 771.83 145.82 777.91 145.36 777.66 141.28 775.33 151.37 769.39 155.72 771.83"/><polygon class="cls-17" points="507.14 1073.88 424.58 1028 377.42 909.45 377.36 909.3 454.07 952.87 454.14 953.04 507.14 1073.88"/><polygon class="cls-53" points="466.28 946.77 454.07 952.87 377.36 909.3 387.79 902.56 466.13 946.69 466.28 946.77"/><polygon class="cls-52" points="593.74 1018.57 583.6 1026.04 606.12 1128.92 616.42 1119.81 593.74 1018.57"/><polygon class="cls-7" points="116.83 1025.64 244.06 953.36 237.47 924.72 119.72 990.96 116.83 1025.64"/><polygon class="cls-50" points="237.47 924.72 230.65 922.33 114.68 987.38 119.72 990.96 237.47 924.72"/><polygon class="cls-54" points="174.61 675.43 246.59 1035.35 267.15 1048.35 190.31 656.35 174.61 675.43"/><polygon class="cls-7" points="152.35 642.29 79.9 1072.74 102.47 1085.76 178.1 655.59 152.35 642.29"/><polygon class="cls-49" points="190.31 656.35 114.34 1078.04 102.47 1085.76 178.49 653.37 190.31 646.61 190.31 653.37 190.31 656.35"/><polygon class="cls-49" points="188.28 655.75 267.15 1048.35 278.15 1043.32 195.6 643.59 190.31 646.61 188.28 655.75"/><polygon class="cls-9" points="152.35 642.29 178.1 655.59 195.6 643.59 170.17 631.6 152.35 642.29"/><polygon class="cls-54" points="486.56 838.58 549.35 1149.07 568.96 1161.01 502.26 819.5 486.56 838.58"/><polygon class="cls-7" points="464.3 805.44 391.85 1235.89 414.42 1248.9 490.05 818.75 464.3 805.44"/><polygon class="cls-49" points="502.26 819.5 426.29 1241.18 414.42 1248.9 490.43 816.53 502.26 809.77 502.26 816.53 502.26 819.5"/><polygon class="cls-49" points="500.23 818.9 568.96 1161.01 579.39 1154.67 507.55 806.75 502.26 809.77 500.23 818.9"/><polygon class="cls-9" points="464.3 805.44 490.05 818.75 507.55 806.75 482.12 794.75 464.3 805.44"/><polygon class="cls-49" points="430.56 1190.13 557.78 1117.86 551.18 1089.22 433.43 1155.46 430.56 1190.13"/><polygon class="cls-54" points="551.18 1089.22 544.36 1086.82 428.39 1151.89 433.43 1155.46 551.18 1089.22"/><polygon class="cls-16" points="547.91 902.83 525.75 1022.48 525.75 1022.49 524.15 1031.12 451.67 989.25 365.73 939.62 291.3 896.63 205.37 847 125.46 800.86 79.9 774.54 102.47 653.38 105.39 655.01 183.58 698.81 269.07 746.68 343.51 788.36 428.99 836.23 504.61 878.57 547.91 902.83"/><polygon class="cls-55" points="524.15 1031.12 534.18 1024.33 557.34 899.61 547.91 902.83 524.15 1031.12"/><polygon class="cls-51" points="102.47 653.37 110.78 649.22 557.34 899.61 547.91 902.83 102.47 653.37"/><polygon class="cls-16" points="46.72 947.67 490.97 1204.25 514.73 1075.96 69.27 826.51 46.72 947.67"/><polygon class="cls-51" points="524.15 1072.73 514.72 1075.95 395.79 1009.37 388.4 1005.21 69.27 826.5 77.6 822.35 317.27 956.73 401.63 1004.04 524.15 1072.73"/><polygon class="cls-49" points="125.46 800.86 79.9 774.54 102.47 653.38 105.39 655.01 125.46 800.86"/><polygon class="cls-49" points="291.3 896.63 205.37 847 183.58 698.81 269.07 746.68 291.3 896.63"/><polygon class="cls-49" points="451.67 989.25 365.73 939.62 343.51 788.36 428.99 836.23 451.67 989.25"/><polygon class="cls-49" points="547.91 902.83 525.75 1022.48 504.61 878.57 547.91 902.83"/><polygon class="cls-49" points="92.28 973.99 46.72 947.67 69.27 826.51 72.2 828.14 92.28 973.99"/><polygon class="cls-49" points="258.12 1069.77 172.18 1020.13 150.4 871.93 235.89 919.8 258.12 1069.77"/><polygon class="cls-49" points="418.49 1162.38 332.55 1112.74 310.32 961.49 395.81 1009.36 418.49 1162.38"/><polygon class="cls-49" points="514.73 1075.96 492.57 1195.61 471.42 1051.7 514.73 1075.96"/><polygon class="cls-9" points="183.58 698.81 190.75 694.06 275.08 741.35 269.07 746.68 183.58 698.81"/><polygon class="cls-9" points="343.51 788.21 350.67 783.46 435.01 830.75 428.99 836.09 343.51 788.21"/><polygon class="cls-9" points="105.39 655.01 113.61 650.8 110.78 649.22 102.47 653.38 105.39 655.01"/><polygon class="cls-9" points="504.61 878.57 512.2 874.3 557.34 899.61 547.91 902.83 504.61 878.57"/><polygon class="cls-7" points="547.91 902.83 524.15 1031.12 534.18 1024.33 557.34 899.61 547.91 902.83"/><polygon class="cls-9" points="150.4 871.94 157.56 867.19 241.89 914.47 235.89 919.8 150.4 871.94"/><polygon class="cls-9" points="401.63 1004.04 395.79 1009.37 388.4 1005.21 310.32 961.33 317.27 956.73 401.63 1004.04"/><polygon class="cls-9" points="72.2 828.15 80.42 823.93 77.59 822.35 69.27 826.51 72.2 828.15"/><polygon class="cls-9" points="471.42 1051.71 479.02 1047.43 524.15 1072.74 514.73 1075.97 471.42 1051.71"/><polygon class="cls-7" points="514.73 1075.97 490.97 1204.25 500.99 1197.46 524.15 1072.74 514.73 1075.97"/></g><polygon class="cls-43" points="1743.06 997.7 1624.24 1066.3 1510.87 1000.84 1629.61 932.22 1743.06 997.7"/><path class="cls-7" d="M1451.44,1209.47a2.49,2.49,0,0,1-2.17,1.26,2.53,2.53,0,0,1-1.24-.33l-1.53-.88,4.8-2.76A2.49,2.49,0,0,1,1451.44,1209.47Z"/><path class="cls-7" d="M1617.59,1302l-10.44-6a2.5,2.5,0,1,0-2.49,4.33l10.44,6a2.53,2.53,0,0,0,1.24.33,2.5,2.5,0,0,0,1.25-4.67Zm-20.88-12-10.45-6a2.5,2.5,0,0,0-2.49,4.34l10.45,6a2.53,2.53,0,0,0,1.24.33,2.5,2.5,0,0,0,1.25-4.67Zm-20.89-12-10.44-6a2.5,2.5,0,0,0-2.49,4.34l10.44,6a2.44,2.44,0,0,0,1.24.34,2.5,2.5,0,0,0,1.25-4.67Zm-20.88-12-10.44-6a2.5,2.5,0,1,0-2.49,4.33l10.44,6a2.43,2.43,0,0,0,1.24.33,2.5,2.5,0,0,0,1.25-4.67Zm-20.88-12-10.45-6a2.5,2.5,0,0,0-2.49,4.34l10.45,6a2.53,2.53,0,0,0,1.24.33,2.5,2.5,0,0,0,1.25-4.67Zm-20.89-12-10.44-6a2.5,2.5,0,0,0-2.49,4.34l10.44,6a2.44,2.44,0,0,0,1.24.34,2.5,2.5,0,0,0,1.25-4.67Zm-20.88-12-10.44-6a2.5,2.5,0,1,0-2.49,4.34l10.44,6a2.43,2.43,0,0,0,1.24.33,2.5,2.5,0,0,0,1.25-4.66Zm-20.88-12-10.45-6a2.5,2.5,0,0,0-2.49,4.33l10.45,6a2.5,2.5,0,0,0,2.49-4.34Z"/><path class="cls-7" d="M1632,1315.66a2.55,2.55,0,0,1-1.25-.34l-5.2-3A2.5,2.5,0,0,1,1628,1308l4,2.27,4-2.28a2.5,2.5,0,0,1,2.5,4.33l-5.2,3A2.55,2.55,0,0,1,1632,1315.66Z"/><path class="cls-7" d="M1660,1297a2.5,2.5,0,0,0-3.42-.92l-10.32,6a2.49,2.49,0,0,0-.92,3.41,2.52,2.52,0,0,0,2.17,1.25,2.6,2.6,0,0,0,1.25-.33l10.32-6A2.49,2.49,0,0,0,1660,1297Zm20.64-11.91a2.49,2.49,0,0,0-3.41-.92l-10.33,6a2.5,2.5,0,0,0,1.26,4.66,2.53,2.53,0,0,0,1.24-.33l10.32-6A2.49,2.49,0,0,0,1680.64,1285.09Zm20.64-11.91a2.49,2.49,0,0,0-3.41-.92l-10.32,6a2.5,2.5,0,0,0,1.25,4.66,2.6,2.6,0,0,0,1.25-.33l10.32-6A2.5,2.5,0,0,0,1701.28,1273.18Zm20.65-11.91a2.5,2.5,0,0,0-3.42-.92l-10.32,6a2.5,2.5,0,0,0,1.25,4.67,2.54,2.54,0,0,0,1.25-.33l10.32-6A2.49,2.49,0,0,0,1721.93,1261.27Zm20.64-11.91a2.49,2.49,0,0,0-3.41-.92l-10.32,6a2.5,2.5,0,0,0,1.25,4.67,2.6,2.6,0,0,0,1.25-.33l10.32-6A2.5,2.5,0,0,0,1742.57,1249.36Zm20.65-11.91a2.5,2.5,0,0,0-3.42-.92l-10.32,6a2.5,2.5,0,0,0,1.25,4.67,2.54,2.54,0,0,0,1.25-.33l10.32-6A2.49,2.49,0,0,0,1763.22,1237.45Zm20.64-11.92a2.5,2.5,0,0,0-3.41-.91l-10.32,6a2.5,2.5,0,0,0,1.25,4.67,2.53,2.53,0,0,0,1.24-.33l10.33-6A2.51,2.51,0,0,0,1783.86,1225.53Zm20.65-11.91a2.51,2.51,0,0,0-3.42-.91l-10.32,6a2.5,2.5,0,0,0,1.25,4.67,2.45,2.45,0,0,0,1.25-.34l10.32-6A2.5,2.5,0,0,0,1804.51,1213.62Z"/><text class="cls-56" transform="translate(995.06 1566.99)">b <tspan class="cls-57" x="84.57" y="0">: 8</tspan></text><text class="cls-56" transform="translate(1485.27 1836.61)">c <tspan class="cls-57" x="72.56" y="0">: 10</tspan></text><text class="cls-56" transform="translate(2089.87 1562.91)">a <tspan class="cls-57" x="83.89" y="0">: 6</tspan></text><polyline class="cls-58" points="659.39 1865.67 659.39 2298.69 1137.35 2298.69"/><circle class="cls-4" cx="1137.35" cy="2302.77" r="36.77"/><text class="cls-59" transform="translate(1223.14 2492.73)">Area : 24</text><text class="cls-59" transform="translate(1223.14 2339.54)">a: 6, b: 8, c: 10</text><g id="traffic_lights-2" data-name="traffic lights"><path class="cls-10" d="M1602.8,791.83c12.56-7.27,33-7.22,45.57.08s12.66,19.07.16,26.32-33,7.2-45.58-.08S1590.24,799.06,1602.8,791.83Z"/><path class="cls-10" d="M1657.88,805h-64.46V987.89h0c0,4.73,3.21,9.49,9.53,13.12,12.63,7.3,33,7.34,45.58.09,6.29-3.65,9.35-8.41,9.32-13.21h0Z"/><path class="cls-9" d="M1643.81,796.52a10.72,10.72,0,0,0,.21-1.68V280.47a18.39,18.39,0,0,0-36.78,0V794.84a16.65,16.65,0,0,0,.25,2.25C1615.17,803,1628,807.94,1643.81,796.52Z"/><polygon class="cls-10" points="1621.44 42.74 1693.03 84.06 1621.9 125.15 1550.28 83.81 1621.44 42.74"/><polygon class="cls-10" points="1621.44 278.48 1693.03 319.82 1621.9 360.87 1550.28 319.56 1621.44 278.48"/><polygon class="cls-44" points="1621.9 125.15 1621.9 363.31 1550.28 319.56 1550.28 83.81 1621.9 125.15"/><polygon class="cls-45" points="1693.03 84.06 1693.03 319.82 1621.9 363.31 1621.9 125.15 1693.03 84.06"/><path class="cls-10" d="M1549.63,119.14s-9.51,9.6,12.3,27V115.94S1556.66,113.76,1549.63,119.14Z"/><path class="cls-26" d="M1558.67,131.46c.06-15.22,10.8-21.36,24-13.71s23.92,26.16,23.92,41.39-10.73,21.35-24,13.7S1558.67,146.67,1558.67,131.46Z"/><path class="cls-10" d="M1549.63,119.14s18.64-22.23,43.47-5.63c0,0,18.74,12.38,13.4,47.57l-26.42-26.74S1565.34,118.39,1549.63,119.14Z"/><path class="cls-10" d="M1549.63,193.78s-9.51,9.59,12.3,27V190.53S1556.66,188.37,1549.63,193.78Z"/><path class="cls-46" d="M1558.67,206.09c.06-15.23,10.8-21.36,24-13.7s23.92,26.15,23.92,41.38-10.73,21.35-24,13.7S1558.67,221.3,1558.67,206.09Z"/><path class="cls-10" d="M1549.63,193.78s18.64-22.23,43.47-5.66c0,0,18.74,12.38,13.4,47.59L1580.08,209S1565.34,193,1549.63,193.78Z"/><path class="cls-10" d="M1549.63,268.41s-9.51,9.59,12.3,27V265.18S1556.66,263,1549.63,268.41Z"/><path class="cls-47" d="M1558.67,280.72c.06-15.22,10.8-21.37,24-13.72s23.92,26.17,23.92,41.38-10.73,21.36-24,13.72S1558.67,295.92,1558.67,280.72Z"/><path class="cls-10" d="M1549.63,268.41s18.64-22.25,43.47-5.65c0,0,18.74,12.36,13.4,47.58l-26.42-26.75S1565.34,267.64,1549.63,268.41Z"/><path class="cls-10" d="M1692.63,119.14s9.54,9.6-12.29,27V115.94S1685.59,113.76,1692.63,119.14Z"/><path class="cls-26" d="M1683.56,131.46c0-15.22-10.77-21.36-24-13.71s-23.91,26.16-23.91,41.39,10.79,21.35,24,13.7S1683.56,146.67,1683.56,131.46Z"/><path class="cls-10" d="M1692.63,119.14s-18.61-22.23-43.52-5.63c0,0-18.73,12.38-13.39,47.57l26.42-26.74S1676.92,118.39,1692.63,119.14Z"/><path class="cls-10" d="M1692.63,193.78s9.54,9.59-12.29,27V190.53S1685.59,188.37,1692.63,193.78Z"/><path class="cls-46" d="M1683.56,206.09c0-15.23-10.77-21.36-24-13.7s-23.91,26.15-23.91,41.38,10.79,21.35,24,13.7S1683.56,221.3,1683.56,206.09Z"/><path class="cls-10" d="M1692.63,193.78s-18.61-22.23-43.52-5.66c0,0-18.73,12.38-13.39,47.59L1662.14,209S1676.92,193,1692.63,193.78Z"/><path class="cls-10" d="M1692.63,268.41s9.54,9.59-12.29,27V265.18S1685.59,263,1692.63,268.41Z"/><path class="cls-47" d="M1683.56,280.72c0-15.22-10.77-21.37-24-13.72s-23.91,26.17-23.91,41.38,10.79,21.36,24,13.72S1683.56,295.92,1683.56,280.72Z"/><path class="cls-10" d="M1692.63,268.41s-18.61-22.25-43.52-5.65c0,0-18.73,12.36-13.39,47.58l26.42-26.75S1676.92,267.64,1692.63,268.41Z"/></g></g></g></g></svg>